<svg xmlns="http://www.w3.org/2000/svg" viewBox="0 0 200 200" role="img" aria-label="Ant-Man"><defs><clipPath id="antman-0"><path d="M102.4,35 C127.4,35 140.1,52 140.1,76 C140.1,80 139.1,84 139.1,87 C139.1,90 135.9,92 135.9,95 C135.9,99 139.8,101 139.8,105 C139.8,114 136.2,122 132.2,129 C126.2,141 121.2,150 109.2,152.5 C101.2,153.5 91.2,151 76.2,142 C71.2,137 65.9,130 63.9,120 C60.9,110 59.9,98 59.9,80 C59.9,52 76.4,35 102.4,35Z"/></clipPath><clipPath id="antman-1"><path d="M0,0 L220,0 L220,80 L0,80Z"/></clipPath><clipPath id="antman-2"><path d="M102.4,35 C127.4,35 140.1,52 140.1,76 C140.1,80 139.1,84 139.1,87 C139.1,90 135.9,92 135.9,95 C135.9,99 139.8,101 139.8,105 C139.8,114 136.2,122 132.2,129 C126.2,141 121.2,150 109.2,152.5 C101.2,153.5 91.2,151 76.2,142 C71.2,137 65.9,130 63.9,120 C60.9,110 59.9,98 59.9,80 C59.9,52 76.4,35 102.4,35Z"/></clipPath><clipPath id="antman-3"><path d="M-12,214 C-10,175.4 14.8,159.6 73,152.9 C89,162 117,162 133,151.9 C178.2,157.6 210,175.4 212,214Z"/></clipPath><clipPath id="antman-4"><path d="M-12,214 C-10,175.4 14.8,159.6 73,152.9 C89,162 117,162 133,151.9 C178.2,157.6 210,175.4 212,214Z"/></clipPath><clipPath id="antman-5"><path d="M87.4,116 C87.4,132 85.4,146 79.4,166 L125.4,166 C119.4,146 117.4,132 117.4,116Z"/></clipPath><clipPath id="antman-6"><path d="M102.4,35 C127.4,35 140.1,52 140.1,76 C140.1,80 139.1,84 139.1,87 C139.1,90 135.9,92 135.9,95 C135.9,99 139.8,101 139.8,105 C139.8,114 136.2,122 132.2,129 C126.2,141 121.2,150 109.2,152.5 C101.2,153.5 91.2,151 76.2,142 C71.2,137 65.9,130 63.9,120 C60.9,110 59.9,98 59.9,80 C59.9,52 76.4,35 102.4,35Z"/></clipPath><radialGradient id="antman-7" cx="0.5" cy="0.42" r="0.62"><stop offset="0" stop-color="#ff8a5c" stop-opacity="1"/><stop offset="1" stop-color="#5e140c" stop-opacity="1"/></radialGradient><clipPath id="antman-disc"><circle cx="100" cy="100" r="93"/></clipPath><filter id="antman-air" x="-10%" y="-10%" width="120%" height="120%" color-interpolation-filters="sRGB"><feColorMatrix in="SourceGraphic" type="matrix" values="0 0 0 0 0  0 0 0 0 0  0 0 0 0 0  .30 .59 .11 0 0" result="lum"/><feComposite in="lum" in2="SourceAlpha" operator="in" result="lumA"/><feGaussianBlur in="lumA" stdDeviation="2.2" result="bump"/><feDiffuseLighting in="bump" surfaceScale="2.4" diffuseConstant="1.15" lighting-color="#ffffff" result="dif"><feDistantLight azimuth="225" elevation="48"/></feDiffuseLighting><feSpecularLighting in="bump" surfaceScale="2.4" specularConstant="0.55" specularExponent="22" lighting-color="#ffffff" result="spc"><feDistantLight azimuth="225" elevation="58"/></feSpecularLighting><feComposite in="spc" in2="SourceAlpha" operator="in" result="spcA"/><feComposite in="SourceGraphic" in2="dif" operator="arithmetic" k1="0.85" k2="0.15000000000000002" k3="0" k4="0" result="lit"/><feComposite in="lit" in2="spcA" operator="arithmetic" k1="0" k2="1" k3="0.55" k4="0"/></filter></defs><circle cx="100" cy="100" r="96" fill="url(#antman-7)"/><g clip-path="url(#antman-disc)"><g filter="url(#antman-air)"><path d="M87.4,116 C87.4,132 85.4,146 79.4,166 L125.4,166 C119.4,146 117.4,132 117.4,116Z" fill="#3a3f48" stroke="#141018" stroke-width="2.2" stroke-linejoin="round" stroke-linecap="round" /><g clip-path="url(#antman-5)"><path d="M60,110 L140,110 L140,138 L102.4,144 L60,138Z" fill="#292633" /><path d="M107.4,140 L140,134 L140,180 L111.4,180Z" fill="#312e3c" /></g><path d="M97.4,142 C98.4,150 96.4,156 93.4,162" fill="none" stroke="#1d2024" stroke-width="1" stroke-linecap="round" stroke-linejoin="round" opacity=".6"/><path d="M-12,214 C-10,175.4 14.8,159.6 73,152.9 C89,162 117,162 133,151.9 C178.2,157.6 210,175.4 212,214Z" fill="#b82029" stroke="#141018" stroke-width="2.4" stroke-linejoin="round" stroke-linecap="round" /><g clip-path="url(#antman-3)"><path d="M66,160 C60,176 60,196 64,214 L50,214 C48,194 50,176 56,162Z" fill="#1f2128" stroke="#141018" stroke-width="1.2" stroke-linejoin="round" stroke-linecap="round" /><g transform="matrix(-1 0 0 1 200 0)"><path d="M66,160 C60,176 60,196 64,214 L50,214 C48,194 50,176 56,162Z" fill="#1f2128" stroke="#141018" stroke-width="1.2" stroke-linejoin="round" stroke-linecap="round" /></g><circle cx="108" cy="192" r="9" fill="#c9ced6" stroke="#141018" stroke-width="1.4"/><circle cx="108" cy="192" r="4" fill="#e33" /></g><g clip-path="url(#antman-4)"><path d="M117,152 C143,164 169,186 183,214 L240,214 L240,140Z" fill="#1a0f2a" opacity=".38"/><path d="M33,214 C43,200 73,194 101,202 L101,214Z" fill="#1a0f2a" opacity=".22"/><path d="M4,196 C14,180 30,170 63,164" fill="none" stroke="#fff" stroke-width="3" stroke-linecap="round" stroke-linejoin="round" opacity=".3"/></g><g transform="translate(0 -6) rotate(4 100 132) translate(100 104) scale(0.9 0.86) translate(-100 -104)"><path d="M69.9,44 C63.9,30 55.9,22 49.9,18" fill="none" stroke="#141018" stroke-width="2" stroke-linecap="round" stroke-linejoin="round" /><path d="M130.1,44 C134.1,30 140.1,22 146.1,18" fill="none" stroke="#141018" stroke-width="2" stroke-linecap="round" stroke-linejoin="round" /><path d="M102.4,35 C127.4,35 140.1,52 140.1,76 C140.1,80 139.1,84 139.1,87 C139.1,90 135.9,92 135.9,95 C135.9,99 139.8,101 139.8,105 C139.8,114 136.2,122 132.2,129 C126.2,141 121.2,150 109.2,152.5 C101.2,153.5 91.2,151 76.2,142 C71.2,137 65.9,130 63.9,120 C60.9,110 59.9,98 59.9,80 C59.9,52 76.4,35 102.4,35Z" fill="#8e96a1" stroke="#141018" stroke-width="2.4" stroke-linejoin="round" stroke-linecap="round" /><g clip-path="url(#antman-0)"><path d="M127.4,28 C122.4,48 127.4,70 126.6,86 C130,98 133.4,104 129.4,114 C125.4,124 119,138 113.2,158 L220,158 L220,28Z" fill="#636372" /><path d="M75.4,89 C82.4,83 96.4,83 101.4,89 L101.4,84 C94.4,79 80.4,79 75.4,84Z" fill="#636372" opacity=".55"/><path d="M108.4,89 C113.9,83 124.9,83 129.4,89 L130.9,83 L106.9,83Z" fill="#636372" opacity=".55"/><path d="M63.9,106 L74.9,114 L79.9,130 L69.9,125Z" fill="#636372" /><path d="M107.6,134.5 C110.4,136.5 115.4,136.5 119.3,134 L117.4,138.6 C113.4,139.6 109.4,139.6 106.4,138.6Z" fill="#636372" opacity=".8"/><path d="M107.5,94 C109.9,101 113.4,106 114,109.6 L121.4,115 L115.6,96Z" fill="#636372" opacity=".85"/><path d="M102.2,115 C108.4,117.5 114.4,117 118.4,114.6 L116.4,118.6 C112.4,120 106.4,119.6 102.2,115Z" fill="#5f5e6d" opacity=".8"/><path d="M83.4,54 C91.4,46 101.4,44 111.4,45 C101.4,48 93.4,52 87.4,60Z" fill="#a7adb6" opacity=".8"/><path d="M65.9,96 C67.9,103 70.9,108 75.9,111 C71.9,106 68.9,101 65.9,96Z" fill="#a7adb6" opacity=".8"/></g><g clip-path="url(#antman-2)"><path d="M0,0 L220,0 L220,74 C140,64 60,64 0,74Z" fill="#b82029" /><g clip-path="url(#antman-1)"><path d="M125.4,20 C121.4,48 127.4,70 127.4,86 C131.4,100 133.4,110 129.4,120 C123.4,134 117.2,146 115.2,170 L240,170 L240,0Z" fill="#1a0f2a" opacity="0.3"/></g></g><path d="M59.9,72 C85.4,64 125.4,64 140.1,72" fill="none" stroke="#141018" stroke-width="1.4" stroke-linecap="round" stroke-linejoin="round" /><path d="M83.4,112 L127.4,112 L123.4,138 C115.4,144 95.4,144 87.4,138Z" fill="#3a3f48" stroke="#141018" stroke-width="1.8" stroke-linejoin="round" stroke-linecap="round" /><path d="M91.4,120 L119.4,120 M93.4,127 L117.4,127 M95.4,134 L115.4,134" fill="none" stroke="#9aa3ad" stroke-width="1.1" stroke-linecap="round" stroke-linejoin="round" /><path d="M69.9,108 L75.9,114" fill="none" stroke="#474b51" stroke-width="1" stroke-linecap="round" stroke-linejoin="round" opacity=".7"/><path d="M100.8,96.8 C101.7,83.5 84.6,77.8 73.2,81.6 C70.4,93 80.8,104.4 100.8,96.8Z" fill="#e5404a" stroke="#141018" stroke-width="2.2" stroke-linejoin="round" stroke-linecap="round" /><path d="M108.1,96.8 C107.3,83.5 122.2,77.8 132.2,81.6 C134.7,93 125.5,104.4 108.1,96.8Z" fill="#e5404a" stroke="#141018" stroke-width="2.2" stroke-linejoin="round" stroke-linecap="round" /><g clip-path="url(#antman-6)"><path d="M75.4,70 C79.4,56 87.4,48 97.4,44" fill="none" stroke="#fff" stroke-width="3" stroke-linecap="round" stroke-linejoin="round" opacity="0.6" stroke-dasharray="14 4 5 60"/></g><circle cx="61.9" cy="100" r="7" fill="#c9ced6" stroke="#141018" stroke-width="1.6"/></g></g></g><circle cx="100" cy="100" r="94" fill="none" stroke="#d8343b" stroke-width="5.5"/><circle cx="100" cy="100" r="97.2" fill="none" stroke="#141018" stroke-width="2.2"/><circle cx="100" cy="100" r="91" fill="none" stroke="#141018" stroke-width="1.4" opacity=".6"/></svg>