<svg xmlns="http://www.w3.org/2000/svg" viewBox="0 0 200 200" role="img" aria-label="Iron Man"><defs><clipPath id="ironman-0"><path d="M102.4,35 C127.4,35 140.1,52 140.1,76 C140.1,80 139.1,84 139.1,87 C139.1,90 135.9,92 135.9,95 C135.9,99 139.8,101 139.8,105 C139.8,114 136.2,122 132.2,129 C126.2,141 121.2,150 109.2,152.5 C101.2,153.5 91.2,151 76.2,142 C71.2,137 65.9,130 63.9,120 C60.9,110 59.9,98 59.9,80 C59.9,52 76.4,35 102.4,35Z"/></clipPath><clipPath id="ironman-1"><path d="M79.4,64 C95.4,58 119.4,58 129.4,64 C133.4,84 133.4,104 129.4,118 C125.4,134 117.2,148 107.2,151 C93.2,149 79.4,138 75.4,120 C72.4,104 73.4,82 79.4,64Z"/></clipPath><clipPath id="ironman-2"><path d="M-12,214 C-10,175.4 14.8,159.6 73,152.9 C89,162 117,162 133,151.9 C178.2,157.6 210,175.4 212,214Z"/></clipPath><clipPath id="ironman-3"><path d="M-12,214 C-10,175.4 14.8,159.6 73,152.9 C89,162 117,162 133,151.9 C178.2,157.6 210,175.4 212,214Z"/></clipPath><filter id="ironman-4" x="-60%" y="-60%" width="220%" height="220%"><feGaussianBlur stdDeviation="4"/></filter><clipPath id="ironman-5"><path d="M87.4,116 C87.4,132 85.4,146 79.4,166 L125.4,166 C119.4,146 117.4,132 117.4,116Z"/></clipPath><filter id="ironman-6" x="-60%" y="-60%" width="220%" height="220%"><feGaussianBlur stdDeviation="5"/></filter><clipPath id="ironman-7"><path d="M102.4,35 C127.4,35 140.1,52 140.1,76 C140.1,80 139.1,84 139.1,87 C139.1,90 135.9,92 135.9,95 C135.9,99 139.8,101 139.8,105 C139.8,114 136.2,122 132.2,129 C126.2,141 121.2,150 109.2,152.5 C101.2,153.5 91.2,151 76.2,142 C71.2,137 65.9,130 63.9,120 C60.9,110 59.9,98 59.9,80 C59.9,52 76.4,35 102.4,35Z"/></clipPath><filter id="ironman-8" x="-60%" y="-60%" width="220%" height="220%"><feGaussianBlur stdDeviation="7"/></filter><radialGradient id="ironman-9" cx="0.5" cy="0.42" r="0.62"><stop offset="0" stop-color="#ffcf5a" stop-opacity="1"/><stop offset="1" stop-color="#8e1818" stop-opacity="1"/></radialGradient><clipPath id="ironman-disc"><circle cx="100" cy="100" r="93"/></clipPath><filter id="ironman-air" x="-10%" y="-10%" width="120%" height="120%" color-interpolation-filters="sRGB"><feColorMatrix in="SourceGraphic" type="matrix" values="0 0 0 0 0  0 0 0 0 0  0 0 0 0 0  .30 .59 .11 0 0" result="lum"/><feComposite in="lum" in2="SourceAlpha" operator="in" result="lumA"/><feGaussianBlur in="lumA" stdDeviation="2.2" result="bump"/><feDiffuseLighting in="bump" surfaceScale="2.4" diffuseConstant="1.15" lighting-color="#ffffff" result="dif"><feDistantLight azimuth="225" elevation="48"/></feDiffuseLighting><feSpecularLighting in="bump" surfaceScale="2.4" specularConstant="0.55" specularExponent="22" lighting-color="#ffffff" result="spc"><feDistantLight azimuth="225" elevation="58"/></feSpecularLighting><feComposite in="spc" in2="SourceAlpha" operator="in" result="spcA"/><feComposite in="SourceGraphic" in2="dif" operator="arithmetic" k1="0.85" k2="0.15000000000000002" k3="0" k4="0" result="lit"/><feComposite in="lit" in2="spcA" operator="arithmetic" k1="0" k2="1" k3="0.55" k4="0"/></filter></defs><circle cx="100" cy="100" r="96" fill="url(#ironman-9)"/><g clip-path="url(#ironman-disc)"><g opacity="0.08"><path d="M0,60 L200,20 M0,110 L200,70 M0,160 L200,120" fill="none" stroke="#fff" stroke-width="10" stroke-linecap="round" stroke-linejoin="round" /></g><g filter="url(#ironman-air)"><path d="M87.4,116 C87.4,132 85.4,146 79.4,166 L125.4,166 C119.4,146 117.4,132 117.4,116Z" fill="#5b6270" stroke="#141018" stroke-width="2.2" stroke-linejoin="round" stroke-linecap="round" /><g clip-path="url(#ironman-5)"><path d="M60,110 L140,110 L140,138 L102.4,144 L60,138Z" fill="#393646" /><path d="M107.4,140 L140,134 L140,180 L111.4,180Z" fill="#444354" /></g><path d="M97.4,142 C98.4,150 96.4,156 93.4,162" fill="none" stroke="#2e3138" stroke-width="1" stroke-linecap="round" stroke-linejoin="round" opacity=".6"/><path d="M-12,214 C-10,175.4 14.8,159.6 73,152.9 C89,162 117,162 133,151.9 C178.2,157.6 210,175.4 212,214Z" fill="#c3202a" stroke="#141018" stroke-width="2.4" stroke-linejoin="round" stroke-linecap="round" /><g clip-path="url(#ironman-2)"><path d="M-12,214 C-10,186 14,168 46,160 C56,172 60,186 58,200 C40,200 20,206 12,214Z" fill="#efb02e" /><g transform="matrix(-1 0 0 1 200 0)"><path d="M-12,214 C-10,186 14,168 46,160 C56,172 60,186 58,200 C40,200 20,206 12,214Z" fill="#efb02e" /></g><path d="M70,170 L70,214 M140,170 L140,214" fill="none" stroke="#751319" stroke-width="1.6" stroke-linecap="round" stroke-linejoin="round" /></g><g clip-path="url(#ironman-3)"><path d="M117,152 C143,164 169,186 183,214 L240,214 L240,140Z" fill="#1a0f2a" opacity=".38"/><path d="M33,214 C43,200 73,194 101,202 L101,214Z" fill="#1a0f2a" opacity=".22"/><path d="M4,196 C14,180 30,170 63,164" fill="none" stroke="#fff" stroke-width="3" stroke-linecap="round" stroke-linejoin="round" opacity=".3"/></g><circle cx="110" cy="196" r="13" fill="#4b5563" stroke="#141018" stroke-width="2"/><circle cx="110" cy="196" r="16" fill="#9ff4ff" filter="url(#ironman-4)" opacity="0.9"/><circle cx="110" cy="196" r="8" fill="#e8fdff" stroke="#141018" stroke-width="1.4"/><circle cx="110" cy="196" r="4" fill="#fff" /><g transform="translate(0 -6) rotate(-4 100 132) translate(100 104) scale(0.9 0.86) translate(-100 -104)"><path d="M102.4,35 C127.4,35 140.1,52 140.1,76 C140.1,80 139.1,84 139.1,87 C139.1,90 135.9,92 135.9,95 C135.9,99 139.8,101 139.8,105 C139.8,114 136.2,122 132.2,129 C126.2,141 121.2,150 109.2,152.5 C101.2,153.5 91.2,151 76.2,142 C71.2,137 65.9,130 63.9,120 C60.9,110 59.9,98 59.9,80 C59.9,52 76.4,35 102.4,35Z" fill="#c3202a" stroke="#141018" stroke-width="2.4" stroke-linejoin="round" stroke-linecap="round" /><g clip-path="url(#ironman-0)"><path d="M127.4,28 C122.4,48 127.4,70 126.6,86 C130,98 133.4,104 129.4,114 C125.4,124 119,138 113.2,158 L220,158 L220,28Z" fill="#831b2a" /><path d="M75.4,89 C82.4,83 96.4,83 101.4,89 L101.4,84 C94.4,79 80.4,79 75.4,84Z" fill="#831b2a" opacity=".55"/><path d="M108.4,89 C113.9,83 124.9,83 129.4,89 L130.9,83 L106.9,83Z" fill="#831b2a" opacity=".55"/><path d="M63.9,106 L74.9,114 L79.9,130 L69.9,125Z" fill="#831b2a" /><path d="M107.6,134.5 C110.4,136.5 115.4,136.5 119.3,134 L117.4,138.6 C113.4,139.6 109.4,139.6 106.4,138.6Z" fill="#831b2a" opacity=".8"/><path d="M107.5,94 C109.9,101 113.4,106 114,109.6 L121.4,115 L115.6,96Z" fill="#831b2a" opacity=".85"/><path d="M102.2,115 C108.4,117.5 114.4,117 118.4,114.6 L116.4,118.6 C112.4,120 106.4,119.6 102.2,115Z" fill="#7e1a28" opacity=".8"/><path d="M83.4,54 C91.4,46 101.4,44 111.4,45 C101.4,48 93.4,52 87.4,60Z" fill="#d05159" opacity=".8"/><path d="M65.9,96 C67.9,103 70.9,108 75.9,111 C71.9,106 68.9,101 65.9,96Z" fill="#d05159" opacity=".8"/></g><path d="M79.4,64 C95.4,58 119.4,58 129.4,64 C133.4,84 133.4,104 129.4,118 C125.4,134 117.2,148 107.2,151 C93.2,149 79.4,138 75.4,120 C72.4,104 73.4,82 79.4,64Z" fill="#efb02e" stroke="#141018" stroke-width="2" stroke-linejoin="round" stroke-linecap="round" /><g clip-path="url(#ironman-1)"><path d="M125.4,20 C121.4,48 127.4,70 127.4,86 C131.4,100 133.4,110 129.4,120 C123.4,134 117.2,146 115.2,170 L240,170 L240,0Z" fill="#1a0f2a" opacity="0.3"/></g><path d="M75.4,116 L89.4,122 L93.4,144 M127.4,116 L117.4,122 L113.4,144" fill="none" stroke="#836119" stroke-width="1.3" stroke-linecap="round" stroke-linejoin="round" /><path d="M105.4,60 L105.4,72" fill="none" stroke="#8f6a1c" stroke-width="1.3" stroke-linecap="round" stroke-linejoin="round" /><path d="M93.4,128 L119.4,128" fill="none" stroke="#5a3a0a" stroke-width="2" stroke-linecap="round" stroke-linejoin="round" /><path d="M69.9,108 L75.9,114" fill="none" stroke="#621015" stroke-width="1" stroke-linecap="round" stroke-linejoin="round" opacity=".7"/><circle cx="105.4" cy="92" r="16" fill="#9ff4ff" filter="url(#ironman-6)" opacity="0.5"/><path d="M99.4,92 L76.4,88 C78.4,95 86.4,97 98.4,96Z" fill="#effdff" stroke="#141018" stroke-width="1.6" stroke-linejoin="round" stroke-linecap="round" /><path d="M109.3,92 L129.4,88 C127.6,95 120.6,97 110.2,96Z" fill="#effdff" stroke="#141018" stroke-width="1.6" stroke-linejoin="round" stroke-linecap="round" /><g clip-path="url(#ironman-7)"><path d="M75.4,70 C79.4,56 87.4,48 97.4,44" fill="none" stroke="#fff" stroke-width="3" stroke-linecap="round" stroke-linejoin="round" opacity="0.6" stroke-dasharray="14 4 5 60"/></g></g><g transform="translate(40 178) rotate(-15)"><circle cx="0" cy="0" r="30" fill="#9ff4ff" filter="url(#ironman-8)" opacity="0.85"/><path d="M-18,30 L-16,-6 C-16,-16 16,-16 16,-6 L18,30Z" fill="#c3202a" stroke="#141018" stroke-width="2" stroke-linejoin="round" stroke-linecap="round" /><circle cx="0" cy="-4" r="9" fill="#e8fdff" stroke="#141018" stroke-width="1.6"/><circle cx="0" cy="-4" r="4" fill="#fff" /></g></g></g><circle cx="100" cy="100" r="94" fill="none" stroke="#f2b632" stroke-width="5.5"/><circle cx="100" cy="100" r="97.2" fill="none" stroke="#141018" stroke-width="2.2"/><circle cx="100" cy="100" r="91" fill="none" stroke="#141018" stroke-width="1.4" opacity=".6"/></svg>