<svg xmlns="http://www.w3.org/2000/svg" viewBox="0 0 200 200" role="img" aria-label="Moon Knight"><defs><clipPath id="moonknight-0"><path d="M102,35 C127,35 140.3,52 140.3,76 C140.3,80 139.3,84 139.3,87 C139.3,90 136.3,92 136.3,95 C136.3,99 140,101 140,105 C140,114 136.5,122 132.5,129 C126.5,141 120,150 108,152.5 C100,153.5 90,151 76,142 C71,137 65.8,130 63.8,120 C60.8,110 59.8,98 59.8,80 C59.8,52 76,35 102,35Z"/></clipPath><clipPath id="moonknight-1"><path d="M102,35 C127,35 140.3,52 140.3,76 C140.3,80 139.3,84 139.3,87 C139.3,90 136.3,92 136.3,95 C136.3,99 140,101 140,105 C140,114 136.5,122 132.5,129 C126.5,141 120,150 108,152.5 C100,153.5 90,151 76,142 C71,137 65.8,130 63.8,120 C60.8,110 59.8,98 59.8,80 C59.8,52 76,35 102,35Z"/></clipPath><clipPath id="moonknight-2"><path d="M-12,214 C-10,176 15,160 72.5,153 C88.5,162 116.5,162 132.5,152 C178.5,158 210,176 212,214Z"/></clipPath><clipPath id="moonknight-3"><path d="M-12,214 C-10,176 15,160 72.5,153 C88.5,162 116.5,162 132.5,152 C178.5,158 210,176 212,214Z"/></clipPath><clipPath id="moonknight-4"><path d="M87,116 C87,132 85,146 79,166 L125,166 C119,146 117,132 117,116Z"/></clipPath><clipPath id="moonknight-5"><path d="M38,190 C30,120 50,60 104,40 C150,60 170,120 166,190Z"/></clipPath><radialGradient id="moonknight-6" cx="0.5" cy="0.42" r="0.62"><stop offset="0" stop-color="#3d5aa8" stop-opacity="1"/><stop offset="1" stop-color="#050b20" stop-opacity="1"/></radialGradient><clipPath id="moonknight-disc"><circle cx="100" cy="100" r="93"/></clipPath><filter id="moonknight-air" x="-10%" y="-10%" width="120%" height="120%" color-interpolation-filters="sRGB"><feColorMatrix in="SourceGraphic" type="matrix" values="0 0 0 0 0  0 0 0 0 0  0 0 0 0 0  .30 .59 .11 0 0" result="lum"/><feComposite in="lum" in2="SourceAlpha" operator="in" result="lumA"/><feGaussianBlur in="lumA" stdDeviation="2.2" result="bump"/><feDiffuseLighting in="bump" surfaceScale="2.4" diffuseConstant="1.15" lighting-color="#ffffff" result="dif"><feDistantLight azimuth="225" elevation="48"/></feDiffuseLighting><feSpecularLighting in="bump" surfaceScale="2.4" specularConstant="0.55" specularExponent="22" lighting-color="#ffffff" result="spc"><feDistantLight azimuth="225" elevation="58"/></feSpecularLighting><feComposite in="spc" in2="SourceAlpha" operator="in" result="spcA"/><feComposite in="SourceGraphic" in2="dif" operator="arithmetic" k1="0.85" k2="0.15000000000000002" k3="0" k4="0" result="lit"/><feComposite in="lit" in2="spcA" operator="arithmetic" k1="0" k2="1" k3="0.55" k4="0"/></filter></defs><circle cx="100" cy="100" r="96" fill="url(#moonknight-6)"/><g clip-path="url(#moonknight-disc)"><circle cx="156" cy="48" r="24" fill="#f4f1e0" opacity=".85"/><circle cx="98.1" cy="112.2" r="0.46" fill="#fff" opacity="0.45"/><circle cx="88.6" cy="101.3" r="0.41" fill="#fff" opacity="0.83"/><circle cx="117.9" cy="82.2" r="0.70" fill="#fff" opacity="0.77"/><circle cx="131.5" cy="15.3" r="1.00" fill="#fff" opacity="0.44"/><circle cx="134.4" cy="31.6" r="1.08" fill="#fff" opacity="0.59"/><circle cx="35.2" cy="10.0" r="1.61" fill="#fff" opacity="0.88"/><circle cx="24.2" cy="88.8" r="1.64" fill="#fff" opacity="0.41"/><circle cx="83.8" cy="110.1" r="1.24" fill="#fff" opacity="0.47"/><circle cx="34.1" cy="197.1" r="0.92" fill="#fff" opacity="0.44"/><circle cx="109.4" cy="66.1" r="0.52" fill="#fff" opacity="0.76"/><circle cx="70.3" cy="70.0" r="0.41" fill="#fff" opacity="0.86"/><circle cx="47.7" cy="176.8" r="0.96" fill="#fff" opacity="0.44"/><circle cx="120.6" cy="80.3" r="1.36" fill="#fff" opacity="0.69"/><circle cx="27.2" cy="44.8" r="0.93" fill="#fff" opacity="0.35"/><circle cx="9.5" cy="82.5" r="1.25" fill="#fff" opacity="0.69"/><circle cx="191.0" cy="65.0" r="0.91" fill="#fff" opacity="0.60"/><circle cx="87.8" cy="167.7" r="0.93" fill="#fff" opacity="0.56"/><circle cx="52.8" cy="47.3" r="1.34" fill="#fff" opacity="0.38"/><circle cx="54.1" cy="153.3" r="1.50" fill="#fff" opacity="0.88"/><circle cx="185.4" cy="172.1" r="1.35" fill="#fff" opacity="0.68"/><circle cx="110.9" cy="4.8" r="0.75" fill="#fff" opacity="0.51"/><circle cx="43.0" cy="78.7" r="1.26" fill="#fff" opacity="0.74"/><circle cx="53.3" cy="191.3" r="0.31" fill="#fff" opacity="0.52"/><circle cx="117.2" cy="88.2" r="0.43" fill="#fff" opacity="0.89"/><circle cx="91.3" cy="174.5" r="1.12" fill="#fff" opacity="0.58"/><g filter="url(#moonknight-air)"><path d="M38,190 C30,120 50,60 104,40 C150,60 170,120 166,190Z" fill="#d9dce3" stroke="#141018" stroke-width="2" stroke-linejoin="round" stroke-linecap="round" /><g clip-path="url(#moonknight-5)"><path d="M120,0 L220,0 L220,214 L130,214Z" fill="#a9aeb9" /></g><path d="M87,116 C87,132 85,146 79,166 L125,166 C119,146 117,132 117,116Z" fill="#d9dce3" stroke="#141018" stroke-width="2.2" stroke-linejoin="round" stroke-linecap="round" /><g clip-path="url(#moonknight-4)"><path d="M60,110 L140,110 L140,138 L102,144 L60,138Z" fill="#75717c" /><path d="M107,140 L140,134 L140,180 L111,180Z" fill="#918d9a" /></g><path d="M97,142 C98,150 96,156 93,162" fill="none" stroke="#6d6e72" stroke-width="1" stroke-linecap="round" stroke-linejoin="round" opacity=".6"/><path d="M-12,214 C-10,176 15,160 72.5,153 C88.5,162 116.5,162 132.5,152 C178.5,158 210,176 212,214Z" fill="#e6e8ee" stroke="#141018" stroke-width="2.4" stroke-linejoin="round" stroke-linecap="round" /><g clip-path="url(#moonknight-2)"><path d="M92,178 C82,188 86,204 100,208 C90,200 90,186 98,180Z" fill="#c9ced6" stroke="#141018" stroke-width="1.2" stroke-linejoin="round" stroke-linecap="round" /></g><g clip-path="url(#moonknight-3)"><path d="M116.5,152 C142.5,164 168.5,186 182.5,214 L240,214 L240,140Z" fill="#1a0f2a" opacity=".38"/><path d="M32.5,214 C42.5,200 72.5,194 100.5,202 L100.5,214Z" fill="#1a0f2a" opacity=".22"/><path d="M4,196 C14,180 30,170 62.5,164" fill="none" stroke="#fff" stroke-width="3" stroke-linecap="round" stroke-linejoin="round" opacity=".3"/></g><g transform="translate(0 -6) rotate(-4 100 132) translate(100 104) scale(0.9 0.86) translate(-100 -104)"><path d="M102,35 C127,35 140.3,52 140.3,76 C140.3,80 139.3,84 139.3,87 C139.3,90 136.3,92 136.3,95 C136.3,99 140,101 140,105 C140,114 136.5,122 132.5,129 C126.5,141 120,150 108,152.5 C100,153.5 90,151 76,142 C71,137 65.8,130 63.8,120 C60.8,110 59.8,98 59.8,80 C59.8,52 76,35 102,35Z" fill="#eceef2" stroke="#141018" stroke-width="2.4" stroke-linejoin="round" stroke-linecap="round" /><g clip-path="url(#moonknight-0)"><path d="M126.5,28 C121.5,48 126.5,70 126,86 C129.5,98 133,104 129,114 C125,124 118.5,138 112,158 L220,158 L220,28Z" fill="#9d98a3" /><path d="M74.5,89 C81.5,83 95.5,83 100.5,89 L100.5,84 C93.5,79 79.5,79 74.5,84Z" fill="#9d98a3" opacity=".55"/><path d="M107.5,89 C113.3,83 124.3,83 129,89 L130.3,83 L106.3,83Z" fill="#9d98a3" opacity=".55"/><path d="M63.8,106 L74.8,114 L79.8,130 L69.8,125Z" fill="#9d98a3" /><path d="M106.5,134.5 C109.5,136.5 114.5,136.5 118.3,134 L116.5,138.6 C112.5,139.6 108.5,139.6 105.5,138.6Z" fill="#9d98a3" opacity=".8"/><path d="M106.5,94 C108.8,101 112,106 112.6,109.6 L120,115 L114.5,96Z" fill="#9d98a3" opacity=".85"/><path d="M101,115 C107,117.5 113,117 117,114.6 L115,118.6 C111,120 105,119.6 101,115Z" fill="#95919b" opacity=".8"/><path d="M82.5,54 C90.5,46 100.5,44 110.5,45 C100.5,48 92.5,52 86.5,60Z" fill="#f0f2f5" opacity=".8"/><path d="M65.8,96 C67.8,103 70.8,108 75.8,111 C71.8,106 68.8,101 65.8,96Z" fill="#f0f2f5" opacity=".8"/></g><g clip-path="url(#moonknight-1)"><path d="M50,66 L150,100 M50,108 L150,84 M56,132 L146,118" fill="none" stroke="#b4b8c2" stroke-width="2.4" stroke-linecap="round" stroke-linejoin="round" opacity=".7"/></g><path d="M69.8,108 L75.8,114" fill="none" stroke="#767779" stroke-width="1" stroke-linecap="round" stroke-linejoin="round" opacity=".7"/><path d="M98.5,92 L75.5,88 C77.5,95 85.5,97 97.5,96Z" fill="#111117" stroke="#141018" stroke-width="1.4" stroke-linejoin="round" stroke-linecap="round" /><path d="M108.4,92 L129,88 C127.2,95 120,97 109.3,96Z" fill="#111117" stroke="#141018" stroke-width="1.4" stroke-linejoin="round" stroke-linecap="round" /><path d="M100.5,54 C92.5,60 94.5,72 104.5,74 C98.5,70 98.5,60 104.5,56Z" fill="#c9ced6" stroke="#141018" stroke-width="1" stroke-linejoin="round" stroke-linecap="round" /></g><path d="M150,214 C140,190 146,170 166,160 C156,172 154,190 162,214Z" fill="#e6e8ee" stroke="#141018" stroke-width="1.6" stroke-linejoin="round" stroke-linecap="round" /><path d="M170,200 C164,186 170,174 182,170 C176,180 176,190 182,200Z" fill="#c9ced6" stroke="#141018" stroke-width="1.2" stroke-linejoin="round" stroke-linecap="round" /></g></g><circle cx="100" cy="100" r="94" fill="none" stroke="#e8ecf2" stroke-width="5.5"/><circle cx="100" cy="100" r="97.2" fill="none" stroke="#141018" stroke-width="2.2"/><circle cx="100" cy="100" r="91" fill="none" stroke="#141018" stroke-width="1.4" opacity=".6"/></svg>