<svg xmlns="http://www.w3.org/2000/svg" viewBox="0 0 200 200" role="img" aria-label="Rocket"><defs><clipPath id="rocket-0"><path d="M-12,214 C-10,176 15.2,160 72,153 C88,162 116,162 132,152 C178.8,158 210,176 212,214Z"/></clipPath><clipPath id="rocket-1"><path d="M-12,214 C-10,176 15.2,160 72,153 C88,162 116,162 132,152 C178.8,158 210,176 212,214Z"/></clipPath><clipPath id="rocket-2"><path d="M104,46 C132,46 150,64 154,88 L166,100 L152,106 C150,128 130,146 104,146 C80,146 60,130 56,106 L42,100 L54,88 C58,64 76,46 104,46Z"/></clipPath><radialGradient id="rocket-3" cx="0.5" cy="0.42" r="0.62"><stop offset="0" stop-color="#ffb36b" stop-opacity="1"/><stop offset="1" stop-color="#3a1a06" stop-opacity="1"/></radialGradient><clipPath id="rocket-disc"><circle cx="100" cy="100" r="93"/></clipPath><filter id="rocket-air" x="-10%" y="-10%" width="120%" height="120%" color-interpolation-filters="sRGB"><feColorMatrix in="SourceGraphic" type="matrix" values="0 0 0 0 0  0 0 0 0 0  0 0 0 0 0  .30 .59 .11 0 0" result="lum"/><feComposite in="lum" in2="SourceAlpha" operator="in" result="lumA"/><feGaussianBlur in="lumA" stdDeviation="2.2" result="bump"/><feDiffuseLighting in="bump" surfaceScale="2.4" diffuseConstant="1.15" lighting-color="#ffffff" result="dif"><feDistantLight azimuth="225" elevation="48"/></feDiffuseLighting><feSpecularLighting in="bump" surfaceScale="2.4" specularConstant="0.55" specularExponent="22" lighting-color="#ffffff" result="spc"><feDistantLight azimuth="225" elevation="58"/></feSpecularLighting><feComposite in="spc" in2="SourceAlpha" operator="in" result="spcA"/><feComposite in="SourceGraphic" in2="dif" operator="arithmetic" k1="0.85" k2="0.15000000000000002" k3="0" k4="0" result="lit"/><feComposite in="lit" in2="spcA" operator="arithmetic" k1="0" k2="1" k3="0.55" k4="0"/></filter></defs><circle cx="100" cy="100" r="96" fill="url(#rocket-3)"/><g clip-path="url(#rocket-disc)"><g filter="url(#rocket-air)"><path d="M-12,214 C-10,176 15.2,160 72,153 C88,162 116,162 132,152 C178.8,158 210,176 212,214Z" fill="#e8762c" stroke="#141018" stroke-width="2.4" stroke-linejoin="round" stroke-linecap="round" /><g clip-path="url(#rocket-0)"><path d="M84,158 L104,176 L124,158 L124,214 L84,214Z" fill="#3a3a3e" /></g><g clip-path="url(#rocket-1)"><path d="M116,152 C142,164 168,186 182,214 L240,214 L240,140Z" fill="#1a0f2a" opacity=".38"/><path d="M32,214 C42,200 72,194 100,202 L100,214Z" fill="#1a0f2a" opacity=".22"/><path d="M4,196 C14,180 30,170 62,164" fill="none" stroke="#fff" stroke-width="3" stroke-linecap="round" stroke-linejoin="round" opacity=".3"/></g><path d="M84,124 L84,166 L126,166 L126,124Z" fill="#8d7a6a" stroke="#141018" stroke-width="2" stroke-linejoin="round" stroke-linecap="round" /><path d="M66,72 L54,30 L92,58Z" fill="#8d7a6a" stroke="#141018" stroke-width="2" stroke-linejoin="round" stroke-linecap="round" /><path d="M68,64 L60,40 L84,58Z" fill="#d9a0a0" /><path d="M142,70 L156,30 L120,56Z" fill="#8d7a6a" stroke="#141018" stroke-width="2" stroke-linejoin="round" stroke-linecap="round" /><path d="M140,62 L150,40 L128,56Z" fill="#d9a0a0" /><path d="M104,46 C132,46 150,64 154,88 L166,100 L152,106 C150,128 130,146 104,146 C80,146 60,130 56,106 L42,100 L54,88 C58,64 76,46 104,46Z" fill="#8d7a6a" stroke="#141018" stroke-width="2.4" stroke-linejoin="round" stroke-linecap="round" /><g clip-path="url(#rocket-2)"><path d="M130,40 C150,60 160,100 150,150 L200,150 L200,40Z" fill="#5f4d4d" /></g><path d="M58,92 C70,78 92,84 104,94 C116,84 138,78 150,92 C150,108 136,114 122,108 L104,102 L86,108 C72,114 58,108 58,92Z" fill="#3b302b" stroke="#141018" stroke-width="1.6" stroke-linejoin="round" stroke-linecap="round" /><path d="M64,82 C74,72 90,76 96,86 C84,84 72,84 64,90Z" fill="#ece4da" /><g transform="matrix(-1 0 0 1 208 0)"><path d="M64,82 C74,72 90,76 96,86 C84,84 72,84 64,90Z" fill="#ece4da" /></g><path d="M80,114 C88,104 120,104 128,114 C134,130 120,144 104,144 C88,144 74,130 80,114Z" fill="#ece4da" stroke="#141018" stroke-width="1.6" stroke-linejoin="round" stroke-linecap="round" /><ellipse cx="104" cy="112" rx="7" ry="5" fill="#1a1a1a" stroke="#141018" stroke-width="1"/><circle cx="102" cy="110" r="1.6" fill="#fff" opacity=".7"/><circle cx="84" cy="97" r="5" fill="#3a2412" stroke="#141018" stroke-width="1"/><circle cx="85.4" cy="95.6" r="1.6" fill="#fff" /><circle cx="124" cy="97" r="4.6" fill="#3a2412" stroke="#141018" stroke-width="1"/><circle cx="125.2" cy="95.6" r="1.5" fill="#fff" /><path d="M70,86 C76,82 86,84 92,90 M136,86 C130,82 122,84 116,90" fill="none" stroke="#1a1a1a" stroke-width="2.4" stroke-linecap="round" stroke-linejoin="round" /><path d="M90,126 C98,132 112,132 122,124 C118,134 110,138 104,138 C96,138 92,134 90,126Z" fill="#4a0a14" stroke="#141018" stroke-width="1.6" stroke-linejoin="round" stroke-linecap="round" /><path d="M95,127 L97,132 L99,128Z M111,128 L113,132 L115,127Z" fill="#fff" stroke="#141018" stroke-width="0.8" stroke-linejoin="round" stroke-linecap="round" /><path d="M60,104 L48,110 M60,110 L50,118 M148,104 L160,110 M148,110 L158,118" fill="none" stroke="#5a4a40" stroke-width="1.4" stroke-linecap="round" stroke-linejoin="round" /><g transform="translate(36 186) rotate(-20)"><path d="M-30,-8 L30,-8 L30,8 L-30,8Z" fill="#5a5e66" stroke="#141018" stroke-width="1.8" stroke-linejoin="round" stroke-linecap="round" /><path d="M-10,8 L0,8 L0,26 L-10,26Z" fill="#3a3a3e" stroke="#141018" stroke-width="1.4" stroke-linejoin="round" stroke-linecap="round" /><circle cx="30" cy="0" r="6" fill="#ff7a1a" stroke="#141018" stroke-width="1.4"/></g></g></g><circle cx="100" cy="100" r="94" fill="none" stroke="#e8762c" stroke-width="5.5"/><circle cx="100" cy="100" r="97.2" fill="none" stroke="#141018" stroke-width="2.2"/><circle cx="100" cy="100" r="91" fill="none" stroke="#141018" stroke-width="1.4" opacity=".6"/></svg>