<svg xmlns="http://www.w3.org/2000/svg" viewBox="0 0 200 200" role="img" aria-label="Silver Surfer"><defs><clipPath id="surfer-0"><path d="M102.4,35 C127.4,35 140.1,52 140.1,76 C140.1,80 139.1,84 139.1,87 C139.1,90 135.9,92 135.9,95 C135.9,99 139.8,101 139.8,105 C139.8,114 137.1,122 133.1,129 C127.1,141 121.2,150 109.2,152.5 C101.2,153.5 91.2,151 75.7,142 C70.7,137 65,130 63,120 C60.9,110 59.9,98 59.9,80 C59.9,52 76.4,35 102.4,35Z"/></clipPath><clipPath id="surfer-1"><path d="M76.9,92.4 C81,88.9 93,89 99.9,93.8 C93,95.9 84.3,95.5 76.9,92.4Z"/></clipPath><clipPath id="surfer-2"><path d="M129,92.4 C125.3,88.9 114.9,89 108.8,93.8 C114.9,95.9 122.5,95.5 129,92.4Z"/></clipPath><clipPath id="surfer-3"><path d="M-12,214 C-10,174.8 14.8,159.2 73,152.8 C89,162 117,162 133,151.8 C178.2,157.2 210,174.8 212,214Z"/></clipPath><clipPath id="surfer-4"><path d="M-12,214 C-10,174.8 14.8,159.2 73,152.8 C89,162 117,162 133,151.8 C178.2,157.2 210,174.8 212,214Z"/></clipPath><clipPath id="surfer-5"><path d="M87.4,116 C87.4,132 85.4,146 79.4,166 L125.4,166 C119.4,146 117.4,132 117.4,116Z"/></clipPath><clipPath id="surfer-6"><path d="M102.4,35 C127.4,35 140.1,52 140.1,76 C140.1,80 139.1,84 139.1,87 C139.1,90 135.9,92 135.9,95 C135.9,99 139.8,101 139.8,105 C139.8,114 137.1,122 133.1,129 C127.1,141 121.2,150 109.2,152.5 C101.2,153.5 91.2,151 75.7,142 C70.7,137 65,130 63,120 C60.9,110 59.9,98 59.9,80 C59.9,52 76.4,35 102.4,35Z"/></clipPath><filter id="surfer-7" x="-60%" y="-60%" width="220%" height="220%"><feGaussianBlur stdDeviation="5"/></filter><radialGradient id="surfer-8" cx="0.5" cy="0.42" r="0.62"><stop offset="0" stop-color="#7fa8ff" stop-opacity="1"/><stop offset="1" stop-color="#0a0a30" stop-opacity="1"/></radialGradient><clipPath id="surfer-disc"><circle cx="100" cy="100" r="93"/></clipPath><filter id="surfer-air" x="-10%" y="-10%" width="120%" height="120%" color-interpolation-filters="sRGB"><feColorMatrix in="SourceGraphic" type="matrix" values="0 0 0 0 0  0 0 0 0 0  0 0 0 0 0  .30 .59 .11 0 0" result="lum"/><feComposite in="lum" in2="SourceAlpha" operator="in" result="lumA"/><feGaussianBlur in="lumA" stdDeviation="2.2" result="bump"/><feDiffuseLighting in="bump" surfaceScale="2.4" diffuseConstant="1.15" lighting-color="#ffffff" result="dif"><feDistantLight azimuth="225" elevation="48"/></feDiffuseLighting><feSpecularLighting in="bump" surfaceScale="2.4" specularConstant="0.55" specularExponent="22" lighting-color="#ffffff" result="spc"><feDistantLight azimuth="225" elevation="58"/></feSpecularLighting><feComposite in="spc" in2="SourceAlpha" operator="in" result="spcA"/><feComposite in="SourceGraphic" in2="dif" operator="arithmetic" k1="0.85" k2="0.15000000000000002" k3="0" k4="0" result="lit"/><feComposite in="lit" in2="spcA" operator="arithmetic" k1="0" k2="1" k3="0.55" k4="0"/></filter></defs><circle cx="100" cy="100" r="96" fill="url(#surfer-8)"/><g clip-path="url(#surfer-disc)"><circle cx="73.5" cy="190.2" r="1.16" fill="#fff" opacity="0.88"/><circle cx="52.1" cy="179.7" r="1.31" fill="#fff" opacity="0.81"/><circle cx="52.2" cy="3.0" r="0.47" fill="#fff" opacity="0.37"/><circle cx="56.3" cy="102.0" r="1.55" fill="#fff" opacity="0.86"/><circle cx="84.3" cy="0.1" r="0.85" fill="#fff" opacity="0.47"/><circle cx="170.8" cy="13.5" r="0.98" fill="#fff" opacity="0.82"/><circle cx="76.1" cy="95.2" r="0.96" fill="#fff" opacity="0.75"/><circle cx="131.3" cy="13.2" r="1.12" fill="#fff" opacity="0.57"/><circle cx="15.3" cy="61.1" r="0.66" fill="#fff" opacity="0.85"/><circle cx="66.3" cy="103.3" r="0.31" fill="#fff" opacity="0.35"/><circle cx="126.4" cy="152.1" r="1.64" fill="#fff" opacity="0.31"/><circle cx="119.0" cy="79.1" r="0.45" fill="#fff" opacity="0.86"/><circle cx="160.2" cy="59.6" r="0.54" fill="#fff" opacity="0.66"/><circle cx="3.0" cy="150.3" r="0.56" fill="#fff" opacity="0.70"/><circle cx="15.4" cy="0.8" r="1.27" fill="#fff" opacity="0.64"/><circle cx="91.2" cy="97.3" r="1.19" fill="#fff" opacity="0.88"/><circle cx="94.5" cy="141.2" r="1.61" fill="#fff" opacity="0.34"/><circle cx="37.7" cy="159.5" r="1.26" fill="#fff" opacity="0.60"/><circle cx="192.5" cy="149.9" r="0.39" fill="#fff" opacity="0.81"/><circle cx="134.1" cy="57.9" r="1.52" fill="#fff" opacity="0.82"/><circle cx="119.3" cy="88.6" r="1.36" fill="#fff" opacity="0.54"/><circle cx="197.5" cy="150.5" r="0.47" fill="#fff" opacity="0.85"/><circle cx="55.1" cy="33.9" r="1.21" fill="#fff" opacity="0.74"/><circle cx="193.4" cy="121.4" r="1.09" fill="#fff" opacity="0.86"/><circle cx="39.5" cy="32.7" r="0.96" fill="#fff" opacity="0.80"/><circle cx="191.0" cy="2.5" r="1.64" fill="#fff" opacity="0.51"/><circle cx="193.5" cy="191.2" r="1.39" fill="#fff" opacity="0.75"/><circle cx="51.9" cy="129.7" r="1.40" fill="#fff" opacity="0.47"/><circle cx="75.0" cy="97.0" r="0.92" fill="#fff" opacity="0.53"/><circle cx="52.8" cy="31.4" r="0.40" fill="#fff" opacity="0.62"/><circle cx="168.1" cy="174.8" r="1.32" fill="#fff" opacity="0.85"/><circle cx="40.5" cy="50.8" r="1.40" fill="#fff" opacity="0.58"/><circle cx="104.7" cy="175.3" r="0.44" fill="#fff" opacity="0.87"/><circle cx="121.2" cy="101.4" r="1.66" fill="#fff" opacity="0.53"/><circle cx="20.8" cy="197.1" r="1.20" fill="#fff" opacity="0.49"/><circle cx="82.6" cy="156.2" r="1.06" fill="#fff" opacity="0.70"/><circle cx="44.7" cy="42.9" r="0.55" fill="#fff" opacity="0.53"/><circle cx="149.3" cy="69.4" r="1.26" fill="#fff" opacity="0.63"/><circle cx="119.7" cy="107.5" r="0.38" fill="#fff" opacity="0.51"/><circle cx="72.0" cy="132.5" r="0.31" fill="#fff" opacity="0.64"/><g filter="url(#surfer-air)"><g transform="matrix(-1 0 0 1 200 0)"><path d="M87.4,116 C87.4,132 85.4,146 79.4,166 L125.4,166 C119.4,146 117.4,132 117.4,116Z" fill="#c9d2e0" stroke="#141018" stroke-width="2.2" stroke-linejoin="round" stroke-linecap="round" /><g clip-path="url(#surfer-5)"><path d="M60,110 L140,110 L140,138 L102.4,144 L60,138Z" fill="#6d6c7b" /><path d="M107.4,140 L140,134 L140,180 L111.4,180Z" fill="#888798" /></g><path d="M97.4,142 C98.4,150 96.4,156 93.4,162" fill="none" stroke="#656970" stroke-width="1" stroke-linecap="round" stroke-linejoin="round" opacity=".6"/><path d="M-12,214 C-10,174.8 14.8,159.2 73,152.8 C89,162 117,162 133,151.8 C178.2,157.2 210,174.8 212,214Z" fill="#c9d2e0" stroke="#141018" stroke-width="2.4" stroke-linejoin="round" stroke-linecap="round" /><g clip-path="url(#surfer-3)"><path d="M58,196 C74,186 92,190 104,198 M150,196 C134,186 118,190 104,198" fill="none" stroke="#8a94a6" stroke-width="1.4" stroke-linecap="round" stroke-linejoin="round" /><path d="M20,190 C30,176 46,168 62,166" fill="none" stroke="#fff" stroke-width="3" stroke-linecap="round" stroke-linejoin="round" opacity=".6"/></g><g clip-path="url(#surfer-4)"><path d="M117,152 C143,164 169,186 183,214 L240,214 L240,140Z" fill="#1a0f2a" opacity=".38"/><path d="M33,214 C43,200 73,194 101,202 L101,214Z" fill="#1a0f2a" opacity=".22"/><path d="M4,196 C14,180 30,170 63,164" fill="none" stroke="#fff" stroke-width="3" stroke-linecap="round" stroke-linejoin="round" opacity=".3"/></g><g transform="translate(0 -6) rotate(-4 100 132) translate(100 104) scale(0.9 0.86) translate(-100 -104)"><path d="M102.4,35 C127.4,35 140.1,52 140.1,76 C140.1,80 139.1,84 139.1,87 C139.1,90 135.9,92 135.9,95 C135.9,99 139.8,101 139.8,105 C139.8,114 137.1,122 133.1,129 C127.1,141 121.2,150 109.2,152.5 C101.2,153.5 91.2,151 75.7,142 C70.7,137 65,130 63,120 C60.9,110 59.9,98 59.9,80 C59.9,52 76.4,35 102.4,35Z" fill="#c9d2e0" stroke="#141018" stroke-width="2.4" stroke-linejoin="round" stroke-linecap="round" /><g clip-path="url(#surfer-0)"><path d="M127.4,28 C122.4,48 127.4,70 126.6,86 C130,98 133.4,104 129.4,114 C125.4,124 119,138 113.2,158 L220,158 L220,28Z" fill="#888798" /><path d="M75.4,89 C82.4,83 96.4,83 101.4,89 L101.4,84 C94.4,79 80.4,79 75.4,84Z" fill="#888798" opacity=".55"/><path d="M108.4,89 C113.9,83 124.9,83 129.4,89 L130.9,83 L106.9,83Z" fill="#888798" opacity=".55"/><path d="M63.9,106 L74.9,114 L79.9,130 L69.9,125Z" fill="#888798" /><path d="M107.6,134.5 C110.4,136.5 115.4,136.5 119.3,134 L117.4,138.6 C113.4,139.6 109.4,139.6 106.4,138.6Z" fill="#888798" opacity=".8"/><path d="M107.5,94 C109.9,101 113.4,106 114,109.6 L121.4,115 L115.6,96Z" fill="#888798" opacity=".85"/><path d="M102.2,115 C108.4,117.5 114.4,117 118.4,114.6 L116.4,118.6 C112.4,120 106.4,119.6 102.2,115Z" fill="#818091" opacity=".8"/><path d="M83.4,54 C91.4,46 101.4,44 111.4,45 C101.4,48 93.4,52 87.4,60Z" fill="#d5dce7" opacity=".8"/><path d="M65.9,96 C67.9,103 70.9,108 75.9,111 C71.9,106 68.9,101 65.9,96Z" fill="#d5dce7" opacity=".8"/></g><g clip-path="url(#surfer-1)"><path d="M76.9,92.4 C81,88.9 93,89 99.9,93.8 C93,95.9 84.3,95.5 76.9,92.4Z" fill="#ffffff" /></g><path d="M79.1,94 L76.9,92.4 C81,88.9 93,89 99.9,93.8" fill="none" stroke="#141018" stroke-width="2.3" stroke-linecap="round" stroke-linejoin="round" /><path d="M101.1,94.6 C93,96.4 84.3,96.1 76.5,93.2" fill="none" stroke="#141018" stroke-width="0.9" stroke-linecap="round" stroke-linejoin="round" opacity=".6"/><path d="M78.1,86.2 C85,84.2 93,84.6 98.1,87" fill="none" stroke="#656970" stroke-width="1" stroke-linecap="round" stroke-linejoin="round" opacity=".75"/><g clip-path="url(#surfer-2)"><path d="M129,92.4 C125.3,88.9 114.9,89 108.8,93.8 C114.9,95.9 122.5,95.5 129,92.4Z" fill="#ffffff" /></g><path d="M126.8,94 L129,92.4 C125.3,88.9 114.9,89 108.8,93.8" fill="none" stroke="#141018" stroke-width="2.3" stroke-linecap="round" stroke-linejoin="round" /><path d="M107.6,94.6 C114.9,96.4 122.5,96.1 129.4,93.2" fill="none" stroke="#141018" stroke-width="0.9" stroke-linecap="round" stroke-linejoin="round" opacity=".6"/><path d="M127.9,86.2 C121.9,84.2 114.9,84.6 110.5,87" fill="none" stroke="#656970" stroke-width="1" stroke-linecap="round" stroke-linejoin="round" opacity=".75"/><path d="M100.1,84.8 C92.3,80.8 83.2,80.8 74.1,85 C83.2,83.4 92.3,85.8 100.1,88.2Z" fill="#8a94a6" stroke="#141018" stroke-width="0.9" stroke-linejoin="round" stroke-linecap="round" /><path d="M108.7,84.8 C115.5,80.8 123.4,80.8 131.4,85 C123.4,83.4 115.5,85.8 108.7,88.2Z" fill="#8a94a6" stroke="#141018" stroke-width="0.9" stroke-linejoin="round" stroke-linecap="round" /><path d="M105.2,97 L109.8,108 L108.2,107.8 L103.8,97Z" fill="#d7dde8" opacity=".85"/><path d="M107.5,94 C109.9,101 113.4,106 114,109.6 C114.4,112.4 111.4,114.2 108.4,113.8" fill="none" stroke="#141018" stroke-width="1.5" stroke-linecap="round" stroke-linejoin="round" /><path d="M104.2,112 C105.2,114.6 109.4,115.4 111.4,114.4" fill="none" stroke="#141018" stroke-width="1.4" stroke-linecap="round" stroke-linejoin="round" /><path d="M101.6,109.5 C100.1,112 101.6,114 103.9,114.4" fill="none" stroke="#141018" stroke-width="1.2" stroke-linecap="round" stroke-linejoin="round" opacity=".85"/><path d="M104.6,131.8 C107.6,133 111.6,133 114.6,131.8" fill="none" stroke="#656970" stroke-width="1.1" stroke-linecap="round" stroke-linejoin="round" opacity=".85"/><path d="M106.2,124.8 C108.2,123.8 111,123.8 113,124.8" fill="none" stroke="#656970" stroke-width="0.9" stroke-linecap="round" stroke-linejoin="round" opacity=".6"/><path d="M98.1,127 C105.6,128.6 113.6,128.6 119.9,127" fill="none" stroke="#141018" stroke-width="1.9" stroke-linecap="round" stroke-linejoin="round" /><path d="M69.9,108 L75.9,114" fill="none" stroke="#656970" stroke-width="1" stroke-linecap="round" stroke-linejoin="round" opacity=".7"/><g clip-path="url(#surfer-6)"><path d="M75.4,70 C79.4,56 87.4,48 97.4,44" fill="none" stroke="#fff" stroke-width="3" stroke-linecap="round" stroke-linejoin="round" opacity="0.9" stroke-dasharray="14 4 5 60"/></g><circle cx="101.4" cy="92" r="18" fill="#e6f2ff" filter="url(#surfer-7)" opacity="0.4"/></g><g transform="translate(150 200) rotate(-24)"><path d="M-60,0 C-40,-14 40,-14 60,0 C40,14 -40,14 -60,0Z" fill="#e6ecf6" stroke="#141018" stroke-width="2" stroke-linejoin="round" stroke-linecap="round" /><path d="M-50,-2 C-30,-10 30,-10 50,-2" fill="none" stroke="#fff" stroke-width="2.4" stroke-linecap="round" stroke-linejoin="round" opacity=".9"/></g></g></g></g><circle cx="100" cy="100" r="94" fill="none" stroke="#cfd8e6" stroke-width="5.5"/><circle cx="100" cy="100" r="97.2" fill="none" stroke="#141018" stroke-width="2.2"/><circle cx="100" cy="100" r="91" fill="none" stroke="#141018" stroke-width="1.4" opacity=".6"/></svg>