<svg xmlns="http://www.w3.org/2000/svg" viewBox="0 0 200 200" role="img" aria-label="Venom"><defs><clipPath id="venom-0"><path d="M101.2,35 C126.2,35 140.6,52 140.6,76 C140.6,80 139.6,84 139.6,87 C139.6,90 137,92 137,95 C137,99 140.4,101 140.4,105 C140.4,114 140.3,122 136.3,129 C130.3,141 117.6,150 105.6,152.5 C97.6,153.5 87.6,151 73.7,142 C68.7,137 62.3,130 60.3,120 C60.5,110 59.5,98 59.5,80 C59.5,52 75.2,35 101.2,35Z"/></clipPath><clipPath id="venom-1"><path d="M-12,214 C-10,172.4 15.4,157.6 71.5,152.4 C87.5,162 115.5,162 131.5,151.4 C179.1,155.6 210,172.4 212,214Z"/></clipPath><clipPath id="venom-2"><path d="M-12,214 C-10,172.4 15.4,157.6 71.5,152.4 C87.5,162 115.5,162 131.5,151.4 C179.1,155.6 210,172.4 212,214Z"/></clipPath><clipPath id="venom-3"><path d="M78.7,116 C78.7,132 76.7,146 70.7,166 L131.7,166 C125.7,146 123.7,132 123.7,116Z"/></clipPath><clipPath id="venom-4"><path d="M58.7,112 C82.7,128 126.7,128 142.7,110 C138.7,136 122.7,156 102.7,158 C78.7,156 60.7,136 58.7,112Z"/></clipPath><clipPath id="venom-5"><path d="M101.2,35 C126.2,35 140.6,52 140.6,76 C140.6,80 139.6,84 139.6,87 C139.6,90 137,92 137,95 C137,99 140.4,101 140.4,105 C140.4,114 140.3,122 136.3,129 C130.3,141 117.6,150 105.6,152.5 C97.6,153.5 87.6,151 73.7,142 C68.7,137 62.3,130 60.3,120 C60.5,110 59.5,98 59.5,80 C59.5,52 75.2,35 101.2,35Z"/></clipPath><radialGradient id="venom-6" cx="0.5" cy="0.42" r="0.62"><stop offset="0" stop-color="#6a4fa8" stop-opacity="1"/><stop offset="1" stop-color="#120826" stop-opacity="1"/></radialGradient><clipPath id="venom-disc"><circle cx="100" cy="100" r="93"/></clipPath></defs><circle cx="100" cy="100" r="96" fill="url(#venom-6)"/><g clip-path="url(#venom-disc)"><path d="M78.7,116 C78.7,132 76.7,146 70.7,166 L131.7,166 C125.7,146 123.7,132 123.7,116Z" fill="#16161f" stroke="#141018" stroke-width="2.2" stroke-linejoin="round" stroke-linecap="round" /><g clip-path="url(#venom-3)"><path d="M60,110 L140,110 L140,138 L101.2,144 L60,138Z" fill="#18121f" /><path d="M106.2,140 L140,134 L140,180 L110.2,180Z" fill="#1a1523" /></g><path d="M96.2,142 C97.2,150 95.2,156 92.2,162" fill="none" stroke="#0b0b10" stroke-width="1" stroke-linecap="round" stroke-linejoin="round" opacity=".6"/><path d="M-12,214 C-10,172.4 15.4,157.6 71.5,152.4 C87.5,162 115.5,162 131.5,151.4 C179.1,155.6 210,172.4 212,214Z" fill="#16161f" stroke="#141018" stroke-width="2.4" stroke-linejoin="round" stroke-linecap="round" /><g clip-path="url(#venom-1)"><path d="M104,170 C96,172 92,180 94,190 L84,182 L80,198 L96,198 L90,214 L118,214 L112,198 L128,198 L124,182 L114,190 C116,180 112,172 104,170Z" fill="#f4f4f8" stroke="#141018" stroke-width="1.2" stroke-linejoin="round" stroke-linecap="round" /></g><g clip-path="url(#venom-2)"><path d="M115.5,152 C141.5,164 167.5,186 181.5,214 L240,214 L240,140Z" fill="#1a0f2a" opacity=".38"/><path d="M31.5,214 C41.5,200 71.5,194 99.5,202 L99.5,214Z" fill="#1a0f2a" opacity=".22"/><path d="M4,196 C14,180 30,170 61.5,164" fill="none" stroke="#fff" stroke-width="3" stroke-linecap="round" stroke-linejoin="round" opacity=".3"/></g><g transform="translate(0 -6) rotate(-6 100 132) translate(100 104) scale(1 0.963) translate(-100 -104)"><path d="M101.2,35 C126.2,35 140.6,52 140.6,76 C140.6,80 139.6,84 139.6,87 C139.6,90 137,92 137,95 C137,99 140.4,101 140.4,105 C140.4,114 140.3,122 136.3,129 C130.3,141 117.6,150 105.6,152.5 C97.6,153.5 87.6,151 73.7,142 C68.7,137 62.3,130 60.3,120 C60.5,110 59.5,98 59.5,80 C59.5,52 75.2,35 101.2,35Z" fill="#16161f" stroke="#141018" stroke-width="2.4" stroke-linejoin="round" stroke-linecap="round" /><g clip-path="url(#venom-0)"><path d="M124.7,28 C119.7,48 124.7,70 124.8,86 C128.5,98 132.2,104 128.2,114 C124.2,124 117.5,138 109.6,158 L220,158 L220,28Z" fill="#1a1523" /><path d="M72.7,89 C79.7,83 93.7,83 98.7,89 L98.7,84 C91.7,79 77.7,79 72.7,84Z" fill="#1a1523" opacity=".55"/><path d="M105.7,89 C112,83 123,83 128.2,89 L129,83 L105,83Z" fill="#1a1523" opacity=".55"/><path d="M63.5,106 L74.5,114 L79.5,130 L69.5,125Z" fill="#1a1523" /><path d="M104.3,134.5 C107.7,136.5 112.7,136.5 116.2,134 L114.7,138.6 C110.7,139.6 106.7,139.6 103.7,138.6Z" fill="#1a1523" opacity=".8"/><path d="M104.5,94 C106.5,101 109.2,106 109.8,109.6 L117.2,115 L112.3,96Z" fill="#1a1523" opacity=".85"/><path d="M98.6,115 C104.2,117.5 110.2,117 114.2,114.6 L112.2,118.6 C108.2,120 102.2,119.6 98.6,115Z" fill="#1a1422" opacity=".8"/><path d="M80.7,54 C88.7,46 98.7,44 108.7,45 C98.7,48 90.7,52 84.7,60Z" fill="#494950" opacity=".8"/><path d="M65.5,96 C67.5,103 70.5,108 75.5,111 C71.5,106 68.5,101 65.5,96Z" fill="#494950" opacity=".8"/></g><path d="M69.5,108 L75.5,114" fill="none" stroke="#0b0b10" stroke-width="1" stroke-linecap="round" stroke-linejoin="round" opacity=".7"/><path d="M100.7,96 C94.7,80 80.7,66 60.7,62 C64.7,76 66.7,88 76.7,98 C84.7,104 94.7,102 100.7,96Z" fill="#fff" stroke="#141018" stroke-width="2.4" stroke-linejoin="round" stroke-linecap="round" /><path d="M106.7,96 C111.7,80 122.7,68 136.7,64 C134.7,78 132.7,88 124.7,98 C118.7,102 110.7,102 106.7,96Z" fill="#fff" stroke="#141018" stroke-width="2.4" stroke-linejoin="round" stroke-linecap="round" /><path d="M58.7,112 C82.7,128 126.7,128 142.7,110 C138.7,136 122.7,156 102.7,158 C78.7,156 60.7,136 58.7,112Z" fill="#4a0a14" stroke="#141018" stroke-width="2.4" stroke-linejoin="round" stroke-linecap="round" /><g clip-path="url(#venom-4)"><path d="M64.7,119.2 L69.2,134 L73.7,119.8Z M73.7,120.4 L78.2,134 L82.7,121Z M82.7,121.6 L87.2,134 L91.7,122.2Z M91.7,122.8 L96.2,134 L100.7,123.4Z M100.7,124 L105.2,134 L109.7,123.4Z M109.7,122.8 L114.2,134 L118.7,122.2Z M118.7,121.6 L123.2,134 L127.7,121Z M127.7,120.4 L132.2,134 L136.7,119.8Z M136.7,119.2 L141.2,134 L145.7,118.6Z " fill="#f4f2ea" stroke="#141018" stroke-width="1" stroke-linejoin="round" stroke-linecap="round" /><path d="M74.7,152 L78.7,138 L83.2,152Z M83.2,152 L87.2,138 L91.7,152Z M91.7,152 L95.7,138 L100.2,152Z M100.2,152 L104.2,138 L108.7,152Z M108.7,152 L112.7,138 L117.2,152Z M117.2,152 L121.2,138 L125.7,152Z M125.7,152 L129.7,138 L134.2,152Z " fill="#f4f2ea" stroke="#141018" stroke-width="1" stroke-linejoin="round" stroke-linecap="round" /></g><path d="M98.7,140 C94.7,160 100.7,180 114.7,190 C118.7,176 114.7,156 110.7,140Z" fill="#e0557a" stroke="#141018" stroke-width="2" stroke-linejoin="round" stroke-linecap="round" /><path d="M104.7,146 C102.7,160 106.7,174 112.7,182" fill="none" stroke="#a8284a" stroke-width="1.2" stroke-linecap="round" stroke-linejoin="round" /><g clip-path="url(#venom-5)"><path d="M72.7,70 C76.7,56 84.7,48 94.7,44" fill="none" stroke="#fff" stroke-width="3" stroke-linecap="round" stroke-linejoin="round" opacity="0.55" stroke-dasharray="14 4 5 60"/></g></g></g><circle cx="100" cy="100" r="94" fill="none" stroke="#e8e8ee" stroke-width="5.5"/><circle cx="100" cy="100" r="97.2" fill="none" stroke="#141018" stroke-width="2.2"/><circle cx="100" cy="100" r="91" fill="none" stroke="#141018" stroke-width="1.4" opacity=".6"/></svg>