<svg xmlns="http://www.w3.org/2000/svg" viewBox="0 0 400 400" width="400" height="400" role="img" aria-label="Falcon">
<defs>
<filter id="glow" x="-50%" y="-50%" width="200%" height="200%"><feGaussianBlur stdDeviation="5" result="b"/><feMerge><feMergeNode in="b"/><feMergeNode in="SourceGraphic"/></feMerge></filter>
<filter id="blur6" x="-50%" y="-50%" width="200%" height="200%"><feGaussianBlur stdDeviation="6"/></filter>
<filter id="blur14" x="-50%" y="-50%" width="200%" height="200%"><feGaussianBlur stdDeviation="14"/></filter>
<filter id="grain" x="0" y="0" width="100%" height="100%"><feTurbulence type="fractalNoise" baseFrequency="0.9" numOctaves="2" seed="7"/><feColorMatrix values="0 0 0 0 0  0 0 0 0 0  0 0 0 0 0  0 0 0 0.10 0"/><feComposite in2="SourceGraphic" operator="in"/></filter>
<pattern id="hatch" width="4.2" height="4.2" patternUnits="userSpaceOnUse" patternTransform="rotate(-38)"><rect width="1.1" height="4.2" fill="#0a0418" opacity="0.42"/></pattern>
<filter id="soft" x="-30%" y="-30%" width="160%" height="160%"><feGaussianBlur stdDeviation="3.2"/></filter>
<pattern id="dots" width="7" height="7" patternUnits="userSpaceOnUse" patternTransform="rotate(30)"><circle cx="3.5" cy="3.5" r="1.6" fill="#000"/></pattern>
<pattern id="dotsW" width="7" height="7" patternUnits="userSpaceOnUse" patternTransform="rotate(30)"><circle cx="3.5" cy="3.5" r="1.6" fill="#fff"/></pattern>
<radialGradient id="vig" cx="0.5" cy="0.45" r="0.6"><stop offset="0.62" stop-color="#000" stop-opacity="0"/><stop offset="1" stop-color="#000" stop-opacity="0.5"/></radialGradient>
<radialGradient id="htFade" cx="0.5" cy="0.5" r="0.5"><stop offset="0.45" stop-color="#fff" stop-opacity="0"/><stop offset="1" stop-color="#fff" stop-opacity="1"/></radialGradient>
<mask id="htMask"><rect width="400" height="400" fill="url(#htFade)"/></mask>
<clipPath id="disc"><circle cx="200" cy="200" r="186"/></clipPath></defs>
<circle cx="200" cy="200" r="197" fill="#c8202e" stroke="#120d1a" stroke-width="5"/>
<path d="M200,6 A194,194 0 0 0 6,200" fill="none" stroke="#da6467" stroke-width="5" stroke-linecap="round" opacity="0.9"/>
<g clip-path="url(#disc)">
<rect width="400" height="400" fill="#5aa0e0"/>
<defs><linearGradient id="fa" x1="0" y1="0" x2="0" y2="1"><stop offset="0" stop-color="#2f6fc4"/><stop offset="0.5" stop-color="#7ab8ee"/><stop offset="1" stop-color="#cfe8ff"/></linearGradient></defs><rect width="400" height="400" fill="url(#fa)"/><path d="M200,120L800,120L792.6,213.9ZM200,120L770.6,305.4L734.6,392.4ZM200,120L685.4,472.7L624.3,544.3ZM200,120L552.7,605.4L472.4,654.6ZM200,120L385.4,690.6L293.9,712.6ZM200,120L200,720L106.1,712.6ZM200,120L14.6,690.6L-72.4,654.6ZM200,120L-152.7,605.4L-224.3,544.3ZM200,120L-285.4,472.7L-334.6,392.4ZM200,120L-370.6,305.4L-392.6,213.9ZM200,120L-400,120L-392.6,26.1ZM200,120L-370.6,-65.4L-334.6,-152.4ZM200,120L-285.4,-232.7L-224.3,-304.3ZM200,120L-152.7,-365.4L-72.4,-414.6ZM200,120L14.6,-450.6L106.1,-472.6ZM200,120L200,-480L293.9,-472.6ZM200,120L385.4,-450.6L472.4,-414.6ZM200,120L552.7,-365.4L624.3,-304.3ZM200,120L685.4,-232.7L734.6,-152.4ZM200,120L770.6,-65.4L792.6,26.1Z" fill="#ffffff" opacity="0.15"/><g opacity="1"><circle cx="-40" cy="357.4" r="37.2" fill="#ffffff" stroke="#120d1a" stroke-width="2.5"/><circle cx="0.9" cy="357.8" r="48.4" fill="#ffffff" stroke="#120d1a" stroke-width="2.5"/><circle cx="54.1" cy="355.7" r="31.5" fill="#ffffff" stroke="#120d1a" stroke-width="2.5"/><circle cx="88.7" cy="331.6" r="40.8" fill="#ffffff" stroke="#120d1a" stroke-width="2.5"/><circle cx="133.6" cy="359.5" r="32.1" fill="#ffffff" stroke="#120d1a" stroke-width="2.5"/><circle cx="168.9" cy="345.9" r="59.2" fill="#ffffff" stroke="#120d1a" stroke-width="2.5"/><circle cx="234" cy="346.4" r="43.6" fill="#ffffff" stroke="#120d1a" stroke-width="2.5"/><circle cx="281.9" cy="353.3" r="48.2" fill="#ffffff" stroke="#120d1a" stroke-width="2.5"/><circle cx="334.9" cy="342.5" r="53.4" fill="#ffffff" stroke="#120d1a" stroke-width="2.5"/><circle cx="393.6" cy="355.6" r="44.2" fill="#ffffff" stroke="#120d1a" stroke-width="2.5"/><rect x="-10" y="340" width="420" height="200" fill="#ffffff"/></g><g opacity="0.45"><path d="M215.2,387.8L223.2,499.1L226.3,498.8Z" fill="#fff"/><path d="M190.2,1.6L186.1,-99.7L183.4,-99.5Z" fill="#fff"/><path d="M251.3,381.8L279.8,489.2L284.7,487.8Z" fill="#fff"/><path d="M135.1,12.8L102.6,-83.8L100.1,-82.9Z" fill="#fff"/><path d="M16.5,116.6L-72.4,74.3L-74.4,78.6Z" fill="#fff"/><path d="M38.7,255.4L-84.1,296.3L-82.8,300.1Z" fill="#fff"/><path d="M385.5,178.7L498.3,168.3L497.5,160.9Z" fill="#fff"/><path d="M101.3,26.5L53,-61.5L49.3,-59.4Z" fill="#fff"/><path d="M202.8,375.9L203.7,500L206.8,499.9Z" fill="#fff"/><path d="M304.4,337.8L380.1,439.9L383.5,437.4Z" fill="#fff"/><path d="M18,178.6L-97.8,163.7L-98.2,167.5Z" fill="#fff"/><path d="M29.9,92L-52.4,37.8L-55,41.9Z" fill="#fff"/><path d="M110,381.6L64.7,467.8L70.7,470.7Z" fill="#fff"/><path d="M324.5,46.6L391,-31.4L385.4,-35.9Z" fill="#fff"/><path d="M154.6,-2.1L135.5,-93L131.9,-92.2Z" fill="#fff"/><path d="M306.6,375.8L353.3,457.9L359.7,454Z" fill="#fff"/><path d="M338.3,86.3L432.8,10.7L429.5,6.8Z" fill="#fff"/><path d="M323.4,83L418.1,-6L416.7,-7.5Z" fill="#fff"/><path d="M67.1,67.7L-11.7,-12.6L-14.5,-9.7Z" fill="#fff"/><path d="M50.4,73.3L-27.5,4.4L-31.7,9.5Z" fill="#fff"/><path d="M-1,255.9L-89.3,279.3L-88.5,282.1Z" fill="#fff"/><path d="M218.4,26.2L233.5,-98.1L228,-98.7Z" fill="#fff"/><path d="M186.9,20.1L180.4,-99.4L173.8,-98.9Z" fill="#fff"/><path d="M26.9,227.1L-96.8,244L-95.6,251.3Z" fill="#fff"/><path d="M392.9,230.2L496,249.1L497.2,241.2Z" fill="#fff"/><path d="M393.3,269L482.3,301.5L483,299.6Z" fill="#fff"/><path d="M363.2,97L454.5,41.1L452.1,37.4Z" fill="#fff"/><path d="M92.2,35.6L37.3,-52.1L32.2,-48.7Z" fill="#fff"/><path d="M271.9,23.9L315.4,-76.9L309.6,-79.3Z" fill="#fff"/><path d="M365.8,282.8L467.3,336.3L470.7,329.4Z" fill="#fff"/></g>
<rect width="400" height="400" fill="url(#dots)" opacity="0.10" mask="url(#htMask)"/>
<g transform="translate(153.5 319.4) rotate(145.4)"><clipPath id="falco_82"><path d="M0,-10Q64.1,-22 116.6,-3L108.6,6Q58.3,14 0,10Z"/></clipPath><clipPath id="falco_83"><path d="M0,-10Q64.1,-22 116.6,-3L108.6,6Q58.3,14 0,10Z" transform="translate(-0.7 -3.6)"/></clipPath><radialGradient id="falco_85" cx="0.6" cy="0.8" r="0.62"><stop offset="0" stop-color="#fffbe8" stop-opacity="0.34"/><stop offset="1" stop-color="#fffbe8" stop-opacity="0"/></radialGradient><radialGradient id="falco_86" cx="0.5" cy="0.7" r="0.75"><stop offset="0.45" stop-color="#0a0418" stop-opacity="0"/><stop offset="1" stop-color="#0a0418" stop-opacity="0.38"/></radialGradient><mask id="falco_84"><rect x="-3000" y="-3000" width="6000" height="6000" fill="#fff"/><path d="M0,-10Q64.1,-22 116.6,-3L108.6,6Q58.3,14 0,10Z" fill="#000" transform="translate(0.9 4.7)"/></mask><g clip-path="url(#falco_82)"><path d="M0,-10Q64.1,-22 116.6,-3L108.6,6Q58.3,14 0,10Z" fill="#da6467"/><g clip-path="url(#falco_83)"><path d="M0,-10Q64.1,-22 116.6,-3L108.6,6Q58.3,14 0,10Z" fill="#861727"/><path d="M0,-10Q64.1,-22 116.6,-3L108.6,6Q58.3,14 0,10Z" fill="#571122" transform="translate(0.3 1.7)"/><path d="M0,-10Q64.1,-22 116.6,-3L108.6,6Q58.3,14 0,10Z" fill="#c8202e" transform="translate(1 5.6)"/></g><path d="M0,-10Q64.1,-22 116.6,-3L108.6,6Q58.3,14 0,10Z" fill="url(#falco_86)"/><path d="M0,-10Q64.1,-22 116.6,-3L108.6,6Q58.3,14 0,10Z" fill="url(#falco_85)"/><g mask="url(#falco_84)"><path d="M0,-10Q64.1,-22 116.6,-3L108.6,6Q58.3,14 0,10Z" fill="url(#hatch)" transform="translate(0.3 1.7)"/></g></g><path d="M0,-10Q64.1,-22 116.6,-3L108.6,6Q58.3,14 0,10Z" fill="none" stroke="#120d1a" stroke-width="2.6" stroke-linejoin="round"/></g><g transform="translate(151.2 314.7) rotate(160.3)"><clipPath id="falco_87"><path d="M0,-10Q71.4,-22 129.8,-3L121.8,6Q64.9,14 0,10Z"/></clipPath><clipPath id="falco_88"><path d="M0,-10Q71.4,-22 129.8,-3L121.8,6Q64.9,14 0,10Z" transform="translate(-1.6 -3.3)"/></clipPath><radialGradient id="falco_90" cx="0.6" cy="0.8" r="0.62"><stop offset="0" stop-color="#fffbe8" stop-opacity="0.34"/><stop offset="1" stop-color="#fffbe8" stop-opacity="0"/></radialGradient><radialGradient id="falco_91" cx="0.6" cy="0.7" r="0.75"><stop offset="0.45" stop-color="#0a0418" stop-opacity="0"/><stop offset="1" stop-color="#0a0418" stop-opacity="0.38"/></radialGradient><mask id="falco_89"><rect x="-3000" y="-3000" width="6000" height="6000" fill="#fff"/><path d="M0,-10Q71.4,-22 129.8,-3L121.8,6Q64.9,14 0,10Z" fill="#000" transform="translate(2.1 4.3)"/></mask><g clip-path="url(#falco_87)"><path d="M0,-10Q71.4,-22 129.8,-3L121.8,6Q64.9,14 0,10Z" fill="#efecea"/><g clip-path="url(#falco_88)"><path d="M0,-10Q71.4,-22 129.8,-3L121.8,6Q64.9,14 0,10Z" fill="#9b9aa4"/><path d="M0,-10Q71.4,-22 129.8,-3L121.8,6Q64.9,14 0,10Z" fill="#64616f" transform="translate(0.7 1.5)"/><path d="M0,-10Q71.4,-22 129.8,-3L121.8,6Q64.9,14 0,10Z" fill="#e8e8ee" transform="translate(2.4 5.1)"/></g><path d="M0,-10Q71.4,-22 129.8,-3L121.8,6Q64.9,14 0,10Z" fill="url(#falco_91)"/><path d="M0,-10Q71.4,-22 129.8,-3L121.8,6Q64.9,14 0,10Z" fill="url(#falco_90)"/><g mask="url(#falco_89)"><path d="M0,-10Q71.4,-22 129.8,-3L121.8,6Q64.9,14 0,10Z" fill="url(#hatch)" transform="translate(0.7 1.5)"/></g></g><path d="M0,-10Q71.4,-22 129.8,-3L121.8,6Q64.9,14 0,10Z" fill="none" stroke="#120d1a" stroke-width="2.6" stroke-linejoin="round"/></g><g transform="translate(150.1 309.7) rotate(175.3)"><clipPath id="falco_92"><path d="M0,-10Q78.7,-22 143,-3L135,6Q71.5,14 0,10Z"/></clipPath><clipPath id="falco_93"><path d="M0,-10Q78.7,-22 143,-3L135,6Q71.5,14 0,10Z" transform="translate(-2.4 -2.8)"/></clipPath><radialGradient id="falco_95" cx="0.7" cy="0.7" r="0.62"><stop offset="0" stop-color="#fffbe8" stop-opacity="0.34"/><stop offset="1" stop-color="#fffbe8" stop-opacity="0"/></radialGradient><radialGradient id="falco_96" cx="0.7" cy="0.7" r="0.75"><stop offset="0.45" stop-color="#0a0418" stop-opacity="0"/><stop offset="1" stop-color="#0a0418" stop-opacity="0.38"/></radialGradient><mask id="falco_94"><rect x="-3000" y="-3000" width="6000" height="6000" fill="#fff"/><path d="M0,-10Q78.7,-22 143,-3L135,6Q71.5,14 0,10Z" fill="#000" transform="translate(3.1 3.7)"/></mask><g clip-path="url(#falco_92)"><path d="M0,-10Q78.7,-22 143,-3L135,6Q71.5,14 0,10Z" fill="#da6467"/><g clip-path="url(#falco_93)"><path d="M0,-10Q78.7,-22 143,-3L135,6Q71.5,14 0,10Z" fill="#861727"/><path d="M0,-10Q78.7,-22 143,-3L135,6Q71.5,14 0,10Z" fill="#571122" transform="translate(1.1 1.3)"/><path d="M0,-10Q78.7,-22 143,-3L135,6Q71.5,14 0,10Z" fill="#c8202e" transform="translate(3.7 4.3)"/></g><path d="M0,-10Q78.7,-22 143,-3L135,6Q71.5,14 0,10Z" fill="url(#falco_96)"/><path d="M0,-10Q78.7,-22 143,-3L135,6Q71.5,14 0,10Z" fill="url(#falco_95)"/><g mask="url(#falco_94)"><path d="M0,-10Q78.7,-22 143,-3L135,6Q71.5,14 0,10Z" fill="url(#hatch)" transform="translate(1.1 1.3)"/></g></g><path d="M0,-10Q78.7,-22 143,-3L135,6Q71.5,14 0,10Z" fill="none" stroke="#120d1a" stroke-width="2.6" stroke-linejoin="round"/></g><g transform="translate(150.3 304.5) rotate(190.2)"><clipPath id="falco_97"><path d="M0,-10Q85.9,-22 156.2,-3L148.2,6Q78.1,14 0,10Z"/></clipPath><clipPath id="falco_98"><path d="M0,-10Q85.9,-22 156.2,-3L148.2,6Q78.1,14 0,10Z" transform="translate(-3 -2.1)"/></clipPath><radialGradient id="falco_100" cx="0.8" cy="0.7" r="0.62"><stop offset="0" stop-color="#fffbe8" stop-opacity="0.34"/><stop offset="1" stop-color="#fffbe8" stop-opacity="0"/></radialGradient><radialGradient id="falco_101" cx="0.7" cy="0.6" r="0.75"><stop offset="0.45" stop-color="#0a0418" stop-opacity="0"/><stop offset="1" stop-color="#0a0418" stop-opacity="0.38"/></radialGradient><mask id="falco_99"><rect x="-3000" y="-3000" width="6000" height="6000" fill="#fff"/><path d="M0,-10Q85.9,-22 156.2,-3L148.2,6Q78.1,14 0,10Z" fill="#000" transform="translate(3.9 2.7)"/></mask><g clip-path="url(#falco_97)"><path d="M0,-10Q85.9,-22 156.2,-3L148.2,6Q78.1,14 0,10Z" fill="#efecea"/><g clip-path="url(#falco_98)"><path d="M0,-10Q85.9,-22 156.2,-3L148.2,6Q78.1,14 0,10Z" fill="#9b9aa4"/><path d="M0,-10Q85.9,-22 156.2,-3L148.2,6Q78.1,14 0,10Z" fill="#64616f" transform="translate(1.4 1)"/><path d="M0,-10Q85.9,-22 156.2,-3L148.2,6Q78.1,14 0,10Z" fill="#e8e8ee" transform="translate(4.6 3.2)"/></g><path d="M0,-10Q85.9,-22 156.2,-3L148.2,6Q78.1,14 0,10Z" fill="url(#falco_101)"/><path d="M0,-10Q85.9,-22 156.2,-3L148.2,6Q78.1,14 0,10Z" fill="url(#falco_100)"/><g mask="url(#falco_99)"><path d="M0,-10Q85.9,-22 156.2,-3L148.2,6Q78.1,14 0,10Z" fill="url(#hatch)" transform="translate(1.4 1)"/></g></g><path d="M0,-10Q85.9,-22 156.2,-3L148.2,6Q78.1,14 0,10Z" fill="none" stroke="#120d1a" stroke-width="2.6" stroke-linejoin="round"/></g><g transform="translate(151.9 299.5) rotate(205.2)"><clipPath id="falco_102"><path d="M0,-10Q93.2,-22 169.4,-3L161.4,6Q84.7,14 0,10Z"/></clipPath><clipPath id="falco_103"><path d="M0,-10Q93.2,-22 169.4,-3L161.4,6Q84.7,14 0,10Z" transform="translate(-3.5 -1.2)"/></clipPath><radialGradient id="falco_105" cx="0.8" cy="0.6" r="0.62"><stop offset="0" stop-color="#fffbe8" stop-opacity="0.34"/><stop offset="1" stop-color="#fffbe8" stop-opacity="0"/></radialGradient><radialGradient id="falco_106" cx="0.7" cy="0.6" r="0.75"><stop offset="0.45" stop-color="#0a0418" stop-opacity="0"/><stop offset="1" stop-color="#0a0418" stop-opacity="0.38"/></radialGradient><mask id="falco_104"><rect x="-3000" y="-3000" width="6000" height="6000" fill="#fff"/><path d="M0,-10Q93.2,-22 169.4,-3L161.4,6Q84.7,14 0,10Z" fill="#000" transform="translate(4.5 1.6)"/></mask><g clip-path="url(#falco_102)"><path d="M0,-10Q93.2,-22 169.4,-3L161.4,6Q84.7,14 0,10Z" fill="#da6467"/><g clip-path="url(#falco_103)"><path d="M0,-10Q93.2,-22 169.4,-3L161.4,6Q84.7,14 0,10Z" fill="#861727"/><path d="M0,-10Q93.2,-22 169.4,-3L161.4,6Q84.7,14 0,10Z" fill="#571122" transform="translate(1.6 0.6)"/><path d="M0,-10Q93.2,-22 169.4,-3L161.4,6Q84.7,14 0,10Z" fill="#c8202e" transform="translate(5.3 1.9)"/></g><path d="M0,-10Q93.2,-22 169.4,-3L161.4,6Q84.7,14 0,10Z" fill="url(#falco_106)"/><path d="M0,-10Q93.2,-22 169.4,-3L161.4,6Q84.7,14 0,10Z" fill="url(#falco_105)"/><g mask="url(#falco_104)"><path d="M0,-10Q93.2,-22 169.4,-3L161.4,6Q84.7,14 0,10Z" fill="url(#hatch)" transform="translate(1.6 0.6)"/></g></g><path d="M0,-10Q93.2,-22 169.4,-3L161.4,6Q84.7,14 0,10Z" fill="none" stroke="#120d1a" stroke-width="2.6" stroke-linejoin="round"/></g><g transform="translate(154.7 295.1) rotate(220.1)"><clipPath id="falco_107"><path d="M0,-10Q100.4,-22 182.6,-3L174.6,6Q91.3,14 0,10Z"/></clipPath><clipPath id="falco_108"><path d="M0,-10Q100.4,-22 182.6,-3L174.6,6Q91.3,14 0,10Z" transform="translate(-3.7 -0.3)"/></clipPath><radialGradient id="falco_110" cx="0.8" cy="0.5" r="0.62"><stop offset="0" stop-color="#fffbe8" stop-opacity="0.34"/><stop offset="1" stop-color="#fffbe8" stop-opacity="0"/></radialGradient><radialGradient id="falco_111" cx="0.7" cy="0.5" r="0.75"><stop offset="0.45" stop-color="#0a0418" stop-opacity="0"/><stop offset="1" stop-color="#0a0418" stop-opacity="0.38"/></radialGradient><mask id="falco_109"><rect x="-3000" y="-3000" width="6000" height="6000" fill="#fff"/><path d="M0,-10Q100.4,-22 182.6,-3L174.6,6Q91.3,14 0,10Z" fill="#000" transform="translate(4.8 0.4)"/></mask><g clip-path="url(#falco_107)"><path d="M0,-10Q100.4,-22 182.6,-3L174.6,6Q91.3,14 0,10Z" fill="#efecea"/><g clip-path="url(#falco_108)"><path d="M0,-10Q100.4,-22 182.6,-3L174.6,6Q91.3,14 0,10Z" fill="#9b9aa4"/><path d="M0,-10Q100.4,-22 182.6,-3L174.6,6Q91.3,14 0,10Z" fill="#64616f" transform="translate(1.7 0.1)"/><path d="M0,-10Q100.4,-22 182.6,-3L174.6,6Q91.3,14 0,10Z" fill="#e8e8ee" transform="translate(5.6 0.5)"/></g><path d="M0,-10Q100.4,-22 182.6,-3L174.6,6Q91.3,14 0,10Z" fill="url(#falco_111)"/><path d="M0,-10Q100.4,-22 182.6,-3L174.6,6Q91.3,14 0,10Z" fill="url(#falco_110)"/><g mask="url(#falco_109)"><path d="M0,-10Q100.4,-22 182.6,-3L174.6,6Q91.3,14 0,10Z" fill="url(#hatch)" transform="translate(1.7 0.1)"/></g></g><path d="M0,-10Q100.4,-22 182.6,-3L174.6,6Q91.3,14 0,10Z" fill="none" stroke="#120d1a" stroke-width="2.6" stroke-linejoin="round"/></g><g transform="translate(158.5 291.6) rotate(235.1)"><clipPath id="falco_112"><path d="M0,-10Q107.7,-22 195.8,-3L187.8,6Q97.9,14 0,10Z"/></clipPath><clipPath id="falco_113"><path d="M0,-10Q107.7,-22 195.8,-3L187.8,6Q97.9,14 0,10Z" transform="translate(-3.6 0.6)"/></clipPath><radialGradient id="falco_115" cx="0.8" cy="0.4" r="0.62"><stop offset="0" stop-color="#fffbe8" stop-opacity="0.34"/><stop offset="1" stop-color="#fffbe8" stop-opacity="0"/></radialGradient><radialGradient id="falco_116" cx="0.7" cy="0.5" r="0.75"><stop offset="0.45" stop-color="#0a0418" stop-opacity="0"/><stop offset="1" stop-color="#0a0418" stop-opacity="0.38"/></radialGradient><mask id="falco_114"><rect x="-3000" y="-3000" width="6000" height="6000" fill="#fff"/><path d="M0,-10Q107.7,-22 195.8,-3L187.8,6Q97.9,14 0,10Z" fill="#000" transform="translate(4.7 -0.8)"/></mask><g clip-path="url(#falco_112)"><path d="M0,-10Q107.7,-22 195.8,-3L187.8,6Q97.9,14 0,10Z" fill="#da6467"/><g clip-path="url(#falco_113)"><path d="M0,-10Q107.7,-22 195.8,-3L187.8,6Q97.9,14 0,10Z" fill="#861727"/><path d="M0,-10Q107.7,-22 195.8,-3L187.8,6Q97.9,14 0,10Z" fill="#571122" transform="translate(1.7 -0.3)"/><path d="M0,-10Q107.7,-22 195.8,-3L187.8,6Q97.9,14 0,10Z" fill="#c8202e" transform="translate(5.6 -1)"/></g><path d="M0,-10Q107.7,-22 195.8,-3L187.8,6Q97.9,14 0,10Z" fill="url(#falco_116)"/><path d="M0,-10Q107.7,-22 195.8,-3L187.8,6Q97.9,14 0,10Z" fill="url(#falco_115)"/><g mask="url(#falco_114)"><path d="M0,-10Q107.7,-22 195.8,-3L187.8,6Q97.9,14 0,10Z" fill="url(#hatch)" transform="translate(1.7 -0.3)"/></g></g><path d="M0,-10Q107.7,-22 195.8,-3L187.8,6Q97.9,14 0,10Z" fill="none" stroke="#120d1a" stroke-width="2.6" stroke-linejoin="round"/></g><g transform="translate(163.2 289.2) rotate(250)"><clipPath id="falco_117"><path d="M0,-10Q115,-22 209,-3L201,6Q104.5,14 0,10Z"/></clipPath><clipPath id="falco_118"><path d="M0,-10Q115,-22 209,-3L201,6Q104.5,14 0,10Z" transform="translate(-3.3 1.6)"/></clipPath><radialGradient id="falco_120" cx="0.8" cy="0.4" r="0.62"><stop offset="0" stop-color="#fffbe8" stop-opacity="0.34"/><stop offset="1" stop-color="#fffbe8" stop-opacity="0"/></radialGradient><radialGradient id="falco_121" cx="0.7" cy="0.4" r="0.75"><stop offset="0.45" stop-color="#0a0418" stop-opacity="0"/><stop offset="1" stop-color="#0a0418" stop-opacity="0.38"/></radialGradient><mask id="falco_119"><rect x="-3000" y="-3000" width="6000" height="6000" fill="#fff"/><path d="M0,-10Q115,-22 209,-3L201,6Q104.5,14 0,10Z" fill="#000" transform="translate(4.4 -2)"/></mask><g clip-path="url(#falco_117)"><path d="M0,-10Q115,-22 209,-3L201,6Q104.5,14 0,10Z" fill="#efecea"/><g clip-path="url(#falco_118)"><path d="M0,-10Q115,-22 209,-3L201,6Q104.5,14 0,10Z" fill="#9b9aa4"/><path d="M0,-10Q115,-22 209,-3L201,6Q104.5,14 0,10Z" fill="#64616f" transform="translate(1.5 -0.7)"/><path d="M0,-10Q115,-22 209,-3L201,6Q104.5,14 0,10Z" fill="#e8e8ee" transform="translate(5.1 -2.4)"/></g><path d="M0,-10Q115,-22 209,-3L201,6Q104.5,14 0,10Z" fill="url(#falco_121)"/><path d="M0,-10Q115,-22 209,-3L201,6Q104.5,14 0,10Z" fill="url(#falco_120)"/><g mask="url(#falco_119)"><path d="M0,-10Q115,-22 209,-3L201,6Q104.5,14 0,10Z" fill="url(#hatch)" transform="translate(1.5 -0.7)"/></g></g><path d="M0,-10Q115,-22 209,-3L201,6Q104.5,14 0,10Z" fill="none" stroke="#120d1a" stroke-width="2.6" stroke-linejoin="round"/></g><g transform="translate(246.5 319.4) rotate(34.6)"><clipPath id="falco_122"><path d="M0,-10Q64.1,-22 116.6,-3L108.6,6Q58.3,14 0,10Z"/></clipPath><clipPath id="falco_123"><path d="M0,-10Q64.1,-22 116.6,-3L108.6,6Q58.3,14 0,10Z" transform="translate(3.6 0.7)"/></clipPath><radialGradient id="falco_125" cx="0.2" cy="0.4" r="0.62"><stop offset="0" stop-color="#fffbe8" stop-opacity="0.34"/><stop offset="1" stop-color="#fffbe8" stop-opacity="0"/></radialGradient><radialGradient id="falco_126" cx="0.3" cy="0.5" r="0.75"><stop offset="0.45" stop-color="#0a0418" stop-opacity="0"/><stop offset="1" stop-color="#0a0418" stop-opacity="0.38"/></radialGradient><mask id="falco_124"><rect x="-3000" y="-3000" width="6000" height="6000" fill="#fff"/><path d="M0,-10Q64.1,-22 116.6,-3L108.6,6Q58.3,14 0,10Z" fill="#000" transform="translate(-4.7 -0.9)"/></mask><g clip-path="url(#falco_122)"><path d="M0,-10Q64.1,-22 116.6,-3L108.6,6Q58.3,14 0,10Z" fill="#da6467"/><g clip-path="url(#falco_123)"><path d="M0,-10Q64.1,-22 116.6,-3L108.6,6Q58.3,14 0,10Z" fill="#861727"/><path d="M0,-10Q64.1,-22 116.6,-3L108.6,6Q58.3,14 0,10Z" fill="#571122" transform="translate(-1.7 -0.3)"/><path d="M0,-10Q64.1,-22 116.6,-3L108.6,6Q58.3,14 0,10Z" fill="#c8202e" transform="translate(-5.6 -1)"/></g><path d="M0,-10Q64.1,-22 116.6,-3L108.6,6Q58.3,14 0,10Z" fill="url(#falco_126)"/><path d="M0,-10Q64.1,-22 116.6,-3L108.6,6Q58.3,14 0,10Z" fill="url(#falco_125)"/><g mask="url(#falco_124)"><path d="M0,-10Q64.1,-22 116.6,-3L108.6,6Q58.3,14 0,10Z" fill="url(#hatch)" transform="translate(-1.7 -0.3)"/></g></g><path d="M0,-10Q64.1,-22 116.6,-3L108.6,6Q58.3,14 0,10Z" fill="none" stroke="#120d1a" stroke-width="2.6" stroke-linejoin="round"/></g><g transform="translate(248.8 314.7) rotate(19.7)"><clipPath id="falco_127"><path d="M0,-10Q71.4,-22 129.8,-3L121.8,6Q64.9,14 0,10Z"/></clipPath><clipPath id="falco_128"><path d="M0,-10Q71.4,-22 129.8,-3L121.8,6Q64.9,14 0,10Z" transform="translate(3.3 1.6)"/></clipPath><radialGradient id="falco_130" cx="0.2" cy="0.4" r="0.62"><stop offset="0" stop-color="#fffbe8" stop-opacity="0.34"/><stop offset="1" stop-color="#fffbe8" stop-opacity="0"/></radialGradient><radialGradient id="falco_131" cx="0.3" cy="0.4" r="0.75"><stop offset="0.45" stop-color="#0a0418" stop-opacity="0"/><stop offset="1" stop-color="#0a0418" stop-opacity="0.38"/></radialGradient><mask id="falco_129"><rect x="-3000" y="-3000" width="6000" height="6000" fill="#fff"/><path d="M0,-10Q71.4,-22 129.8,-3L121.8,6Q64.9,14 0,10Z" fill="#000" transform="translate(-4.3 -2.1)"/></mask><g clip-path="url(#falco_127)"><path d="M0,-10Q71.4,-22 129.8,-3L121.8,6Q64.9,14 0,10Z" fill="#efecea"/><g clip-path="url(#falco_128)"><path d="M0,-10Q71.4,-22 129.8,-3L121.8,6Q64.9,14 0,10Z" fill="#9b9aa4"/><path d="M0,-10Q71.4,-22 129.8,-3L121.8,6Q64.9,14 0,10Z" fill="#64616f" transform="translate(-1.5 -0.7)"/><path d="M0,-10Q71.4,-22 129.8,-3L121.8,6Q64.9,14 0,10Z" fill="#e8e8ee" transform="translate(-5.1 -2.4)"/></g><path d="M0,-10Q71.4,-22 129.8,-3L121.8,6Q64.9,14 0,10Z" fill="url(#falco_131)"/><path d="M0,-10Q71.4,-22 129.8,-3L121.8,6Q64.9,14 0,10Z" fill="url(#falco_130)"/><g mask="url(#falco_129)"><path d="M0,-10Q71.4,-22 129.8,-3L121.8,6Q64.9,14 0,10Z" fill="url(#hatch)" transform="translate(-1.5 -0.7)"/></g></g><path d="M0,-10Q71.4,-22 129.8,-3L121.8,6Q64.9,14 0,10Z" fill="none" stroke="#120d1a" stroke-width="2.6" stroke-linejoin="round"/></g><g transform="translate(249.9 309.7) rotate(4.8)"><clipPath id="falco_132"><path d="M0,-10Q78.7,-22 143,-3L135,6Q71.5,14 0,10Z"/></clipPath><clipPath id="falco_133"><path d="M0,-10Q78.7,-22 143,-3L135,6Q71.5,14 0,10Z" transform="translate(2.8 2.4)"/></clipPath><radialGradient id="falco_135" cx="0.3" cy="0.3" r="0.62"><stop offset="0" stop-color="#fffbe8" stop-opacity="0.34"/><stop offset="1" stop-color="#fffbe8" stop-opacity="0"/></radialGradient><radialGradient id="falco_136" cx="0.3" cy="0.3" r="0.75"><stop offset="0.45" stop-color="#0a0418" stop-opacity="0"/><stop offset="1" stop-color="#0a0418" stop-opacity="0.38"/></radialGradient><mask id="falco_134"><rect x="-3000" y="-3000" width="6000" height="6000" fill="#fff"/><path d="M0,-10Q78.7,-22 143,-3L135,6Q71.5,14 0,10Z" fill="#000" transform="translate(-3.7 -3.1)"/></mask><g clip-path="url(#falco_132)"><path d="M0,-10Q78.7,-22 143,-3L135,6Q71.5,14 0,10Z" fill="#da6467"/><g clip-path="url(#falco_133)"><path d="M0,-10Q78.7,-22 143,-3L135,6Q71.5,14 0,10Z" fill="#861727"/><path d="M0,-10Q78.7,-22 143,-3L135,6Q71.5,14 0,10Z" fill="#571122" transform="translate(-1.3 -1.1)"/><path d="M0,-10Q78.7,-22 143,-3L135,6Q71.5,14 0,10Z" fill="#c8202e" transform="translate(-4.3 -3.7)"/></g><path d="M0,-10Q78.7,-22 143,-3L135,6Q71.5,14 0,10Z" fill="url(#falco_136)"/><path d="M0,-10Q78.7,-22 143,-3L135,6Q71.5,14 0,10Z" fill="url(#falco_135)"/><g mask="url(#falco_134)"><path d="M0,-10Q78.7,-22 143,-3L135,6Q71.5,14 0,10Z" fill="url(#hatch)" transform="translate(-1.3 -1.1)"/></g></g><path d="M0,-10Q78.7,-22 143,-3L135,6Q71.5,14 0,10Z" fill="none" stroke="#120d1a" stroke-width="2.6" stroke-linejoin="round"/></g><g transform="translate(249.7 304.5) rotate(-10.2)"><clipPath id="falco_137"><path d="M0,-10Q85.9,-22 156.2,-3L148.2,6Q78.1,14 0,10Z"/></clipPath><clipPath id="falco_138"><path d="M0,-10Q85.9,-22 156.2,-3L148.2,6Q78.1,14 0,10Z" transform="translate(2.1 3)"/></clipPath><radialGradient id="falco_140" cx="0.3" cy="0.2" r="0.62"><stop offset="0" stop-color="#fffbe8" stop-opacity="0.34"/><stop offset="1" stop-color="#fffbe8" stop-opacity="0"/></radialGradient><radialGradient id="falco_141" cx="0.4" cy="0.3" r="0.75"><stop offset="0.45" stop-color="#0a0418" stop-opacity="0"/><stop offset="1" stop-color="#0a0418" stop-opacity="0.38"/></radialGradient><mask id="falco_139"><rect x="-3000" y="-3000" width="6000" height="6000" fill="#fff"/><path d="M0,-10Q85.9,-22 156.2,-3L148.2,6Q78.1,14 0,10Z" fill="#000" transform="translate(-2.7 -3.9)"/></mask><g clip-path="url(#falco_137)"><path d="M0,-10Q85.9,-22 156.2,-3L148.2,6Q78.1,14 0,10Z" fill="#efecea"/><g clip-path="url(#falco_138)"><path d="M0,-10Q85.9,-22 156.2,-3L148.2,6Q78.1,14 0,10Z" fill="#9b9aa4"/><path d="M0,-10Q85.9,-22 156.2,-3L148.2,6Q78.1,14 0,10Z" fill="#64616f" transform="translate(-1 -1.4)"/><path d="M0,-10Q85.9,-22 156.2,-3L148.2,6Q78.1,14 0,10Z" fill="#e8e8ee" transform="translate(-3.2 -4.6)"/></g><path d="M0,-10Q85.9,-22 156.2,-3L148.2,6Q78.1,14 0,10Z" fill="url(#falco_141)"/><path d="M0,-10Q85.9,-22 156.2,-3L148.2,6Q78.1,14 0,10Z" fill="url(#falco_140)"/><g mask="url(#falco_139)"><path d="M0,-10Q85.9,-22 156.2,-3L148.2,6Q78.1,14 0,10Z" fill="url(#hatch)" transform="translate(-1 -1.4)"/></g></g><path d="M0,-10Q85.9,-22 156.2,-3L148.2,6Q78.1,14 0,10Z" fill="none" stroke="#120d1a" stroke-width="2.6" stroke-linejoin="round"/></g><g transform="translate(248.1 299.5) rotate(-25.2)"><clipPath id="falco_142"><path d="M0,-10Q93.2,-22 169.4,-3L161.4,6Q84.7,14 0,10Z"/></clipPath><clipPath id="falco_143"><path d="M0,-10Q93.2,-22 169.4,-3L161.4,6Q84.7,14 0,10Z" transform="translate(1.2 3.5)"/></clipPath><radialGradient id="falco_145" cx="0.4" cy="0.2" r="0.62"><stop offset="0" stop-color="#fffbe8" stop-opacity="0.34"/><stop offset="1" stop-color="#fffbe8" stop-opacity="0"/></radialGradient><radialGradient id="falco_146" cx="0.4" cy="0.3" r="0.75"><stop offset="0.45" stop-color="#0a0418" stop-opacity="0"/><stop offset="1" stop-color="#0a0418" stop-opacity="0.38"/></radialGradient><mask id="falco_144"><rect x="-3000" y="-3000" width="6000" height="6000" fill="#fff"/><path d="M0,-10Q93.2,-22 169.4,-3L161.4,6Q84.7,14 0,10Z" fill="#000" transform="translate(-1.6 -4.5)"/></mask><g clip-path="url(#falco_142)"><path d="M0,-10Q93.2,-22 169.4,-3L161.4,6Q84.7,14 0,10Z" fill="#da6467"/><g clip-path="url(#falco_143)"><path d="M0,-10Q93.2,-22 169.4,-3L161.4,6Q84.7,14 0,10Z" fill="#861727"/><path d="M0,-10Q93.2,-22 169.4,-3L161.4,6Q84.7,14 0,10Z" fill="#571122" transform="translate(-0.6 -1.6)"/><path d="M0,-10Q93.2,-22 169.4,-3L161.4,6Q84.7,14 0,10Z" fill="#c8202e" transform="translate(-1.9 -5.3)"/></g><path d="M0,-10Q93.2,-22 169.4,-3L161.4,6Q84.7,14 0,10Z" fill="url(#falco_146)"/><path d="M0,-10Q93.2,-22 169.4,-3L161.4,6Q84.7,14 0,10Z" fill="url(#falco_145)"/><g mask="url(#falco_144)"><path d="M0,-10Q93.2,-22 169.4,-3L161.4,6Q84.7,14 0,10Z" fill="url(#hatch)" transform="translate(-0.6 -1.6)"/></g></g><path d="M0,-10Q93.2,-22 169.4,-3L161.4,6Q84.7,14 0,10Z" fill="none" stroke="#120d1a" stroke-width="2.6" stroke-linejoin="round"/></g><g transform="translate(245.3 295.1) rotate(-40.1)"><clipPath id="falco_147"><path d="M0,-10Q100.4,-22 182.6,-3L174.6,6Q91.3,14 0,10Z"/></clipPath><clipPath id="falco_148"><path d="M0,-10Q100.4,-22 182.6,-3L174.6,6Q91.3,14 0,10Z" transform="translate(0.3 3.7)"/></clipPath><radialGradient id="falco_150" cx="0.5" cy="0.2" r="0.62"><stop offset="0" stop-color="#fffbe8" stop-opacity="0.34"/><stop offset="1" stop-color="#fffbe8" stop-opacity="0"/></radialGradient><radialGradient id="falco_151" cx="0.5" cy="0.3" r="0.75"><stop offset="0.45" stop-color="#0a0418" stop-opacity="0"/><stop offset="1" stop-color="#0a0418" stop-opacity="0.38"/></radialGradient><mask id="falco_149"><rect x="-3000" y="-3000" width="6000" height="6000" fill="#fff"/><path d="M0,-10Q100.4,-22 182.6,-3L174.6,6Q91.3,14 0,10Z" fill="#000" transform="translate(-0.4 -4.8)"/></mask><g clip-path="url(#falco_147)"><path d="M0,-10Q100.4,-22 182.6,-3L174.6,6Q91.3,14 0,10Z" fill="#efecea"/><g clip-path="url(#falco_148)"><path d="M0,-10Q100.4,-22 182.6,-3L174.6,6Q91.3,14 0,10Z" fill="#9b9aa4"/><path d="M0,-10Q100.4,-22 182.6,-3L174.6,6Q91.3,14 0,10Z" fill="#64616f" transform="translate(-0.1 -1.7)"/><path d="M0,-10Q100.4,-22 182.6,-3L174.6,6Q91.3,14 0,10Z" fill="#e8e8ee" transform="translate(-0.5 -5.6)"/></g><path d="M0,-10Q100.4,-22 182.6,-3L174.6,6Q91.3,14 0,10Z" fill="url(#falco_151)"/><path d="M0,-10Q100.4,-22 182.6,-3L174.6,6Q91.3,14 0,10Z" fill="url(#falco_150)"/><g mask="url(#falco_149)"><path d="M0,-10Q100.4,-22 182.6,-3L174.6,6Q91.3,14 0,10Z" fill="url(#hatch)" transform="translate(-0.1 -1.7)"/></g></g><path d="M0,-10Q100.4,-22 182.6,-3L174.6,6Q91.3,14 0,10Z" fill="none" stroke="#120d1a" stroke-width="2.6" stroke-linejoin="round"/></g><g transform="translate(241.5 291.6) rotate(-55)"><clipPath id="falco_152"><path d="M0,-10Q107.7,-22 195.8,-3L187.8,6Q97.9,14 0,10Z"/></clipPath><clipPath id="falco_153"><path d="M0,-10Q107.7,-22 195.8,-3L187.8,6Q97.9,14 0,10Z" transform="translate(-0.6 3.6)"/></clipPath><radialGradient id="falco_155" cx="0.6" cy="0.2" r="0.62"><stop offset="0" stop-color="#fffbe8" stop-opacity="0.34"/><stop offset="1" stop-color="#fffbe8" stop-opacity="0"/></radialGradient><radialGradient id="falco_156" cx="0.5" cy="0.3" r="0.75"><stop offset="0.45" stop-color="#0a0418" stop-opacity="0"/><stop offset="1" stop-color="#0a0418" stop-opacity="0.38"/></radialGradient><mask id="falco_154"><rect x="-3000" y="-3000" width="6000" height="6000" fill="#fff"/><path d="M0,-10Q107.7,-22 195.8,-3L187.8,6Q97.9,14 0,10Z" fill="#000" transform="translate(0.8 -4.7)"/></mask><g clip-path="url(#falco_152)"><path d="M0,-10Q107.7,-22 195.8,-3L187.8,6Q97.9,14 0,10Z" fill="#da6467"/><g clip-path="url(#falco_153)"><path d="M0,-10Q107.7,-22 195.8,-3L187.8,6Q97.9,14 0,10Z" fill="#861727"/><path d="M0,-10Q107.7,-22 195.8,-3L187.8,6Q97.9,14 0,10Z" fill="#571122" transform="translate(0.3 -1.7)"/><path d="M0,-10Q107.7,-22 195.8,-3L187.8,6Q97.9,14 0,10Z" fill="#c8202e" transform="translate(1 -5.6)"/></g><path d="M0,-10Q107.7,-22 195.8,-3L187.8,6Q97.9,14 0,10Z" fill="url(#falco_156)"/><path d="M0,-10Q107.7,-22 195.8,-3L187.8,6Q97.9,14 0,10Z" fill="url(#falco_155)"/><g mask="url(#falco_154)"><path d="M0,-10Q107.7,-22 195.8,-3L187.8,6Q97.9,14 0,10Z" fill="url(#hatch)" transform="translate(0.3 -1.7)"/></g></g><path d="M0,-10Q107.7,-22 195.8,-3L187.8,6Q97.9,14 0,10Z" fill="none" stroke="#120d1a" stroke-width="2.6" stroke-linejoin="round"/></g><g transform="translate(236.8 289.2) rotate(-70)"><clipPath id="falco_157"><path d="M0,-10Q115,-22 209,-3L201,6Q104.5,14 0,10Z"/></clipPath><clipPath id="falco_158"><path d="M0,-10Q115,-22 209,-3L201,6Q104.5,14 0,10Z" transform="translate(-1.6 3.3)"/></clipPath><radialGradient id="falco_160" cx="0.6" cy="0.2" r="0.62"><stop offset="0" stop-color="#fffbe8" stop-opacity="0.34"/><stop offset="1" stop-color="#fffbe8" stop-opacity="0"/></radialGradient><radialGradient id="falco_161" cx="0.6" cy="0.3" r="0.75"><stop offset="0.45" stop-color="#0a0418" stop-opacity="0"/><stop offset="1" stop-color="#0a0418" stop-opacity="0.38"/></radialGradient><mask id="falco_159"><rect x="-3000" y="-3000" width="6000" height="6000" fill="#fff"/><path d="M0,-10Q115,-22 209,-3L201,6Q104.5,14 0,10Z" fill="#000" transform="translate(2 -4.4)"/></mask><g clip-path="url(#falco_157)"><path d="M0,-10Q115,-22 209,-3L201,6Q104.5,14 0,10Z" fill="#efecea"/><g clip-path="url(#falco_158)"><path d="M0,-10Q115,-22 209,-3L201,6Q104.5,14 0,10Z" fill="#9b9aa4"/><path d="M0,-10Q115,-22 209,-3L201,6Q104.5,14 0,10Z" fill="#64616f" transform="translate(0.7 -1.5)"/><path d="M0,-10Q115,-22 209,-3L201,6Q104.5,14 0,10Z" fill="#e8e8ee" transform="translate(2.4 -5.1)"/></g><path d="M0,-10Q115,-22 209,-3L201,6Q104.5,14 0,10Z" fill="url(#falco_161)"/><path d="M0,-10Q115,-22 209,-3L201,6Q104.5,14 0,10Z" fill="url(#falco_160)"/><g mask="url(#falco_159)"><path d="M0,-10Q115,-22 209,-3L201,6Q104.5,14 0,10Z" fill="url(#hatch)" transform="translate(0.7 -1.5)"/></g></g><path d="M0,-10Q115,-22 209,-3L201,6Q104.5,14 0,10Z" fill="none" stroke="#120d1a" stroke-width="2.6" stroke-linejoin="round"/></g>
<g transform="translate(200 268)"><clipPath id="falco_40"><path d="M0,-4C8.3,-4 18.7,-28.8 27,-30C35.3,-31.2 45,-17.5 53.9,-12C62.7,-6.5 76.9,-0.5 84.6,6C92.2,12.5 100.5,22.3 103.7,30C107,37.7 107,45.8 105.7,56C104.5,66.2 101.1,83.1 95.7,96C90.4,108.9 75.2,127.8 70.8,140C66.3,152.2 66.2,156.5 66.8,175C67.4,193.5 85.1,246.6 74.8,260C64.5,273.4 23,262 0,262C-23,262 -64.5,273.4 -74.8,260C-85.1,246.6 -67.4,193.5 -66.8,175C-66.2,156.5 -66.3,152.2 -70.8,140C-75.2,127.8 -90.4,108.9 -95.7,96C-101.1,83.1 -104.5,66.2 -105.7,56C-107,45.8 -107,37.7 -103.7,30C-100.5,22.3 -92.2,12.5 -84.6,6C-76.9,-0.5 -62.7,-6.5 -53.9,-12C-45,-17.5 -35.3,-31.2 -27,-30C-18.7,-28.8 -8.3,-4 0,-4Z"/></clipPath><clipPath id="falco_41"><path d="M0,-4C8.3,-4 18.7,-28.8 27,-30C35.3,-31.2 45,-17.5 53.9,-12C62.7,-6.5 76.9,-0.5 84.6,6C92.2,12.5 100.5,22.3 103.7,30C107,37.7 107,45.8 105.7,56C104.5,66.2 101.1,83.1 95.7,96C90.4,108.9 75.2,127.8 70.8,140C66.3,152.2 66.2,156.5 66.8,175C67.4,193.5 85.1,246.6 74.8,260C64.5,273.4 23,262 0,262C-23,262 -64.5,273.4 -74.8,260C-85.1,246.6 -67.4,193.5 -66.8,175C-66.2,156.5 -66.3,152.2 -70.8,140C-75.2,127.8 -90.4,108.9 -95.7,96C-101.1,83.1 -104.5,66.2 -105.7,56C-107,45.8 -107,37.7 -103.7,30C-100.5,22.3 -92.2,12.5 -84.6,6C-76.9,-0.5 -62.7,-6.5 -53.9,-12C-45,-17.5 -35.3,-31.2 -27,-30C-18.7,-28.8 -8.3,-4 0,-4Z" transform="translate(3 3)"/></clipPath><radialGradient id="falco_43" cx="0.3" cy="0.3" r="0.62"><stop offset="0" stop-color="#fffbe8" stop-opacity="0.34"/><stop offset="1" stop-color="#fffbe8" stop-opacity="0"/></radialGradient><radialGradient id="falco_44" cx="0.3" cy="0.3" r="0.75"><stop offset="0.45" stop-color="#0a0418" stop-opacity="0"/><stop offset="1" stop-color="#0a0418" stop-opacity="0.38"/></radialGradient><mask id="falco_42"><rect x="-3000" y="-3000" width="6000" height="6000" fill="#fff"/><path d="M0,-4C8.3,-4 18.7,-28.8 27,-30C35.3,-31.2 45,-17.5 53.9,-12C62.7,-6.5 76.9,-0.5 84.6,6C92.2,12.5 100.5,22.3 103.7,30C107,37.7 107,45.8 105.7,56C104.5,66.2 101.1,83.1 95.7,96C90.4,108.9 75.2,127.8 70.8,140C66.3,152.2 66.2,156.5 66.8,175C67.4,193.5 85.1,246.6 74.8,260C64.5,273.4 23,262 0,262C-23,262 -64.5,273.4 -74.8,260C-85.1,246.6 -67.4,193.5 -66.8,175C-66.2,156.5 -66.3,152.2 -70.8,140C-75.2,127.8 -90.4,108.9 -95.7,96C-101.1,83.1 -104.5,66.2 -105.7,56C-107,45.8 -107,37.7 -103.7,30C-100.5,22.3 -92.2,12.5 -84.6,6C-76.9,-0.5 -62.7,-6.5 -53.9,-12C-45,-17.5 -35.3,-31.2 -27,-30C-18.7,-28.8 -8.3,-4 0,-4Z" fill="#000" transform="translate(-13.6 -13.6)"/></mask><g clip-path="url(#falco_40)"><path d="M0,-4C8.3,-4 18.7,-28.8 27,-30C35.3,-31.2 45,-17.5 53.9,-12C62.7,-6.5 76.9,-0.5 84.6,6C92.2,12.5 100.5,22.3 103.7,30C107,37.7 107,45.8 105.7,56C104.5,66.2 101.1,83.1 95.7,96C90.4,108.9 75.2,127.8 70.8,140C66.3,152.2 66.2,156.5 66.8,175C67.4,193.5 85.1,246.6 74.8,260C64.5,273.4 23,262 0,262C-23,262 -64.5,273.4 -74.8,260C-85.1,246.6 -67.4,193.5 -66.8,175C-66.2,156.5 -66.3,152.2 -70.8,140C-75.2,127.8 -90.4,108.9 -95.7,96C-101.1,83.1 -104.5,66.2 -105.7,56C-107,45.8 -107,37.7 -103.7,30C-100.5,22.3 -92.2,12.5 -84.6,6C-76.9,-0.5 -62.7,-6.5 -53.9,-12C-45,-17.5 -35.3,-31.2 -27,-30C-18.7,-28.8 -8.3,-4 0,-4Z" fill="#da6467"/><g clip-path="url(#falco_41)"><path d="M0,-4C8.3,-4 18.7,-28.8 27,-30C35.3,-31.2 45,-17.5 53.9,-12C62.7,-6.5 76.9,-0.5 84.6,6C92.2,12.5 100.5,22.3 103.7,30C107,37.7 107,45.8 105.7,56C104.5,66.2 101.1,83.1 95.7,96C90.4,108.9 75.2,127.8 70.8,140C66.3,152.2 66.2,156.5 66.8,175C67.4,193.5 85.1,246.6 74.8,260C64.5,273.4 23,262 0,262C-23,262 -64.5,273.4 -74.8,260C-85.1,246.6 -67.4,193.5 -66.8,175C-66.2,156.5 -66.3,152.2 -70.8,140C-75.2,127.8 -90.4,108.9 -95.7,96C-101.1,83.1 -104.5,66.2 -105.7,56C-107,45.8 -107,37.7 -103.7,30C-100.5,22.3 -92.2,12.5 -84.6,6C-76.9,-0.5 -62.7,-6.5 -53.9,-12C-45,-17.5 -35.3,-31.2 -27,-30C-18.7,-28.8 -8.3,-4 0,-4Z" fill="#861727"/><path d="M0,-4C8.3,-4 18.7,-28.8 27,-30C35.3,-31.2 45,-17.5 53.9,-12C62.7,-6.5 76.9,-0.5 84.6,6C92.2,12.5 100.5,22.3 103.7,30C107,37.7 107,45.8 105.7,56C104.5,66.2 101.1,83.1 95.7,96C90.4,108.9 75.2,127.8 70.8,140C66.3,152.2 66.2,156.5 66.8,175C67.4,193.5 85.1,246.6 74.8,260C64.5,273.4 23,262 0,262C-23,262 -64.5,273.4 -74.8,260C-85.1,246.6 -67.4,193.5 -66.8,175C-66.2,156.5 -66.3,152.2 -70.8,140C-75.2,127.8 -90.4,108.9 -95.7,96C-101.1,83.1 -104.5,66.2 -105.7,56C-107,45.8 -107,37.7 -103.7,30C-100.5,22.3 -92.2,12.5 -84.6,6C-76.9,-0.5 -62.7,-6.5 -53.9,-12C-45,-17.5 -35.3,-31.2 -27,-30C-18.7,-28.8 -8.3,-4 0,-4Z" fill="#571122" transform="translate(-4.8 -4.8)"/><path d="M0,-4C8.3,-4 18.7,-28.8 27,-30C35.3,-31.2 45,-17.5 53.9,-12C62.7,-6.5 76.9,-0.5 84.6,6C92.2,12.5 100.5,22.3 103.7,30C107,37.7 107,45.8 105.7,56C104.5,66.2 101.1,83.1 95.7,96C90.4,108.9 75.2,127.8 70.8,140C66.3,152.2 66.2,156.5 66.8,175C67.4,193.5 85.1,246.6 74.8,260C64.5,273.4 23,262 0,262C-23,262 -64.5,273.4 -74.8,260C-85.1,246.6 -67.4,193.5 -66.8,175C-66.2,156.5 -66.3,152.2 -70.8,140C-75.2,127.8 -90.4,108.9 -95.7,96C-101.1,83.1 -104.5,66.2 -105.7,56C-107,45.8 -107,37.7 -103.7,30C-100.5,22.3 -92.2,12.5 -84.6,6C-76.9,-0.5 -62.7,-6.5 -53.9,-12C-45,-17.5 -35.3,-31.2 -27,-30C-18.7,-28.8 -8.3,-4 0,-4Z" fill="#c8202e" transform="translate(-16 -16)"/></g><path d="M-60,0L0,60L60,0L60,30L0,100L-60,30Z" fill="#e8e8ee" stroke="#120d1a" stroke-width="2.4"/><path d="M-74.7,48Q-36.3,92 -4,76M74.7,48Q36.3,92 4,76M0,40V82" fill="none" stroke="#120d1a" stroke-width="2.2" stroke-linecap="round" stroke-linejoin="round" opacity="0.4"/><path d="M0,90V190M-24,112Q-12,116 -2,112M2,112Q12,116 24,112M-24,136Q-12,140 -2,136M2,136Q12,140 24,136M-24,160Q-12,164 -2,160M2,160Q12,164 24,160M-60.1,120Q-50.8,150 -56.1,180M60.1,120Q50.8,150 56.1,180" fill="none" stroke="#120d1a" stroke-width="2" stroke-linecap="round" stroke-linejoin="round" opacity="0.35"/><path d="M-60,140H60" fill="none" stroke="#2a2a32" stroke-width="6" stroke-linecap="round" stroke-linejoin="round" /><ellipse cx="-46.7" cy="-2" rx="29" ry="9" fill="#da6467" opacity="0.45" filter="url(#soft)"/><ellipse cx="51.9" cy="4" rx="27" ry="10" fill="#571122" opacity="0.4" filter="url(#soft)"/><ellipse cx="-36.3" cy="92" rx="33.2" ry="9" fill="#571122" opacity="0.45" filter="url(#soft)"/><ellipse cx="39.4" cy="94" rx="33.2" ry="10" fill="#571122" opacity="0.6" filter="url(#soft)"/><ellipse cx="-39.4" cy="58" rx="22.8" ry="14" fill="#da6467" opacity="0.35" filter="url(#soft)"/><ellipse cx="85.1" cy="130" rx="16" ry="60" fill="#571122" opacity="0.5" filter="url(#soft)"/><ellipse cx="-83" cy="130" rx="12" ry="50" fill="#571122" opacity="0.3" filter="url(#soft)"/><path d="M0,-4C8.3,-4 18.7,-28.8 27,-30C35.3,-31.2 45,-17.5 53.9,-12C62.7,-6.5 76.9,-0.5 84.6,6C92.2,12.5 100.5,22.3 103.7,30C107,37.7 107,45.8 105.7,56C104.5,66.2 101.1,83.1 95.7,96C90.4,108.9 75.2,127.8 70.8,140C66.3,152.2 66.2,156.5 66.8,175C67.4,193.5 85.1,246.6 74.8,260C64.5,273.4 23,262 0,262C-23,262 -64.5,273.4 -74.8,260C-85.1,246.6 -67.4,193.5 -66.8,175C-66.2,156.5 -66.3,152.2 -70.8,140C-75.2,127.8 -90.4,108.9 -95.7,96C-101.1,83.1 -104.5,66.2 -105.7,56C-107,45.8 -107,37.7 -103.7,30C-100.5,22.3 -92.2,12.5 -84.6,6C-76.9,-0.5 -62.7,-6.5 -53.9,-12C-45,-17.5 -35.3,-31.2 -27,-30C-18.7,-28.8 -8.3,-4 0,-4Z" fill="url(#falco_44)"/><path d="M0,-4C8.3,-4 18.7,-28.8 27,-30C35.3,-31.2 45,-17.5 53.9,-12C62.7,-6.5 76.9,-0.5 84.6,6C92.2,12.5 100.5,22.3 103.7,30C107,37.7 107,45.8 105.7,56C104.5,66.2 101.1,83.1 95.7,96C90.4,108.9 75.2,127.8 70.8,140C66.3,152.2 66.2,156.5 66.8,175C67.4,193.5 85.1,246.6 74.8,260C64.5,273.4 23,262 0,262C-23,262 -64.5,273.4 -74.8,260C-85.1,246.6 -67.4,193.5 -66.8,175C-66.2,156.5 -66.3,152.2 -70.8,140C-75.2,127.8 -90.4,108.9 -95.7,96C-101.1,83.1 -104.5,66.2 -105.7,56C-107,45.8 -107,37.7 -103.7,30C-100.5,22.3 -92.2,12.5 -84.6,6C-76.9,-0.5 -62.7,-6.5 -53.9,-12C-45,-17.5 -35.3,-31.2 -27,-30C-18.7,-28.8 -8.3,-4 0,-4Z" fill="url(#falco_43)"/><g mask="url(#falco_42)"><path d="M0,-4C8.3,-4 18.7,-28.8 27,-30C35.3,-31.2 45,-17.5 53.9,-12C62.7,-6.5 76.9,-0.5 84.6,6C92.2,12.5 100.5,22.3 103.7,30C107,37.7 107,45.8 105.7,56C104.5,66.2 101.1,83.1 95.7,96C90.4,108.9 75.2,127.8 70.8,140C66.3,152.2 66.2,156.5 66.8,175C67.4,193.5 85.1,246.6 74.8,260C64.5,273.4 23,262 0,262C-23,262 -64.5,273.4 -74.8,260C-85.1,246.6 -67.4,193.5 -66.8,175C-66.2,156.5 -66.3,152.2 -70.8,140C-75.2,127.8 -90.4,108.9 -95.7,96C-101.1,83.1 -104.5,66.2 -105.7,56C-107,45.8 -107,37.7 -103.7,30C-100.5,22.3 -92.2,12.5 -84.6,6C-76.9,-0.5 -62.7,-6.5 -53.9,-12C-45,-17.5 -35.3,-31.2 -27,-30C-18.7,-28.8 -8.3,-4 0,-4Z" fill="url(#hatch)" transform="translate(-4.8 -4.8)"/></g></g><path d="M0,-4C8.3,-4 18.7,-28.8 27,-30C35.3,-31.2 45,-17.5 53.9,-12C62.7,-6.5 76.9,-0.5 84.6,6C92.2,12.5 100.5,22.3 103.7,30C107,37.7 107,45.8 105.7,56C104.5,66.2 101.1,83.1 95.7,96C90.4,108.9 75.2,127.8 70.8,140C66.3,152.2 66.2,156.5 66.8,175C67.4,193.5 85.1,246.6 74.8,260C64.5,273.4 23,262 0,262C-23,262 -64.5,273.4 -74.8,260C-85.1,246.6 -67.4,193.5 -66.8,175C-66.2,156.5 -66.3,152.2 -70.8,140C-75.2,127.8 -90.4,108.9 -95.7,96C-101.1,83.1 -104.5,66.2 -105.7,56C-107,45.8 -107,37.7 -103.7,30C-100.5,22.3 -92.2,12.5 -84.6,6C-76.9,-0.5 -62.7,-6.5 -53.9,-12C-45,-17.5 -35.3,-31.2 -27,-30C-18.7,-28.8 -8.3,-4 0,-4Z" fill="none" stroke="#120d1a" stroke-width="3.2" stroke-linejoin="round"/></g><g transform="translate(121 298) rotate(160)"><clipPath id="falco_0"><path d="M2.8,-28.9Q38.5,-29.4 74.1,-21.9A22,22 0 0 1 74.1,21.9Q38.5,27.4 2.8,28.9A29,29 0 1 1 2.8,-28.9Z"/></clipPath><clipPath id="falco_1"><path d="M2.8,-28.9Q38.5,-29.4 74.1,-21.9A22,22 0 0 1 74.1,21.9Q38.5,27.4 2.8,28.9A29,29 0 1 1 2.8,-28.9Z" transform="translate(-1.6 -3.3)"/></clipPath><radialGradient id="falco_3" cx="0.6" cy="0.8" r="0.62"><stop offset="0" stop-color="#fffbe8" stop-opacity="0.34"/><stop offset="1" stop-color="#fffbe8" stop-opacity="0"/></radialGradient><radialGradient id="falco_4" cx="0.6" cy="0.7" r="0.75"><stop offset="0.45" stop-color="#0a0418" stop-opacity="0"/><stop offset="1" stop-color="#0a0418" stop-opacity="0.38"/></radialGradient><mask id="falco_2"><rect x="-3000" y="-3000" width="6000" height="6000" fill="#fff"/><path d="M2.8,-28.9Q38.5,-29.4 74.1,-21.9A22,22 0 0 1 74.1,21.9Q38.5,27.4 2.8,28.9A29,29 0 1 1 2.8,-28.9Z" fill="#000" transform="translate(5.6 12)"/></mask><g clip-path="url(#falco_0)"><path d="M2.8,-28.9Q38.5,-29.4 74.1,-21.9A22,22 0 0 1 74.1,21.9Q38.5,27.4 2.8,28.9A29,29 0 1 1 2.8,-28.9Z" fill="#6e6b6a"/><g clip-path="url(#falco_1)"><path d="M2.8,-28.9Q38.5,-29.4 74.1,-21.9A22,22 0 0 1 74.1,21.9Q38.5,27.4 2.8,28.9A29,29 0 1 1 2.8,-28.9Z" fill="#201e2a"/><path d="M2.8,-28.9Q38.5,-29.4 74.1,-21.9A22,22 0 0 1 74.1,21.9Q38.5,27.4 2.8,28.9A29,29 0 1 1 2.8,-28.9Z" fill="#181524" transform="translate(2 4.2)"/><path d="M2.8,-28.9Q38.5,-29.4 74.1,-21.9A22,22 0 0 1 74.1,21.9Q38.5,27.4 2.8,28.9A29,29 0 1 1 2.8,-28.9Z" fill="#2a2a32" transform="translate(6.6 14.1)"/></g><path d="M2.8,-28.9Q38.5,-29.4 74.1,-21.9A22,22 0 0 1 74.1,21.9Q38.5,27.4 2.8,28.9A29,29 0 1 1 2.8,-28.9Z" fill="url(#falco_4)"/><path d="M2.8,-28.9Q38.5,-29.4 74.1,-21.9A22,22 0 0 1 74.1,21.9Q38.5,27.4 2.8,28.9A29,29 0 1 1 2.8,-28.9Z" fill="url(#falco_3)"/><g mask="url(#falco_2)"><path d="M2.8,-28.9Q38.5,-29.4 74.1,-21.9A22,22 0 0 1 74.1,21.9Q38.5,27.4 2.8,28.9A29,29 0 1 1 2.8,-28.9Z" fill="url(#hatch)" transform="translate(2 4.2)"/></g></g><path d="M2.8,-28.9Q38.5,-29.4 74.1,-21.9A22,22 0 0 1 74.1,21.9Q38.5,27.4 2.8,28.9A29,29 0 1 1 2.8,-28.9Z" fill="none" stroke="#120d1a" stroke-width="3.2" stroke-linejoin="round"/></g><g transform="translate(53.3 322.6) rotate(-160)"><clipPath id="falco_5"><path d="M1.6,-20.8Q32.4,-21.5 63.2,-16.2A16.2,16.2 0 0 1 63.2,16.2Q32.4,20.5 1.6,20.8A20.9,20.9 0 1 1 1.6,-20.8Z"/></clipPath><clipPath id="falco_6"><path d="M1.6,-20.8Q32.4,-21.5 63.2,-16.2A16.2,16.2 0 0 1 63.2,16.2Q32.4,20.5 1.6,20.8A20.9,20.9 0 1 1 1.6,-20.8Z" transform="translate(-3.3 -1.6)"/></clipPath><radialGradient id="falco_8" cx="0.8" cy="0.6" r="0.62"><stop offset="0" stop-color="#fffbe8" stop-opacity="0.34"/><stop offset="1" stop-color="#fffbe8" stop-opacity="0"/></radialGradient><radialGradient id="falco_9" cx="0.7" cy="0.6" r="0.75"><stop offset="0.45" stop-color="#0a0418" stop-opacity="0"/><stop offset="1" stop-color="#0a0418" stop-opacity="0.38"/></radialGradient><mask id="falco_7"><rect x="-3000" y="-3000" width="6000" height="6000" fill="#fff"/><path d="M1.6,-20.8Q32.4,-21.5 63.2,-16.2A16.2,16.2 0 0 1 63.2,16.2Q32.4,20.5 1.6,20.8A20.9,20.9 0 1 1 1.6,-20.8Z" fill="#000" transform="translate(8.6 4)"/></mask><g clip-path="url(#falco_5)"><path d="M1.6,-20.8Q32.4,-21.5 63.2,-16.2A16.2,16.2 0 0 1 63.2,16.2Q32.4,20.5 1.6,20.8A20.9,20.9 0 1 1 1.6,-20.8Z" fill="#da6467"/><g clip-path="url(#falco_6)"><path d="M1.6,-20.8Q32.4,-21.5 63.2,-16.2A16.2,16.2 0 0 1 63.2,16.2Q32.4,20.5 1.6,20.8A20.9,20.9 0 1 1 1.6,-20.8Z" fill="#861727"/><path d="M1.6,-20.8Q32.4,-21.5 63.2,-16.2A16.2,16.2 0 0 1 63.2,16.2Q32.4,20.5 1.6,20.8A20.9,20.9 0 1 1 1.6,-20.8Z" fill="#571122" transform="translate(3.1 1.4)"/><path d="M1.6,-20.8Q32.4,-21.5 63.2,-16.2A16.2,16.2 0 0 1 63.2,16.2Q32.4,20.5 1.6,20.8A20.9,20.9 0 1 1 1.6,-20.8Z" fill="#c8202e" transform="translate(10.2 4.7)"/></g><path d="M1.6,-20.8Q32.4,-21.5 63.2,-16.2A16.2,16.2 0 0 1 63.2,16.2Q32.4,20.5 1.6,20.8A20.9,20.9 0 1 1 1.6,-20.8Z" fill="url(#falco_9)"/><path d="M1.6,-20.8Q32.4,-21.5 63.2,-16.2A16.2,16.2 0 0 1 63.2,16.2Q32.4,20.5 1.6,20.8A20.9,20.9 0 1 1 1.6,-20.8Z" fill="url(#falco_8)"/><g mask="url(#falco_7)"><path d="M1.6,-20.8Q32.4,-21.5 63.2,-16.2A16.2,16.2 0 0 1 63.2,16.2Q32.4,20.5 1.6,20.8A20.9,20.9 0 1 1 1.6,-20.8Z" fill="url(#hatch)" transform="translate(3.1 1.4)"/></g></g><path d="M1.6,-20.8Q32.4,-21.5 63.2,-16.2A16.2,16.2 0 0 1 63.2,16.2Q32.4,20.5 1.6,20.8A20.9,20.9 0 1 1 1.6,-20.8Z" fill="none" stroke="#120d1a" stroke-width="3.2" stroke-linejoin="round"/></g><g transform="translate(-4.9 301.4) rotate(200)"><g transform="scale(1.566)"><clipPath id="falco_10"><path d="M0,-12C2.7,-13.3 9.5,-14 14,-14C18.5,-14 24.2,-14 27,-12C29.8,-10 30.5,-5.7 31,-2C31.5,1.7 31.5,7.3 30,10C28.5,12.7 26,13.5 22,14C18,14.5 10,14.3 6,13C2,11.7 -0.7,9.2 -2,6C-3.3,2.8 -2.3,-3 -2,-6C-1.7,-9 -2.7,-10.7 0,-12Z"/></clipPath><clipPath id="falco_11"><path d="M0,-12C2.7,-13.3 9.5,-14 14,-14C18.5,-14 24.2,-14 27,-12C29.8,-10 30.5,-5.7 31,-2C31.5,1.7 31.5,7.3 30,10C28.5,12.7 26,13.5 22,14C18,14.5 10,14.3 6,13C2,11.7 -0.7,9.2 -2,6C-3.3,2.8 -2.3,-3 -2,-6C-1.7,-9 -2.7,-10.7 0,-12Z" transform="translate(-3.3 -1.6)"/></clipPath><radialGradient id="falco_13" cx="0.8" cy="0.6" r="0.62"><stop offset="0" stop-color="#fffbe8" stop-opacity="0.34"/><stop offset="1" stop-color="#fffbe8" stop-opacity="0"/></radialGradient><radialGradient id="falco_14" cx="0.7" cy="0.6" r="0.75"><stop offset="0.45" stop-color="#0a0418" stop-opacity="0"/><stop offset="1" stop-color="#0a0418" stop-opacity="0.38"/></radialGradient><mask id="falco_12"><rect x="-3000" y="-3000" width="6000" height="6000" fill="#fff"/><path d="M0,-12C2.7,-13.3 9.5,-14 14,-14C18.5,-14 24.2,-14 27,-12C29.8,-10 30.5,-5.7 31,-2C31.5,1.7 31.5,7.3 30,10C28.5,12.7 26,13.5 22,14C18,14.5 10,14.3 6,13C2,11.7 -0.7,9.2 -2,6C-3.3,2.8 -2.3,-3 -2,-6C-1.7,-9 -2.7,-10.7 0,-12Z" fill="#000" transform="translate(4.4 2)"/></mask><g clip-path="url(#falco_10)"><path d="M0,-12C2.7,-13.3 9.5,-14 14,-14C18.5,-14 24.2,-14 27,-12C29.8,-10 30.5,-5.7 31,-2C31.5,1.7 31.5,7.3 30,10C28.5,12.7 26,13.5 22,14C18,14.5 10,14.3 6,13C2,11.7 -0.7,9.2 -2,6C-3.3,2.8 -2.3,-3 -2,-6C-1.7,-9 -2.7,-10.7 0,-12Z" fill="#6e6b6a"/><g clip-path="url(#falco_11)"><path d="M0,-12C2.7,-13.3 9.5,-14 14,-14C18.5,-14 24.2,-14 27,-12C29.8,-10 30.5,-5.7 31,-2C31.5,1.7 31.5,7.3 30,10C28.5,12.7 26,13.5 22,14C18,14.5 10,14.3 6,13C2,11.7 -0.7,9.2 -2,6C-3.3,2.8 -2.3,-3 -2,-6C-1.7,-9 -2.7,-10.7 0,-12Z" fill="#201e2a"/><path d="M0,-12C2.7,-13.3 9.5,-14 14,-14C18.5,-14 24.2,-14 27,-12C29.8,-10 30.5,-5.7 31,-2C31.5,1.7 31.5,7.3 30,10C28.5,12.7 26,13.5 22,14C18,14.5 10,14.3 6,13C2,11.7 -0.7,9.2 -2,6C-3.3,2.8 -2.3,-3 -2,-6C-1.7,-9 -2.7,-10.7 0,-12Z" fill="#181524" transform="translate(1.5 0.7)"/><path d="M0,-12C2.7,-13.3 9.5,-14 14,-14C18.5,-14 24.2,-14 27,-12C29.8,-10 30.5,-5.7 31,-2C31.5,1.7 31.5,7.3 30,10C28.5,12.7 26,13.5 22,14C18,14.5 10,14.3 6,13C2,11.7 -0.7,9.2 -2,6C-3.3,2.8 -2.3,-3 -2,-6C-1.7,-9 -2.7,-10.7 0,-12Z" fill="#2a2a32" transform="translate(5.1 2.4)"/></g><path d="M0,-12C2.7,-13.3 9.5,-14 14,-14C18.5,-14 24.2,-14 27,-12C29.8,-10 30.5,-5.7 31,-2C31.5,1.7 31.5,7.3 30,10C28.5,12.7 26,13.5 22,14C18,14.5 10,14.3 6,13C2,11.7 -0.7,9.2 -2,6C-3.3,2.8 -2.3,-3 -2,-6C-1.7,-9 -2.7,-10.7 0,-12Z" fill="url(#falco_14)"/><path d="M0,-12C2.7,-13.3 9.5,-14 14,-14C18.5,-14 24.2,-14 27,-12C29.8,-10 30.5,-5.7 31,-2C31.5,1.7 31.5,7.3 30,10C28.5,12.7 26,13.5 22,14C18,14.5 10,14.3 6,13C2,11.7 -0.7,9.2 -2,6C-3.3,2.8 -2.3,-3 -2,-6C-1.7,-9 -2.7,-10.7 0,-12Z" fill="url(#falco_13)"/><g mask="url(#falco_12)"><path d="M0,-12C2.7,-13.3 9.5,-14 14,-14C18.5,-14 24.2,-14 27,-12C29.8,-10 30.5,-5.7 31,-2C31.5,1.7 31.5,7.3 30,10C28.5,12.7 26,13.5 22,14C18,14.5 10,14.3 6,13C2,11.7 -0.7,9.2 -2,6C-3.3,2.8 -2.3,-3 -2,-6C-1.7,-9 -2.7,-10.7 0,-12Z" fill="url(#hatch)" transform="translate(1.5 0.7)"/></g></g><path d="M0,-12C2.7,-13.3 9.5,-14 14,-14C18.5,-14 24.2,-14 27,-12C29.8,-10 30.5,-5.7 31,-2C31.5,1.7 31.5,7.3 30,10C28.5,12.7 26,13.5 22,14C18,14.5 10,14.3 6,13C2,11.7 -0.7,9.2 -2,6C-3.3,2.8 -2.3,-3 -2,-6C-1.7,-9 -2.7,-10.7 0,-12Z" fill="none" stroke="#120d1a" stroke-width="2.6" stroke-linejoin="round"/><path d="M24,-11Q30,-2 26,12" fill="none" stroke="#120d1a" stroke-width="2.2" stroke-linecap="round" stroke-linejoin="round" /><path d="M16,-6L27,-6M16,0L29,1M16,6L27,7" fill="none" stroke="#120d1a" stroke-width="1.8" stroke-linecap="round" stroke-linejoin="round" /><clipPath id="falco_15"><path d="M4,-9C5.7,-10.7 11,-13.5 14,-14C17,-14.5 21,-13.3 22,-12C23,-10.7 22,-7.3 20,-6C18,-4.7 12.7,-4.3 10,-4C7.3,-3.7 5,-3.2 4,-4C3,-4.8 2.3,-7.3 4,-9Z"/></clipPath><clipPath id="falco_16"><path d="M4,-9C5.7,-10.7 11,-13.5 14,-14C17,-14.5 21,-13.3 22,-12C23,-10.7 22,-7.3 20,-6C18,-4.7 12.7,-4.3 10,-4C7.3,-3.7 5,-3.2 4,-4C3,-4.8 2.3,-7.3 4,-9Z" transform="translate(-3.3 -1.6)"/></clipPath><radialGradient id="falco_18" cx="0.8" cy="0.6" r="0.62"><stop offset="0" stop-color="#fffbe8" stop-opacity="0.34"/><stop offset="1" stop-color="#fffbe8" stop-opacity="0"/></radialGradient><radialGradient id="falco_19" cx="0.7" cy="0.6" r="0.75"><stop offset="0.45" stop-color="#0a0418" stop-opacity="0"/><stop offset="1" stop-color="#0a0418" stop-opacity="0.38"/></radialGradient><g clip-path="url(#falco_15)"><path d="M4,-9C5.7,-10.7 11,-13.5 14,-14C17,-14.5 21,-13.3 22,-12C23,-10.7 22,-7.3 20,-6C18,-4.7 12.7,-4.3 10,-4C7.3,-3.7 5,-3.2 4,-4C3,-4.8 2.3,-7.3 4,-9Z" fill="#6e6b6a"/><g clip-path="url(#falco_16)"><path d="M4,-9C5.7,-10.7 11,-13.5 14,-14C17,-14.5 21,-13.3 22,-12C23,-10.7 22,-7.3 20,-6C18,-4.7 12.7,-4.3 10,-4C7.3,-3.7 5,-3.2 4,-4C3,-4.8 2.3,-7.3 4,-9Z" fill="#201e2a"/><path d="M4,-9C5.7,-10.7 11,-13.5 14,-14C17,-14.5 21,-13.3 22,-12C23,-10.7 22,-7.3 20,-6C18,-4.7 12.7,-4.3 10,-4C7.3,-3.7 5,-3.2 4,-4C3,-4.8 2.3,-7.3 4,-9Z" fill="#181524" transform="translate(0.8 0.4)"/><path d="M4,-9C5.7,-10.7 11,-13.5 14,-14C17,-14.5 21,-13.3 22,-12C23,-10.7 22,-7.3 20,-6C18,-4.7 12.7,-4.3 10,-4C7.3,-3.7 5,-3.2 4,-4C3,-4.8 2.3,-7.3 4,-9Z" fill="#2a2a32" transform="translate(2.6 1.2)"/></g><path d="M4,-9C5.7,-10.7 11,-13.5 14,-14C17,-14.5 21,-13.3 22,-12C23,-10.7 22,-7.3 20,-6C18,-4.7 12.7,-4.3 10,-4C7.3,-3.7 5,-3.2 4,-4C3,-4.8 2.3,-7.3 4,-9Z" fill="url(#falco_19)"/><path d="M4,-9C5.7,-10.7 11,-13.5 14,-14C17,-14.5 21,-13.3 22,-12C23,-10.7 22,-7.3 20,-6C18,-4.7 12.7,-4.3 10,-4C7.3,-3.7 5,-3.2 4,-4C3,-4.8 2.3,-7.3 4,-9Z" fill="url(#falco_18)"/></g><path d="M4,-9C5.7,-10.7 11,-13.5 14,-14C17,-14.5 21,-13.3 22,-12C23,-10.7 22,-7.3 20,-6C18,-4.7 12.7,-4.3 10,-4C7.3,-3.7 5,-3.2 4,-4C3,-4.8 2.3,-7.3 4,-9Z" fill="none" stroke="#120d1a" stroke-width="2.6" stroke-linejoin="round"/></g></g><g transform="translate(279 298) rotate(20)"><clipPath id="falco_20"><path d="M2.8,-28.9Q38.5,-29.4 74.1,-21.9A22,22 0 0 1 74.1,21.9Q38.5,27.4 2.8,28.9A29,29 0 1 1 2.8,-28.9Z"/></clipPath><clipPath id="falco_21"><path d="M2.8,-28.9Q38.5,-29.4 74.1,-21.9A22,22 0 0 1 74.1,21.9Q38.5,27.4 2.8,28.9A29,29 0 1 1 2.8,-28.9Z" transform="translate(3.3 1.6)"/></clipPath><radialGradient id="falco_23" cx="0.2" cy="0.4" r="0.62"><stop offset="0" stop-color="#fffbe8" stop-opacity="0.34"/><stop offset="1" stop-color="#fffbe8" stop-opacity="0"/></radialGradient><radialGradient id="falco_24" cx="0.3" cy="0.4" r="0.75"><stop offset="0.45" stop-color="#0a0418" stop-opacity="0"/><stop offset="1" stop-color="#0a0418" stop-opacity="0.38"/></radialGradient><mask id="falco_22"><rect x="-3000" y="-3000" width="6000" height="6000" fill="#fff"/><path d="M2.8,-28.9Q38.5,-29.4 74.1,-21.9A22,22 0 0 1 74.1,21.9Q38.5,27.4 2.8,28.9A29,29 0 1 1 2.8,-28.9Z" fill="#000" transform="translate(-12 -5.6)"/></mask><g clip-path="url(#falco_20)"><path d="M2.8,-28.9Q38.5,-29.4 74.1,-21.9A22,22 0 0 1 74.1,21.9Q38.5,27.4 2.8,28.9A29,29 0 1 1 2.8,-28.9Z" fill="#6e6b6a"/><g clip-path="url(#falco_21)"><path d="M2.8,-28.9Q38.5,-29.4 74.1,-21.9A22,22 0 0 1 74.1,21.9Q38.5,27.4 2.8,28.9A29,29 0 1 1 2.8,-28.9Z" fill="#201e2a"/><path d="M2.8,-28.9Q38.5,-29.4 74.1,-21.9A22,22 0 0 1 74.1,21.9Q38.5,27.4 2.8,28.9A29,29 0 1 1 2.8,-28.9Z" fill="#181524" transform="translate(-4.2 -2)"/><path d="M2.8,-28.9Q38.5,-29.4 74.1,-21.9A22,22 0 0 1 74.1,21.9Q38.5,27.4 2.8,28.9A29,29 0 1 1 2.8,-28.9Z" fill="#2a2a32" transform="translate(-14.1 -6.6)"/></g><path d="M2.8,-28.9Q38.5,-29.4 74.1,-21.9A22,22 0 0 1 74.1,21.9Q38.5,27.4 2.8,28.9A29,29 0 1 1 2.8,-28.9Z" fill="url(#falco_24)"/><path d="M2.8,-28.9Q38.5,-29.4 74.1,-21.9A22,22 0 0 1 74.1,21.9Q38.5,27.4 2.8,28.9A29,29 0 1 1 2.8,-28.9Z" fill="url(#falco_23)"/><g mask="url(#falco_22)"><path d="M2.8,-28.9Q38.5,-29.4 74.1,-21.9A22,22 0 0 1 74.1,21.9Q38.5,27.4 2.8,28.9A29,29 0 1 1 2.8,-28.9Z" fill="url(#hatch)" transform="translate(-4.2 -2)"/></g></g><path d="M2.8,-28.9Q38.5,-29.4 74.1,-21.9A22,22 0 0 1 74.1,21.9Q38.5,27.4 2.8,28.9A29,29 0 1 1 2.8,-28.9Z" fill="none" stroke="#120d1a" stroke-width="3.2" stroke-linejoin="round"/></g><g transform="translate(346.7 322.6) rotate(-20)"><clipPath id="falco_25"><path d="M1.6,-20.8Q32.4,-21.5 63.2,-16.2A16.2,16.2 0 0 1 63.2,16.2Q32.4,20.5 1.6,20.8A20.9,20.9 0 1 1 1.6,-20.8Z"/></clipPath><clipPath id="falco_26"><path d="M1.6,-20.8Q32.4,-21.5 63.2,-16.2A16.2,16.2 0 0 1 63.2,16.2Q32.4,20.5 1.6,20.8A20.9,20.9 0 1 1 1.6,-20.8Z" transform="translate(1.6 3.3)"/></clipPath><radialGradient id="falco_28" cx="0.4" cy="0.2" r="0.62"><stop offset="0" stop-color="#fffbe8" stop-opacity="0.34"/><stop offset="1" stop-color="#fffbe8" stop-opacity="0"/></radialGradient><radialGradient id="falco_29" cx="0.4" cy="0.3" r="0.75"><stop offset="0.45" stop-color="#0a0418" stop-opacity="0"/><stop offset="1" stop-color="#0a0418" stop-opacity="0.38"/></radialGradient><mask id="falco_27"><rect x="-3000" y="-3000" width="6000" height="6000" fill="#fff"/><path d="M1.6,-20.8Q32.4,-21.5 63.2,-16.2A16.2,16.2 0 0 1 63.2,16.2Q32.4,20.5 1.6,20.8A20.9,20.9 0 1 1 1.6,-20.8Z" fill="#000" transform="translate(-4 -8.6)"/></mask><g clip-path="url(#falco_25)"><path d="M1.6,-20.8Q32.4,-21.5 63.2,-16.2A16.2,16.2 0 0 1 63.2,16.2Q32.4,20.5 1.6,20.8A20.9,20.9 0 1 1 1.6,-20.8Z" fill="#da6467"/><g clip-path="url(#falco_26)"><path d="M1.6,-20.8Q32.4,-21.5 63.2,-16.2A16.2,16.2 0 0 1 63.2,16.2Q32.4,20.5 1.6,20.8A20.9,20.9 0 1 1 1.6,-20.8Z" fill="#861727"/><path d="M1.6,-20.8Q32.4,-21.5 63.2,-16.2A16.2,16.2 0 0 1 63.2,16.2Q32.4,20.5 1.6,20.8A20.9,20.9 0 1 1 1.6,-20.8Z" fill="#571122" transform="translate(-1.4 -3.1)"/><path d="M1.6,-20.8Q32.4,-21.5 63.2,-16.2A16.2,16.2 0 0 1 63.2,16.2Q32.4,20.5 1.6,20.8A20.9,20.9 0 1 1 1.6,-20.8Z" fill="#c8202e" transform="translate(-4.7 -10.2)"/></g><path d="M1.6,-20.8Q32.4,-21.5 63.2,-16.2A16.2,16.2 0 0 1 63.2,16.2Q32.4,20.5 1.6,20.8A20.9,20.9 0 1 1 1.6,-20.8Z" fill="url(#falco_29)"/><path d="M1.6,-20.8Q32.4,-21.5 63.2,-16.2A16.2,16.2 0 0 1 63.2,16.2Q32.4,20.5 1.6,20.8A20.9,20.9 0 1 1 1.6,-20.8Z" fill="url(#falco_28)"/><g mask="url(#falco_27)"><path d="M1.6,-20.8Q32.4,-21.5 63.2,-16.2A16.2,16.2 0 0 1 63.2,16.2Q32.4,20.5 1.6,20.8A20.9,20.9 0 1 1 1.6,-20.8Z" fill="url(#hatch)" transform="translate(-1.4 -3.1)"/></g></g><path d="M1.6,-20.8Q32.4,-21.5 63.2,-16.2A16.2,16.2 0 0 1 63.2,16.2Q32.4,20.5 1.6,20.8A20.9,20.9 0 1 1 1.6,-20.8Z" fill="none" stroke="#120d1a" stroke-width="3.2" stroke-linejoin="round"/></g><g transform="translate(404.9 301.4) rotate(-20)"><g transform="scale(1.566)"><clipPath id="falco_30"><path d="M0,-12C2.7,-13.3 9.5,-14 14,-14C18.5,-14 24.2,-14 27,-12C29.8,-10 30.5,-5.7 31,-2C31.5,1.7 31.5,7.3 30,10C28.5,12.7 26,13.5 22,14C18,14.5 10,14.3 6,13C2,11.7 -0.7,9.2 -2,6C-3.3,2.8 -2.3,-3 -2,-6C-1.7,-9 -2.7,-10.7 0,-12Z"/></clipPath><clipPath id="falco_31"><path d="M0,-12C2.7,-13.3 9.5,-14 14,-14C18.5,-14 24.2,-14 27,-12C29.8,-10 30.5,-5.7 31,-2C31.5,1.7 31.5,7.3 30,10C28.5,12.7 26,13.5 22,14C18,14.5 10,14.3 6,13C2,11.7 -0.7,9.2 -2,6C-3.3,2.8 -2.3,-3 -2,-6C-1.7,-9 -2.7,-10.7 0,-12Z" transform="translate(1.6 3.3)"/></clipPath><radialGradient id="falco_33" cx="0.4" cy="0.2" r="0.62"><stop offset="0" stop-color="#fffbe8" stop-opacity="0.34"/><stop offset="1" stop-color="#fffbe8" stop-opacity="0"/></radialGradient><radialGradient id="falco_34" cx="0.4" cy="0.3" r="0.75"><stop offset="0.45" stop-color="#0a0418" stop-opacity="0"/><stop offset="1" stop-color="#0a0418" stop-opacity="0.38"/></radialGradient><mask id="falco_32"><rect x="-3000" y="-3000" width="6000" height="6000" fill="#fff"/><path d="M0,-12C2.7,-13.3 9.5,-14 14,-14C18.5,-14 24.2,-14 27,-12C29.8,-10 30.5,-5.7 31,-2C31.5,1.7 31.5,7.3 30,10C28.5,12.7 26,13.5 22,14C18,14.5 10,14.3 6,13C2,11.7 -0.7,9.2 -2,6C-3.3,2.8 -2.3,-3 -2,-6C-1.7,-9 -2.7,-10.7 0,-12Z" fill="#000" transform="translate(-2 -4.4)"/></mask><g clip-path="url(#falco_30)"><path d="M0,-12C2.7,-13.3 9.5,-14 14,-14C18.5,-14 24.2,-14 27,-12C29.8,-10 30.5,-5.7 31,-2C31.5,1.7 31.5,7.3 30,10C28.5,12.7 26,13.5 22,14C18,14.5 10,14.3 6,13C2,11.7 -0.7,9.2 -2,6C-3.3,2.8 -2.3,-3 -2,-6C-1.7,-9 -2.7,-10.7 0,-12Z" fill="#6e6b6a"/><g clip-path="url(#falco_31)"><path d="M0,-12C2.7,-13.3 9.5,-14 14,-14C18.5,-14 24.2,-14 27,-12C29.8,-10 30.5,-5.7 31,-2C31.5,1.7 31.5,7.3 30,10C28.5,12.7 26,13.5 22,14C18,14.5 10,14.3 6,13C2,11.7 -0.7,9.2 -2,6C-3.3,2.8 -2.3,-3 -2,-6C-1.7,-9 -2.7,-10.7 0,-12Z" fill="#201e2a"/><path d="M0,-12C2.7,-13.3 9.5,-14 14,-14C18.5,-14 24.2,-14 27,-12C29.8,-10 30.5,-5.7 31,-2C31.5,1.7 31.5,7.3 30,10C28.5,12.7 26,13.5 22,14C18,14.5 10,14.3 6,13C2,11.7 -0.7,9.2 -2,6C-3.3,2.8 -2.3,-3 -2,-6C-1.7,-9 -2.7,-10.7 0,-12Z" fill="#181524" transform="translate(-0.7 -1.5)"/><path d="M0,-12C2.7,-13.3 9.5,-14 14,-14C18.5,-14 24.2,-14 27,-12C29.8,-10 30.5,-5.7 31,-2C31.5,1.7 31.5,7.3 30,10C28.5,12.7 26,13.5 22,14C18,14.5 10,14.3 6,13C2,11.7 -0.7,9.2 -2,6C-3.3,2.8 -2.3,-3 -2,-6C-1.7,-9 -2.7,-10.7 0,-12Z" fill="#2a2a32" transform="translate(-2.4 -5.1)"/></g><path d="M0,-12C2.7,-13.3 9.5,-14 14,-14C18.5,-14 24.2,-14 27,-12C29.8,-10 30.5,-5.7 31,-2C31.5,1.7 31.5,7.3 30,10C28.5,12.7 26,13.5 22,14C18,14.5 10,14.3 6,13C2,11.7 -0.7,9.2 -2,6C-3.3,2.8 -2.3,-3 -2,-6C-1.7,-9 -2.7,-10.7 0,-12Z" fill="url(#falco_34)"/><path d="M0,-12C2.7,-13.3 9.5,-14 14,-14C18.5,-14 24.2,-14 27,-12C29.8,-10 30.5,-5.7 31,-2C31.5,1.7 31.5,7.3 30,10C28.5,12.7 26,13.5 22,14C18,14.5 10,14.3 6,13C2,11.7 -0.7,9.2 -2,6C-3.3,2.8 -2.3,-3 -2,-6C-1.7,-9 -2.7,-10.7 0,-12Z" fill="url(#falco_33)"/><g mask="url(#falco_32)"><path d="M0,-12C2.7,-13.3 9.5,-14 14,-14C18.5,-14 24.2,-14 27,-12C29.8,-10 30.5,-5.7 31,-2C31.5,1.7 31.5,7.3 30,10C28.5,12.7 26,13.5 22,14C18,14.5 10,14.3 6,13C2,11.7 -0.7,9.2 -2,6C-3.3,2.8 -2.3,-3 -2,-6C-1.7,-9 -2.7,-10.7 0,-12Z" fill="url(#hatch)" transform="translate(-0.7 -1.5)"/></g></g><path d="M0,-12C2.7,-13.3 9.5,-14 14,-14C18.5,-14 24.2,-14 27,-12C29.8,-10 30.5,-5.7 31,-2C31.5,1.7 31.5,7.3 30,10C28.5,12.7 26,13.5 22,14C18,14.5 10,14.3 6,13C2,11.7 -0.7,9.2 -2,6C-3.3,2.8 -2.3,-3 -2,-6C-1.7,-9 -2.7,-10.7 0,-12Z" fill="none" stroke="#120d1a" stroke-width="2.6" stroke-linejoin="round"/><path d="M24,-11Q30,-2 26,12" fill="none" stroke="#120d1a" stroke-width="2.2" stroke-linecap="round" stroke-linejoin="round" /><path d="M16,-6L27,-6M16,0L29,1M16,6L27,7" fill="none" stroke="#120d1a" stroke-width="1.8" stroke-linecap="round" stroke-linejoin="round" /><clipPath id="falco_35"><path d="M4,-9C5.7,-10.7 11,-13.5 14,-14C17,-14.5 21,-13.3 22,-12C23,-10.7 22,-7.3 20,-6C18,-4.7 12.7,-4.3 10,-4C7.3,-3.7 5,-3.2 4,-4C3,-4.8 2.3,-7.3 4,-9Z"/></clipPath><clipPath id="falco_36"><path d="M4,-9C5.7,-10.7 11,-13.5 14,-14C17,-14.5 21,-13.3 22,-12C23,-10.7 22,-7.3 20,-6C18,-4.7 12.7,-4.3 10,-4C7.3,-3.7 5,-3.2 4,-4C3,-4.8 2.3,-7.3 4,-9Z" transform="translate(1.6 3.3)"/></clipPath><radialGradient id="falco_38" cx="0.4" cy="0.2" r="0.62"><stop offset="0" stop-color="#fffbe8" stop-opacity="0.34"/><stop offset="1" stop-color="#fffbe8" stop-opacity="0"/></radialGradient><radialGradient id="falco_39" cx="0.4" cy="0.3" r="0.75"><stop offset="0.45" stop-color="#0a0418" stop-opacity="0"/><stop offset="1" stop-color="#0a0418" stop-opacity="0.38"/></radialGradient><g clip-path="url(#falco_35)"><path d="M4,-9C5.7,-10.7 11,-13.5 14,-14C17,-14.5 21,-13.3 22,-12C23,-10.7 22,-7.3 20,-6C18,-4.7 12.7,-4.3 10,-4C7.3,-3.7 5,-3.2 4,-4C3,-4.8 2.3,-7.3 4,-9Z" fill="#6e6b6a"/><g clip-path="url(#falco_36)"><path d="M4,-9C5.7,-10.7 11,-13.5 14,-14C17,-14.5 21,-13.3 22,-12C23,-10.7 22,-7.3 20,-6C18,-4.7 12.7,-4.3 10,-4C7.3,-3.7 5,-3.2 4,-4C3,-4.8 2.3,-7.3 4,-9Z" fill="#201e2a"/><path d="M4,-9C5.7,-10.7 11,-13.5 14,-14C17,-14.5 21,-13.3 22,-12C23,-10.7 22,-7.3 20,-6C18,-4.7 12.7,-4.3 10,-4C7.3,-3.7 5,-3.2 4,-4C3,-4.8 2.3,-7.3 4,-9Z" fill="#181524" transform="translate(-0.4 -0.8)"/><path d="M4,-9C5.7,-10.7 11,-13.5 14,-14C17,-14.5 21,-13.3 22,-12C23,-10.7 22,-7.3 20,-6C18,-4.7 12.7,-4.3 10,-4C7.3,-3.7 5,-3.2 4,-4C3,-4.8 2.3,-7.3 4,-9Z" fill="#2a2a32" transform="translate(-1.2 -2.6)"/></g><path d="M4,-9C5.7,-10.7 11,-13.5 14,-14C17,-14.5 21,-13.3 22,-12C23,-10.7 22,-7.3 20,-6C18,-4.7 12.7,-4.3 10,-4C7.3,-3.7 5,-3.2 4,-4C3,-4.8 2.3,-7.3 4,-9Z" fill="url(#falco_39)"/><path d="M4,-9C5.7,-10.7 11,-13.5 14,-14C17,-14.5 21,-13.3 22,-12C23,-10.7 22,-7.3 20,-6C18,-4.7 12.7,-4.3 10,-4C7.3,-3.7 5,-3.2 4,-4C3,-4.8 2.3,-7.3 4,-9Z" fill="url(#falco_38)"/></g><path d="M4,-9C5.7,-10.7 11,-13.5 14,-14C17,-14.5 21,-13.3 22,-12C23,-10.7 22,-7.3 20,-6C18,-4.7 12.7,-4.3 10,-4C7.3,-3.7 5,-3.2 4,-4C3,-4.8 2.3,-7.3 4,-9Z" fill="none" stroke="#120d1a" stroke-width="2.6" stroke-linejoin="round"/></g></g><g transform="translate(200 212.6) rotate(0) scale(0.9803999999999999)"><clipPath id="falco_45"><path d="M-24.3,20C-17.4,17.1 18.9,17.1 25.7,20C32.5,22.9 29.5,37.5 30.1,43.4C30.8,49.2 34.4,63.1 30.6,66.7C26.8,70.4 7.6,72.7 0,72.7C-7.6,72.7 -26.9,70.4 -30.6,66.7C-34.3,63.1 -30.2,49.2 -29.5,43.4C-28.7,37.5 -31.2,22.9 -24.3,20Z"/></clipPath><clipPath id="falco_46"><path d="M-24.3,20C-17.4,17.1 18.9,17.1 25.7,20C32.5,22.9 29.5,37.5 30.1,43.4C30.8,49.2 34.4,63.1 30.6,66.7C26.8,70.4 7.6,72.7 0,72.7C-7.6,72.7 -26.9,70.4 -30.6,66.7C-34.3,63.1 -30.2,49.2 -29.5,43.4C-28.7,37.5 -31.2,22.9 -24.3,20Z" transform="translate(2.6 2.6)"/></clipPath><radialGradient id="falco_48" cx="0.3" cy="0.3" r="0.62"><stop offset="0" stop-color="#fffbe8" stop-opacity="0.34"/><stop offset="1" stop-color="#fffbe8" stop-opacity="0"/></radialGradient><radialGradient id="falco_49" cx="0.3" cy="0.3" r="0.75"><stop offset="0.45" stop-color="#0a0418" stop-opacity="0"/><stop offset="1" stop-color="#0a0418" stop-opacity="0.38"/></radialGradient><mask id="falco_47"><rect x="-3000" y="-3000" width="6000" height="6000" fill="#fff"/><path d="M-24.3,20C-17.4,17.1 18.9,17.1 25.7,20C32.5,22.9 29.5,37.5 30.1,43.4C30.8,49.2 34.4,63.1 30.6,66.7C26.8,70.4 7.6,72.7 0,72.7C-7.6,72.7 -26.9,70.4 -30.6,66.7C-34.3,63.1 -30.2,49.2 -29.5,43.4C-28.7,37.5 -31.2,22.9 -24.3,20Z" fill="#000" transform="translate(-4.2 -4.2)"/></mask><g clip-path="url(#falco_45)"><path d="M-24.3,20C-17.4,17.1 18.9,17.1 25.7,20C32.5,22.9 29.5,37.5 30.1,43.4C30.8,49.2 34.4,63.1 30.6,66.7C26.8,70.4 7.6,72.7 0,72.7C-7.6,72.7 -26.9,70.4 -30.6,66.7C-34.3,63.1 -30.2,49.2 -29.5,43.4C-28.7,37.5 -31.2,22.9 -24.3,20Z" fill="#da6467"/><g clip-path="url(#falco_46)"><path d="M-24.3,20C-17.4,17.1 18.9,17.1 25.7,20C32.5,22.9 29.5,37.5 30.1,43.4C30.8,49.2 34.4,63.1 30.6,66.7C26.8,70.4 7.6,72.7 0,72.7C-7.6,72.7 -26.9,70.4 -30.6,66.7C-34.3,63.1 -30.2,49.2 -29.5,43.4C-28.7,37.5 -31.2,22.9 -24.3,20Z" fill="#851829"/><path d="M-24.3,20C-17.4,17.1 18.9,17.1 25.7,20C32.5,22.9 29.5,37.5 30.1,43.4C30.8,49.2 34.4,63.1 30.6,66.7C26.8,70.4 7.6,72.7 0,72.7C-7.6,72.7 -26.9,70.4 -30.6,66.7C-34.3,63.1 -30.2,49.2 -29.5,43.4C-28.7,37.5 -31.2,22.9 -24.3,20Z" fill="#541225" transform="translate(-1.5 -1.5)"/><path d="M-24.3,20C-17.4,17.1 18.9,17.1 25.7,20C32.5,22.9 29.5,37.5 30.1,43.4C30.8,49.2 34.4,63.1 30.6,66.7C26.8,70.4 7.6,72.7 0,72.7C-7.6,72.7 -26.9,70.4 -30.6,66.7C-34.3,63.1 -30.2,49.2 -29.5,43.4C-28.7,37.5 -31.2,22.9 -24.3,20Z" fill="#c8202e" transform="translate(-5 -5)"/></g><path d="M-0.4,-66C6.9,-66 15.4,-64.5 21.3,-62C27.2,-59.5 31.7,-55.8 35.1,-51C38.6,-46.2 40.5,-39.8 42,-33C43.6,-26.2 44.5,-17.5 44.4,-10C44.4,-2.5 43.1,5.2 41.8,12C40.5,18.8 39.3,25.3 36.5,31C33.8,36.7 29.6,42 25.5,46C21.3,50 15.9,53.2 11.8,55C7.7,56.8 4.7,57 1,57C-2.7,57 -5.9,56.8 -10.2,55C-14.4,53.2 -20.1,50 -24.5,46C-28.8,42 -33.3,36.7 -36.3,31C-39.2,25.3 -40.7,18.8 -42.2,12C-43.8,5.2 -45.3,-2.5 -45.6,-10C-45.8,-17.5 -45.4,-26.2 -44,-33C-42.5,-39.8 -40.4,-46.2 -36.9,-51C-33.3,-55.8 -28.8,-59.5 -22.7,-62C-16.6,-64.5 -7.7,-66 -0.4,-66Z" fill="#541225" transform="translate(0.5 13)"/><path d="M-24.3,20C-17.4,17.1 18.9,17.1 25.7,20C32.5,22.9 29.5,37.5 30.1,43.4C30.8,49.2 34.4,63.1 30.6,66.7C26.8,70.4 7.6,72.7 0,72.7C-7.6,72.7 -26.9,70.4 -30.6,66.7C-34.3,63.1 -30.2,49.2 -29.5,43.4C-28.7,37.5 -31.2,22.9 -24.3,20Z" fill="url(#falco_49)"/><path d="M-24.3,20C-17.4,17.1 18.9,17.1 25.7,20C32.5,22.9 29.5,37.5 30.1,43.4C30.8,49.2 34.4,63.1 30.6,66.7C26.8,70.4 7.6,72.7 0,72.7C-7.6,72.7 -26.9,70.4 -30.6,66.7C-34.3,63.1 -30.2,49.2 -29.5,43.4C-28.7,37.5 -31.2,22.9 -24.3,20Z" fill="url(#falco_48)"/><g mask="url(#falco_47)"><path d="M-24.3,20C-17.4,17.1 18.9,17.1 25.7,20C32.5,22.9 29.5,37.5 30.1,43.4C30.8,49.2 34.4,63.1 30.6,66.7C26.8,70.4 7.6,72.7 0,72.7C-7.6,72.7 -26.9,70.4 -30.6,66.7C-34.3,63.1 -30.2,49.2 -29.5,43.4C-28.7,37.5 -31.2,22.9 -24.3,20Z" fill="url(#hatch)" transform="translate(-1.5 -1.5)"/></g></g><path d="M-24.3,20C-17.4,17.1 18.9,17.1 25.7,20C32.5,22.9 29.5,37.5 30.1,43.4C30.8,49.2 34.4,63.1 30.6,66.7C26.8,70.4 7.6,72.7 0,72.7C-7.6,72.7 -26.9,70.4 -30.6,66.7C-34.3,63.1 -30.2,49.2 -29.5,43.4C-28.7,37.5 -31.2,22.9 -24.3,20Z" fill="none" stroke="#120d1a" stroke-width="3" stroke-linejoin="round"/><clipPath id="falco_50"><path d="M-40,-12C-41.5,-17.3 -47.8,-17.7 -50,-16C-52.1,-14.3 -53.1,-7 -53,-2C-52.8,3 -51,11 -49,14C-47,17 -42.5,20.3 -41,16C-39.5,11.7 -38.5,-6.7 -40,-12Z"/></clipPath><clipPath id="falco_51"><path d="M-40,-12C-41.5,-17.3 -47.8,-17.7 -50,-16C-52.1,-14.3 -53.1,-7 -53,-2C-52.8,3 -51,11 -49,14C-47,17 -42.5,20.3 -41,16C-39.5,11.7 -38.5,-6.7 -40,-12Z" transform="translate(2.6 2.6)"/></clipPath><radialGradient id="falco_53" cx="0.3" cy="0.3" r="0.62"><stop offset="0" stop-color="#fffbe8" stop-opacity="0.34"/><stop offset="1" stop-color="#fffbe8" stop-opacity="0"/></radialGradient><radialGradient id="falco_54" cx="0.3" cy="0.3" r="0.75"><stop offset="0.45" stop-color="#0a0418" stop-opacity="0"/><stop offset="1" stop-color="#0a0418" stop-opacity="0.38"/></radialGradient><g clip-path="url(#falco_50)"><path d="M-40,-12C-41.5,-17.3 -47.8,-17.7 -50,-16C-52.1,-14.3 -53.1,-7 -53,-2C-52.8,3 -51,11 -49,14C-47,17 -42.5,20.3 -41,16C-39.5,11.7 -38.5,-6.7 -40,-12Z" fill="#a58168"/><g clip-path="url(#falco_51)"><path d="M-40,-12C-41.5,-17.3 -47.8,-17.7 -50,-16C-52.1,-14.3 -53.1,-7 -53,-2C-52.8,3 -51,11 -49,14C-47,17 -42.5,20.3 -41,16C-39.5,11.7 -38.5,-6.7 -40,-12Z" fill="#53322a"/><path d="M-40,-12C-41.5,-17.3 -47.8,-17.7 -50,-16C-52.1,-14.3 -53.1,-7 -53,-2C-52.8,3 -51,11 -49,14C-47,17 -42.5,20.3 -41,16C-39.5,11.7 -38.5,-6.7 -40,-12Z" fill="#372126" transform="translate(-0.9 -0.9)"/><path d="M-40,-12C-41.5,-17.3 -47.8,-17.7 -50,-16C-52.1,-14.3 -53.1,-7 -53,-2C-52.8,3 -51,11 -49,14C-47,17 -42.5,20.3 -41,16C-39.5,11.7 -38.5,-6.7 -40,-12Z" fill="#7a4a30" transform="translate(-3 -3)"/></g><path d="M-40,-12C-41.5,-17.3 -47.8,-17.7 -50,-16C-52.1,-14.3 -53.1,-7 -53,-2C-52.8,3 -51,11 -49,14C-47,17 -42.5,20.3 -41,16C-39.5,11.7 -38.5,-6.7 -40,-12Z" fill="url(#falco_54)"/><path d="M-40,-12C-41.5,-17.3 -47.8,-17.7 -50,-16C-52.1,-14.3 -53.1,-7 -53,-2C-52.8,3 -51,11 -49,14C-47,17 -42.5,20.3 -41,16C-39.5,11.7 -38.5,-6.7 -40,-12Z" fill="url(#falco_53)"/></g><path d="M-40,-12C-41.5,-17.3 -47.8,-17.7 -50,-16C-52.1,-14.3 -53.1,-7 -53,-2C-52.8,3 -51,11 -49,14C-47,17 -42.5,20.3 -41,16C-39.5,11.7 -38.5,-6.7 -40,-12Z" fill="none" stroke="#120d1a" stroke-width="2.6" stroke-linejoin="round"/><path d="M-47,-8Q-50,0 -46,8" fill="none" stroke="#372126" stroke-width="1.6" stroke-linecap="round" stroke-linejoin="round" /><clipPath id="falco_55"><path d="M40,-12C41.5,-17.3 47.9,-17.7 50,-16C52.2,-14.3 53.2,-7 53,-2C52.9,3 51,11 49,14C47,17 42.5,20.3 41,16C39.5,11.7 38.5,-6.7 40,-12Z"/></clipPath><clipPath id="falco_56"><path d="M40,-12C41.5,-17.3 47.9,-17.7 50,-16C52.2,-14.3 53.2,-7 53,-2C52.9,3 51,11 49,14C47,17 42.5,20.3 41,16C39.5,11.7 38.5,-6.7 40,-12Z" transform="translate(2.6 2.6)"/></clipPath><radialGradient id="falco_58" cx="0.3" cy="0.3" r="0.62"><stop offset="0" stop-color="#fffbe8" stop-opacity="0.34"/><stop offset="1" stop-color="#fffbe8" stop-opacity="0"/></radialGradient><radialGradient id="falco_59" cx="0.3" cy="0.3" r="0.75"><stop offset="0.45" stop-color="#0a0418" stop-opacity="0"/><stop offset="1" stop-color="#0a0418" stop-opacity="0.38"/></radialGradient><g clip-path="url(#falco_55)"><path d="M40,-12C41.5,-17.3 47.9,-17.7 50,-16C52.2,-14.3 53.2,-7 53,-2C52.9,3 51,11 49,14C47,17 42.5,20.3 41,16C39.5,11.7 38.5,-6.7 40,-12Z" fill="#a58168"/><g clip-path="url(#falco_56)"><path d="M40,-12C41.5,-17.3 47.9,-17.7 50,-16C52.2,-14.3 53.2,-7 53,-2C52.9,3 51,11 49,14C47,17 42.5,20.3 41,16C39.5,11.7 38.5,-6.7 40,-12Z" fill="#53322a"/><path d="M40,-12C41.5,-17.3 47.9,-17.7 50,-16C52.2,-14.3 53.2,-7 53,-2C52.9,3 51,11 49,14C47,17 42.5,20.3 41,16C39.5,11.7 38.5,-6.7 40,-12Z" fill="#372126" transform="translate(-0.9 -0.9)"/><path d="M40,-12C41.5,-17.3 47.9,-17.7 50,-16C52.2,-14.3 53.2,-7 53,-2C52.9,3 51,11 49,14C47,17 42.5,20.3 41,16C39.5,11.7 38.5,-6.7 40,-12Z" fill="#7a4a30" transform="translate(-3 -3)"/></g><path d="M40,-12C41.5,-17.3 47.9,-17.7 50,-16C52.2,-14.3 53.2,-7 53,-2C52.9,3 51,11 49,14C47,17 42.5,20.3 41,16C39.5,11.7 38.5,-6.7 40,-12Z" fill="url(#falco_59)"/><path d="M40,-12C41.5,-17.3 47.9,-17.7 50,-16C52.2,-14.3 53.2,-7 53,-2C52.9,3 51,11 49,14C47,17 42.5,20.3 41,16C39.5,11.7 38.5,-6.7 40,-12Z" fill="url(#falco_58)"/></g><path d="M40,-12C41.5,-17.3 47.9,-17.7 50,-16C52.2,-14.3 53.2,-7 53,-2C52.9,3 51,11 49,14C47,17 42.5,20.3 41,16C39.5,11.7 38.5,-6.7 40,-12Z" fill="none" stroke="#120d1a" stroke-width="2.6" stroke-linejoin="round"/><path d="M47,-8Q50,0 46,8" fill="none" stroke="#372126" stroke-width="1.6" stroke-linecap="round" stroke-linejoin="round" /><clipPath id="falco_60"><path d="M-0.4,-66C6.9,-66 15.4,-64.5 21.3,-62C27.2,-59.5 31.7,-55.8 35.1,-51C38.6,-46.2 40.5,-39.8 42,-33C43.6,-26.2 44.5,-17.5 44.4,-10C44.4,-2.5 43.1,5.2 41.8,12C40.5,18.8 39.3,25.3 36.5,31C33.8,36.7 29.6,42 25.5,46C21.3,50 15.9,53.2 11.8,55C7.7,56.8 4.7,57 1,57C-2.7,57 -5.9,56.8 -10.2,55C-14.4,53.2 -20.1,50 -24.5,46C-28.8,42 -33.3,36.7 -36.3,31C-39.2,25.3 -40.7,18.8 -42.2,12C-43.8,5.2 -45.3,-2.5 -45.6,-10C-45.8,-17.5 -45.4,-26.2 -44,-33C-42.5,-39.8 -40.4,-46.2 -36.9,-51C-33.3,-55.8 -28.8,-59.5 -22.7,-62C-16.6,-64.5 -7.7,-66 -0.4,-66Z"/></clipPath><clipPath id="falco_61"><path d="M-0.4,-66C6.9,-66 15.4,-64.5 21.3,-62C27.2,-59.5 31.7,-55.8 35.1,-51C38.6,-46.2 40.5,-39.8 42,-33C43.6,-26.2 44.5,-17.5 44.4,-10C44.4,-2.5 43.1,5.2 41.8,12C40.5,18.8 39.3,25.3 36.5,31C33.8,36.7 29.6,42 25.5,46C21.3,50 15.9,53.2 11.8,55C7.7,56.8 4.7,57 1,57C-2.7,57 -5.9,56.8 -10.2,55C-14.4,53.2 -20.1,50 -24.5,46C-28.8,42 -33.3,36.7 -36.3,31C-39.2,25.3 -40.7,18.8 -42.2,12C-43.8,5.2 -45.3,-2.5 -45.6,-10C-45.8,-17.5 -45.4,-26.2 -44,-33C-42.5,-39.8 -40.4,-46.2 -36.9,-51C-33.3,-55.8 -28.8,-59.5 -22.7,-62C-16.6,-64.5 -7.7,-66 -0.4,-66Z" transform="translate(3 3)"/></clipPath><radialGradient id="falco_63" cx="0.3" cy="0.3" r="0.62"><stop offset="0" stop-color="#fffbe8" stop-opacity="0.34"/><stop offset="1" stop-color="#fffbe8" stop-opacity="0"/></radialGradient><radialGradient id="falco_64" cx="0.3" cy="0.3" r="0.75"><stop offset="0.45" stop-color="#0a0418" stop-opacity="0"/><stop offset="1" stop-color="#0a0418" stop-opacity="0.38"/></radialGradient><mask id="falco_62"><rect x="-3000" y="-3000" width="6000" height="6000" fill="#fff"/><path d="M-0.4,-66C6.9,-66 15.4,-64.5 21.3,-62C27.2,-59.5 31.7,-55.8 35.1,-51C38.6,-46.2 40.5,-39.8 42,-33C43.6,-26.2 44.5,-17.5 44.4,-10C44.4,-2.5 43.1,5.2 41.8,12C40.5,18.8 39.3,25.3 36.5,31C33.8,36.7 29.6,42 25.5,46C21.3,50 15.9,53.2 11.8,55C7.7,56.8 4.7,57 1,57C-2.7,57 -5.9,56.8 -10.2,55C-14.4,53.2 -20.1,50 -24.5,46C-28.8,42 -33.3,36.7 -36.3,31C-39.2,25.3 -40.7,18.8 -42.2,12C-43.8,5.2 -45.3,-2.5 -45.6,-10C-45.8,-17.5 -45.4,-26.2 -44,-33C-42.5,-39.8 -40.4,-46.2 -36.9,-51C-33.3,-55.8 -28.8,-59.5 -22.7,-62C-16.6,-64.5 -7.7,-66 -0.4,-66Z" fill="#000" transform="translate(-7.6 -7.6)"/></mask><g clip-path="url(#falco_60)"><path d="M-0.4,-66C6.9,-66 15.4,-64.5 21.3,-62C27.2,-59.5 31.7,-55.8 35.1,-51C38.6,-46.2 40.5,-39.8 42,-33C43.6,-26.2 44.5,-17.5 44.4,-10C44.4,-2.5 43.1,5.2 41.8,12C40.5,18.8 39.3,25.3 36.5,31C33.8,36.7 29.6,42 25.5,46C21.3,50 15.9,53.2 11.8,55C7.7,56.8 4.7,57 1,57C-2.7,57 -5.9,56.8 -10.2,55C-14.4,53.2 -20.1,50 -24.5,46C-28.8,42 -33.3,36.7 -36.3,31C-39.2,25.3 -40.7,18.8 -42.2,12C-43.8,5.2 -45.3,-2.5 -45.6,-10C-45.8,-17.5 -45.4,-26.2 -44,-33C-42.5,-39.8 -40.4,-46.2 -36.9,-51C-33.3,-55.8 -28.8,-59.5 -22.7,-62C-16.6,-64.5 -7.7,-66 -0.4,-66Z" fill="#a58168"/><g clip-path="url(#falco_61)"><path d="M-0.4,-66C6.9,-66 15.4,-64.5 21.3,-62C27.2,-59.5 31.7,-55.8 35.1,-51C38.6,-46.2 40.5,-39.8 42,-33C43.6,-26.2 44.5,-17.5 44.4,-10C44.4,-2.5 43.1,5.2 41.8,12C40.5,18.8 39.3,25.3 36.5,31C33.8,36.7 29.6,42 25.5,46C21.3,50 15.9,53.2 11.8,55C7.7,56.8 4.7,57 1,57C-2.7,57 -5.9,56.8 -10.2,55C-14.4,53.2 -20.1,50 -24.5,46C-28.8,42 -33.3,36.7 -36.3,31C-39.2,25.3 -40.7,18.8 -42.2,12C-43.8,5.2 -45.3,-2.5 -45.6,-10C-45.8,-17.5 -45.4,-26.2 -44,-33C-42.5,-39.8 -40.4,-46.2 -36.9,-51C-33.3,-55.8 -28.8,-59.5 -22.7,-62C-16.6,-64.5 -7.7,-66 -0.4,-66Z" fill="#53322a"/><path d="M-0.4,-66C6.9,-66 15.4,-64.5 21.3,-62C27.2,-59.5 31.7,-55.8 35.1,-51C38.6,-46.2 40.5,-39.8 42,-33C43.6,-26.2 44.5,-17.5 44.4,-10C44.4,-2.5 43.1,5.2 41.8,12C40.5,18.8 39.3,25.3 36.5,31C33.8,36.7 29.6,42 25.5,46C21.3,50 15.9,53.2 11.8,55C7.7,56.8 4.7,57 1,57C-2.7,57 -5.9,56.8 -10.2,55C-14.4,53.2 -20.1,50 -24.5,46C-28.8,42 -33.3,36.7 -36.3,31C-39.2,25.3 -40.7,18.8 -42.2,12C-43.8,5.2 -45.3,-2.5 -45.6,-10C-45.8,-17.5 -45.4,-26.2 -44,-33C-42.5,-39.8 -40.4,-46.2 -36.9,-51C-33.3,-55.8 -28.8,-59.5 -22.7,-62C-16.6,-64.5 -7.7,-66 -0.4,-66Z" fill="#372126" transform="translate(-2.7 -2.7)"/><path d="M-0.4,-66C6.9,-66 15.4,-64.5 21.3,-62C27.2,-59.5 31.7,-55.8 35.1,-51C38.6,-46.2 40.5,-39.8 42,-33C43.6,-26.2 44.5,-17.5 44.4,-10C44.4,-2.5 43.1,5.2 41.8,12C40.5,18.8 39.3,25.3 36.5,31C33.8,36.7 29.6,42 25.5,46C21.3,50 15.9,53.2 11.8,55C7.7,56.8 4.7,57 1,57C-2.7,57 -5.9,56.8 -10.2,55C-14.4,53.2 -20.1,50 -24.5,46C-28.8,42 -33.3,36.7 -36.3,31C-39.2,25.3 -40.7,18.8 -42.2,12C-43.8,5.2 -45.3,-2.5 -45.6,-10C-45.8,-17.5 -45.4,-26.2 -44,-33C-42.5,-39.8 -40.4,-46.2 -36.9,-51C-33.3,-55.8 -28.8,-59.5 -22.7,-62C-16.6,-64.5 -7.7,-66 -0.4,-66Z" fill="#7a4a30" transform="translate(-9 -9)"/></g><path d="M31.1,-26C34.8,-28.3 47.1,-16.7 49.5,-8C51.9,0.7 48.5,16 45.5,26C42.5,36 35.2,51.3 31.5,52C27.8,52.7 24.2,37.7 23.5,30C22.8,22.3 26.2,15.3 27.5,6C28.8,-3.3 27.4,-23.7 31.1,-26Z" fill="#372126" opacity="0.55"/><path d="M4.3,4C5.6,5.3 9.3,12.7 9.3,16C9.3,19.3 6,23.7 4.3,24C2.6,24.3 -0.2,20.7 -0.7,18C-1.2,15.3 0.5,10.3 1.3,8C2.1,5.7 3,2.7 4.3,4Z" fill="#372126" opacity="0.8"/><ellipse cx="-8.5" cy="-42" rx="20" ry="9" fill="#a58168" opacity="0.6" filter="url(#soft)"/><ellipse cx="43.5" cy="-24" rx="8" ry="15" fill="#372126" opacity="0.5" filter="url(#soft)"/><ellipse cx="-15.9" cy="-5" rx="17.3" ry="10" fill="#372126" opacity="0.6" filter="url(#soft)"/><ellipse cx="-18.9" cy="-21" rx="13.3" ry="3.5" fill="#a58168" opacity="0.5" filter="url(#soft)"/><ellipse cx="18.1" cy="-5" rx="16.7" ry="10" fill="#372126" opacity="0.8" filter="url(#soft)"/><ellipse cx="15.1" cy="-21" rx="12.7" ry="3.5" fill="#a58168" opacity="0.5" filter="url(#soft)"/><path d="M-33.5,10Q-28.5,30 -18.5,42" fill="none" stroke="#372126" stroke-width="9" opacity="0.4" filter="url(#soft)"/><path d="M36.5,10Q31.5,30 22.5,42" fill="none" stroke="#372126" stroke-width="11" opacity="0.6" filter="url(#soft)"/><ellipse cx="-23.5" cy="8" rx="10" ry="5" fill="#a58168" opacity="0.5" filter="url(#soft)"/><path d="M-1.7,-6L-0.7,16" stroke="#a58168" stroke-width="3.4" stroke-linecap="round" opacity="0.8" filter="url(#soft)"/><ellipse cx="2.3" cy="28" rx="9" ry="3" fill="#372126" opacity="0.6" filter="url(#soft)"/><ellipse cx="2.2" cy="47" rx="10" ry="3.6" fill="#372126" opacity="0.5" filter="url(#soft)"/><ellipse cx="-0.8" cy="53" rx="8" ry="3" fill="#a58168" opacity="0.5" filter="url(#soft)"/><path d="M-0.4,-66C6.9,-66 15.4,-64.5 21.3,-62C27.2,-59.5 31.7,-55.8 35.1,-51C38.6,-46.2 40.5,-39.8 42,-33C43.6,-26.2 44.5,-17.5 44.4,-10C44.4,-2.5 43.1,5.2 41.8,12C40.5,18.8 39.3,25.3 36.5,31C33.8,36.7 29.6,42 25.5,46C21.3,50 15.9,53.2 11.8,55C7.7,56.8 4.7,57 1,57C-2.7,57 -5.9,56.8 -10.2,55C-14.4,53.2 -20.1,50 -24.5,46C-28.8,42 -33.3,36.7 -36.3,31C-39.2,25.3 -40.7,18.8 -42.2,12C-43.8,5.2 -45.3,-2.5 -45.6,-10C-45.8,-17.5 -45.4,-26.2 -44,-33C-42.5,-39.8 -40.4,-46.2 -36.9,-51C-33.3,-55.8 -28.8,-59.5 -22.7,-62C-16.6,-64.5 -7.7,-66 -0.4,-66Z" fill="url(#falco_64)"/><path d="M-0.4,-66C6.9,-66 15.4,-64.5 21.3,-62C27.2,-59.5 31.7,-55.8 35.1,-51C38.6,-46.2 40.5,-39.8 42,-33C43.6,-26.2 44.5,-17.5 44.4,-10C44.4,-2.5 43.1,5.2 41.8,12C40.5,18.8 39.3,25.3 36.5,31C33.8,36.7 29.6,42 25.5,46C21.3,50 15.9,53.2 11.8,55C7.7,56.8 4.7,57 1,57C-2.7,57 -5.9,56.8 -10.2,55C-14.4,53.2 -20.1,50 -24.5,46C-28.8,42 -33.3,36.7 -36.3,31C-39.2,25.3 -40.7,18.8 -42.2,12C-43.8,5.2 -45.3,-2.5 -45.6,-10C-45.8,-17.5 -45.4,-26.2 -44,-33C-42.5,-39.8 -40.4,-46.2 -36.9,-51C-33.3,-55.8 -28.8,-59.5 -22.7,-62C-16.6,-64.5 -7.7,-66 -0.4,-66Z" fill="url(#falco_63)"/><g mask="url(#falco_62)"><path d="M-0.4,-66C6.9,-66 15.4,-64.5 21.3,-62C27.2,-59.5 31.7,-55.8 35.1,-51C38.6,-46.2 40.5,-39.8 42,-33C43.6,-26.2 44.5,-17.5 44.4,-10C44.4,-2.5 43.1,5.2 41.8,12C40.5,18.8 39.3,25.3 36.5,31C33.8,36.7 29.6,42 25.5,46C21.3,50 15.9,53.2 11.8,55C7.7,56.8 4.7,57 1,57C-2.7,57 -5.9,56.8 -10.2,55C-14.4,53.2 -20.1,50 -24.5,46C-28.8,42 -33.3,36.7 -36.3,31C-39.2,25.3 -40.7,18.8 -42.2,12C-43.8,5.2 -45.3,-2.5 -45.6,-10C-45.8,-17.5 -45.4,-26.2 -44,-33C-42.5,-39.8 -40.4,-46.2 -36.9,-51C-33.3,-55.8 -28.8,-59.5 -22.7,-62C-16.6,-64.5 -7.7,-66 -0.4,-66Z" fill="url(#hatch)" transform="translate(-2.7 -2.7)"/></g></g><ellipse cx="-15.9" cy="-5" rx="15.3" ry="9.2" fill="#372126" opacity="0.42"/><path d="M-4.9,-1Q-14.2,-8 -26.9,-3Q-17,3.7 -4.9,-1Z" fill="#fbf6ee"/><clipPath id="falco_65"><path d="M-4.9,-1Q-14.2,-8 -26.9,-3Q-17,3.7 -4.9,-1Z"/></clipPath><g clip-path="url(#falco_65)"><circle cx="-15.6" cy="-1.2" r="4.4" fill="#5a3d26"/><circle cx="-15.6" cy="-1.2" r="2" fill="#120d1a"/><circle cx="-17.3" cy="-3" r="1.2" fill="#fff"/><path d="M-4.9,-1Q-15.9,-4 -26.9,-3L-26.9,-3L-26.9,-22L-4.9,-22Z" fill="#000" opacity="0.18"/></g><path d="M-4.2,-1.8C-5,-2.9 -8.6,-7 -10.9,-8.1C-13.2,-9.1 -17.8,-9.7 -20.2,-9.2C-22.5,-8.6 -25.8,-4.7 -27.2,-4.1C-28.6,-3.5 -29.3,-5 -29.7,-4.9C-30.2,-4.9 -30.6,-4.5 -30.2,-4.1C-29.7,-3.6 -28.1,-1.7 -26.6,-1.9C-25,-2.1 -21.4,-5.1 -19.3,-5.6C-17.2,-6.1 -14,-6.2 -12,-5.5C-10.1,-4.7 -6.6,-0.8 -5.5,-0.2C-4.4,0.3 -3.4,-0.6 -4.2,-1.8Z" fill="#120d1a"/><path d="M-7.1,0Q-15.9,4.5 -25.2,-1" fill="none" stroke="#120d1a" stroke-width="1.122" stroke-linecap="round" stroke-linejoin="round" opacity="0.55"/><path d="M-4.4,-9.4Q-18.2,-23.8 -31.9,-17.7Q-18.2,-19.7 -4.4,-4.3Z" fill="#120d1a" stroke="#120d1a" stroke-width="1.2" stroke-linejoin="round"/><ellipse cx="18.1" cy="-5" rx="14.7" ry="8.8" fill="#372126" opacity="0.42"/><path d="M7.5,-1Q16.5,-7.7 28.7,-3Q19.2,3.5 7.5,-1Z" fill="#fbf6ee"/><clipPath id="falco_66"><path d="M7.5,-1Q16.5,-7.7 28.7,-3Q19.2,3.5 7.5,-1Z"/></clipPath><g clip-path="url(#falco_66)"><circle cx="18.4" cy="-1.2" r="4.2" fill="#5a3d26"/><circle cx="18.4" cy="-1.2" r="2" fill="#120d1a"/><circle cx="16.8" cy="-3" r="1.2" fill="#fff"/><path d="M7.5,-1Q18.1,-3.7 28.7,-3L28.7,-3L28.7,-22L7.5,-22Z" fill="#000" opacity="0.18"/></g><path d="M8.2,-0.3C9.3,-0.8 12.5,-4.5 14.4,-5.3C16.3,-6 19.4,-5.9 21.4,-5.4C23.4,-4.9 26.9,-2.1 28.4,-1.9C29.9,-1.7 31.4,-3.6 31.9,-4.1C32.3,-4.5 31.8,-4.9 31.4,-4.9C31,-5 30.3,-3.5 29,-4.1C27.7,-4.7 24.5,-8.3 22.2,-8.8C20,-9.4 15.5,-8.8 13.4,-7.8C11.2,-6.8 7.6,-2.8 6.9,-1.7C6.2,-0.7 7.1,0.2 8.2,-0.3Z" fill="#120d1a"/><path d="M9.7,0Q18.1,4.3 27.1,-1" fill="none" stroke="#120d1a" stroke-width="1.078" stroke-linecap="round" stroke-linejoin="round" opacity="0.55"/><path d="M7.1,-8.9Q20.3,-23.1 33.6,-17.2Q20.3,-19.2 7.1,-4Z" fill="#120d1a" stroke="#120d1a" stroke-width="1.2" stroke-linejoin="round"/><path d="M-1.5,-16L0.5,-9M4.5,-16L3.5,-9" fill="none" stroke="#120d1a" stroke-width="1.5" stroke-linecap="round" stroke-linejoin="round" opacity="0.6"/><path d="M0.5,2Q6.3,12 5.3,21" fill="none" stroke="#120d1a" stroke-width="2" stroke-linecap="round" stroke-linejoin="round" opacity="0.75"/><path d="M-4.7,22Q-0.7,26 3.3,24Q7.3,26 9.3,21" fill="none" stroke="#120d1a" stroke-width="2.2" stroke-linecap="round" stroke-linejoin="round" /><path d="M-7.7,24Q-14.8,32 -12.8,40M13.3,24Q20.2,32 18.2,40" fill="none" stroke="#120d1a" stroke-width="1.7" stroke-linecap="round" stroke-linejoin="round" opacity="0.6"/><clipPath id="falco_67"><path d="M-14.8,39C-15.2,38.3 -14.9,31.5 -12.8,30C-10.7,28.5 -1.5,27 2.2,27C6,27 15.1,28.5 17.2,30C19.3,31.5 19.6,38.3 19.2,39C18.8,39.8 16.3,36.8 14.2,36C12.1,35.3 5.2,33 2.2,33C-0.8,33 -7.7,35.3 -9.8,36C-11.9,36.8 -14.4,39.8 -14.8,39Z"/></clipPath><clipPath id="falco_68"><path d="M-14.8,39C-15.2,38.3 -14.9,31.5 -12.8,30C-10.7,28.5 -1.5,27 2.2,27C6,27 15.1,28.5 17.2,30C19.3,31.5 19.6,38.3 19.2,39C18.8,39.8 16.3,36.8 14.2,36C12.1,35.3 5.2,33 2.2,33C-0.8,33 -7.7,35.3 -9.8,36C-11.9,36.8 -14.4,39.8 -14.8,39Z" transform="translate(2.6 2.6)"/></clipPath><radialGradient id="falco_70" cx="0.3" cy="0.3" r="0.62"><stop offset="0" stop-color="#fffbe8" stop-opacity="0.34"/><stop offset="1" stop-color="#fffbe8" stop-opacity="0"/></radialGradient><radialGradient id="falco_71" cx="0.3" cy="0.3" r="0.75"><stop offset="0.45" stop-color="#0a0418" stop-opacity="0"/><stop offset="1" stop-color="#0a0418" stop-opacity="0.38"/></radialGradient><g clip-path="url(#falco_67)"><path d="M-14.8,39C-15.2,38.3 -14.9,31.5 -12.8,30C-10.7,28.5 -1.5,27 2.2,27C6,27 15.1,28.5 17.2,30C19.3,31.5 19.6,38.3 19.2,39C18.8,39.8 16.3,36.8 14.2,36C12.1,35.3 5.2,33 2.2,33C-0.8,33 -7.7,35.3 -9.8,36C-11.9,36.8 -14.4,39.8 -14.8,39Z" fill="#5f564e"/><g clip-path="url(#falco_68)"><path d="M-14.8,39C-15.2,38.3 -14.9,31.5 -12.8,30C-10.7,28.5 -1.5,27 2.2,27C6,27 15.1,28.5 17.2,30C19.3,31.5 19.6,38.3 19.2,39C18.8,39.8 16.3,36.8 14.2,36C12.1,35.3 5.2,33 2.2,33C-0.8,33 -7.7,35.3 -9.8,36C-11.9,36.8 -14.4,39.8 -14.8,39Z" fill="#150f13"/><path d="M-14.8,39C-15.2,38.3 -14.9,31.5 -12.8,30C-10.7,28.5 -1.5,27 2.2,27C6,27 15.1,28.5 17.2,30C19.3,31.5 19.6,38.3 19.2,39C18.8,39.8 16.3,36.8 14.2,36C12.1,35.3 5.2,33 2.2,33C-0.8,33 -7.7,35.3 -9.8,36C-11.9,36.8 -14.4,39.8 -14.8,39Z" fill="#120c16" transform="translate(-0.6 -0.6)"/><path d="M-14.8,39C-15.2,38.3 -14.9,31.5 -12.8,30C-10.7,28.5 -1.5,27 2.2,27C6,27 15.1,28.5 17.2,30C19.3,31.5 19.6,38.3 19.2,39C18.8,39.8 16.3,36.8 14.2,36C12.1,35.3 5.2,33 2.2,33C-0.8,33 -7.7,35.3 -9.8,36C-11.9,36.8 -14.4,39.8 -14.8,39Z" fill="#1a1210" transform="translate(-2 -2)"/></g><path d="M-14.8,39C-15.2,38.3 -14.9,31.5 -12.8,30C-10.7,28.5 -1.5,27 2.2,27C6,27 15.1,28.5 17.2,30C19.3,31.5 19.6,38.3 19.2,39C18.8,39.8 16.3,36.8 14.2,36C12.1,35.3 5.2,33 2.2,33C-0.8,33 -7.7,35.3 -9.8,36C-11.9,36.8 -14.4,39.8 -14.8,39Z" fill="url(#falco_71)"/><path d="M-14.8,39C-15.2,38.3 -14.9,31.5 -12.8,30C-10.7,28.5 -1.5,27 2.2,27C6,27 15.1,28.5 17.2,30C19.3,31.5 19.6,38.3 19.2,39C18.8,39.8 16.3,36.8 14.2,36C12.1,35.3 5.2,33 2.2,33C-0.8,33 -7.7,35.3 -9.8,36C-11.9,36.8 -14.4,39.8 -14.8,39Z" fill="url(#falco_70)"/></g><path d="M-14.8,39C-15.2,38.3 -14.9,31.5 -12.8,30C-10.7,28.5 -1.5,27 2.2,27C6,27 15.1,28.5 17.2,30C19.3,31.5 19.6,38.3 19.2,39C18.8,39.8 16.3,36.8 14.2,36C12.1,35.3 5.2,33 2.2,33C-0.8,33 -7.7,35.3 -9.8,36C-11.9,36.8 -14.4,39.8 -14.8,39Z" fill="none" stroke="#120d1a" stroke-width="2" stroke-linejoin="round"/><path d="M-9.6,38.8C-8.3,39.2 -3,40.4 -0.3,40.3C2.3,40.2 6.8,39.1 9.1,38.1C11.5,37.2 15.2,34.3 16.1,33.5C17.1,32.7 16.7,32.1 15.6,32.5C14.4,32.8 10.6,35.1 8.3,35.9C6,36.6 2.1,37.5 -0.5,37.7C-3,37.9 -8.1,37.1 -9.4,37.2C-10.7,37.4 -10.9,38.4 -9.6,38.8Z" fill="#120d1a"/><path d="M14.55,31Q18.45,34 15.850000000000001,38" fill="none" stroke="#120d1a" stroke-width="1.5" stroke-linecap="round" stroke-linejoin="round" /><path d="M-4.3,45Q2.2,47 8.7,45" fill="none" stroke="#120d1a" stroke-width="1.5" stroke-linecap="round" stroke-linejoin="round" opacity="0.55"/><path d="M-0.4,-66C6.9,-66 15.4,-64.5 21.3,-62C27.2,-59.5 31.7,-55.8 35.1,-51C38.6,-46.2 40.5,-39.8 42,-33C43.6,-26.2 44.5,-17.5 44.4,-10C44.4,-2.5 43.1,5.2 41.8,12C40.5,18.8 39.3,25.3 36.5,31C33.8,36.7 29.6,42 25.5,46C21.3,50 15.9,53.2 11.8,55C7.7,56.8 4.7,57 1,57C-2.7,57 -5.9,56.8 -10.2,55C-14.4,53.2 -20.1,50 -24.5,46C-28.8,42 -33.3,36.7 -36.3,31C-39.2,25.3 -40.7,18.8 -42.2,12C-43.8,5.2 -45.3,-2.5 -45.6,-10C-45.8,-17.5 -45.4,-26.2 -44,-33C-42.5,-39.8 -40.4,-46.2 -36.9,-51C-33.3,-55.8 -28.8,-59.5 -22.7,-62C-16.6,-64.5 -7.7,-66 -0.4,-66Z" fill="none" stroke="#120d1a" stroke-width="3.4" stroke-linejoin="round"/><clipPath id="falco_72"><path d="M-46.5,-34.6C-46,-39.7 -42.3,-48.7 -38.8,-53.3C-35.3,-58 -29.7,-62.4 -23.8,-64.8C-17.9,-67.2 -7.5,-69 -0.4,-69C6.7,-69 16.6,-67.2 22.4,-64.8C28.1,-62.4 33.5,-58 37,-53.4C40.4,-48.7 43.2,-39.8 44.6,-34.6C45.9,-29.5 48.1,-19.2 45.5,-20C42.9,-20.8 34.3,-36.3 27.5,-40C20.7,-43.7 9.5,-44 1.5,-44C-6.5,-44 -17.7,-43.7 -24.5,-40C-31.3,-36.3 -39.1,-20.8 -42.5,-20C-45.9,-19.2 -47.1,-29.4 -46.5,-34.6Z"/></clipPath><clipPath id="falco_73"><path d="M-46.5,-34.6C-46,-39.7 -42.3,-48.7 -38.8,-53.3C-35.3,-58 -29.7,-62.4 -23.8,-64.8C-17.9,-67.2 -7.5,-69 -0.4,-69C6.7,-69 16.6,-67.2 22.4,-64.8C28.1,-62.4 33.5,-58 37,-53.4C40.4,-48.7 43.2,-39.8 44.6,-34.6C45.9,-29.5 48.1,-19.2 45.5,-20C42.9,-20.8 34.3,-36.3 27.5,-40C20.7,-43.7 9.5,-44 1.5,-44C-6.5,-44 -17.7,-43.7 -24.5,-40C-31.3,-36.3 -39.1,-20.8 -42.5,-20C-45.9,-19.2 -47.1,-29.4 -46.5,-34.6Z" transform="translate(2.6 2.6)"/></clipPath><radialGradient id="falco_75" cx="0.3" cy="0.3" r="0.62"><stop offset="0" stop-color="#fffbe8" stop-opacity="0.34"/><stop offset="1" stop-color="#fffbe8" stop-opacity="0"/></radialGradient><radialGradient id="falco_76" cx="0.3" cy="0.3" r="0.75"><stop offset="0.45" stop-color="#0a0418" stop-opacity="0"/><stop offset="1" stop-color="#0a0418" stop-opacity="0.38"/></radialGradient><mask id="falco_74"><rect x="-3000" y="-3000" width="6000" height="6000" fill="#fff"/><path d="M-46.5,-34.6C-46,-39.7 -42.3,-48.7 -38.8,-53.3C-35.3,-58 -29.7,-62.4 -23.8,-64.8C-17.9,-67.2 -7.5,-69 -0.4,-69C6.7,-69 16.6,-67.2 22.4,-64.8C28.1,-62.4 33.5,-58 37,-53.4C40.4,-48.7 43.2,-39.8 44.6,-34.6C45.9,-29.5 48.1,-19.2 45.5,-20C42.9,-20.8 34.3,-36.3 27.5,-40C20.7,-43.7 9.5,-44 1.5,-44C-6.5,-44 -17.7,-43.7 -24.5,-40C-31.3,-36.3 -39.1,-20.8 -42.5,-20C-45.9,-19.2 -47.1,-29.4 -46.5,-34.6Z" fill="#000" transform="translate(-5.1 -5.1)"/></mask><g clip-path="url(#falco_72)"><path d="M-46.5,-34.6C-46,-39.7 -42.3,-48.7 -38.8,-53.3C-35.3,-58 -29.7,-62.4 -23.8,-64.8C-17.9,-67.2 -7.5,-69 -0.4,-69C6.7,-69 16.6,-67.2 22.4,-64.8C28.1,-62.4 33.5,-58 37,-53.4C40.4,-48.7 43.2,-39.8 44.6,-34.6C45.9,-29.5 48.1,-19.2 45.5,-20C42.9,-20.8 34.3,-36.3 27.5,-40C20.7,-43.7 9.5,-44 1.5,-44C-6.5,-44 -17.7,-43.7 -24.5,-40C-31.3,-36.3 -39.1,-20.8 -42.5,-20C-45.9,-19.2 -47.1,-29.4 -46.5,-34.6Z" fill="#5b554d"/><g clip-path="url(#falco_73)"><path d="M-46.5,-34.6C-46,-39.7 -42.3,-48.7 -38.8,-53.3C-35.3,-58 -29.7,-62.4 -23.8,-64.8C-17.9,-67.2 -7.5,-69 -0.4,-69C6.7,-69 16.6,-67.2 22.4,-64.8C28.1,-62.4 33.5,-58 37,-53.4C40.4,-48.7 43.2,-39.8 44.6,-34.6C45.9,-29.5 48.1,-19.2 45.5,-20C42.9,-20.8 34.3,-36.3 27.5,-40C20.7,-43.7 9.5,-44 1.5,-44C-6.5,-44 -17.7,-43.7 -24.5,-40C-31.3,-36.3 -39.1,-20.8 -42.5,-20C-45.9,-19.2 -47.1,-29.4 -46.5,-34.6Z" fill="#120d12"/><path d="M-46.5,-34.6C-46,-39.7 -42.3,-48.7 -38.8,-53.3C-35.3,-58 -29.7,-62.4 -23.8,-64.8C-17.9,-67.2 -7.5,-69 -0.4,-69C6.7,-69 16.6,-67.2 22.4,-64.8C28.1,-62.4 33.5,-58 37,-53.4C40.4,-48.7 43.2,-39.8 44.6,-34.6C45.9,-29.5 48.1,-19.2 45.5,-20C42.9,-20.8 34.3,-36.3 27.5,-40C20.7,-43.7 9.5,-44 1.5,-44C-6.5,-44 -17.7,-43.7 -24.5,-40C-31.3,-36.3 -39.1,-20.8 -42.5,-20C-45.9,-19.2 -47.1,-29.4 -46.5,-34.6Z" fill="#100b15" transform="translate(-1.8 -1.8)"/><path d="M-46.5,-34.6C-46,-39.7 -42.3,-48.7 -38.8,-53.3C-35.3,-58 -29.7,-62.4 -23.8,-64.8C-17.9,-67.2 -7.5,-69 -0.4,-69C6.7,-69 16.6,-67.2 22.4,-64.8C28.1,-62.4 33.5,-58 37,-53.4C40.4,-48.7 43.2,-39.8 44.6,-34.6C45.9,-29.5 48.1,-19.2 45.5,-20C42.9,-20.8 34.3,-36.3 27.5,-40C20.7,-43.7 9.5,-44 1.5,-44C-6.5,-44 -17.7,-43.7 -24.5,-40C-31.3,-36.3 -39.1,-20.8 -42.5,-20C-45.9,-19.2 -47.1,-29.4 -46.5,-34.6Z" fill="#15100e" transform="translate(-6 -6)"/></g><path d="M-46.5,-34.6C-46,-39.7 -42.3,-48.7 -38.8,-53.3C-35.3,-58 -29.7,-62.4 -23.8,-64.8C-17.9,-67.2 -7.5,-69 -0.4,-69C6.7,-69 16.6,-67.2 22.4,-64.8C28.1,-62.4 33.5,-58 37,-53.4C40.4,-48.7 43.2,-39.8 44.6,-34.6C45.9,-29.5 48.1,-19.2 45.5,-20C42.9,-20.8 34.3,-36.3 27.5,-40C20.7,-43.7 9.5,-44 1.5,-44C-6.5,-44 -17.7,-43.7 -24.5,-40C-31.3,-36.3 -39.1,-20.8 -42.5,-20C-45.9,-19.2 -47.1,-29.4 -46.5,-34.6Z" fill="url(#falco_76)"/><path d="M-46.5,-34.6C-46,-39.7 -42.3,-48.7 -38.8,-53.3C-35.3,-58 -29.7,-62.4 -23.8,-64.8C-17.9,-67.2 -7.5,-69 -0.4,-69C6.7,-69 16.6,-67.2 22.4,-64.8C28.1,-62.4 33.5,-58 37,-53.4C40.4,-48.7 43.2,-39.8 44.6,-34.6C45.9,-29.5 48.1,-19.2 45.5,-20C42.9,-20.8 34.3,-36.3 27.5,-40C20.7,-43.7 9.5,-44 1.5,-44C-6.5,-44 -17.7,-43.7 -24.5,-40C-31.3,-36.3 -39.1,-20.8 -42.5,-20C-45.9,-19.2 -47.1,-29.4 -46.5,-34.6Z" fill="url(#falco_75)"/><g mask="url(#falco_74)"><path d="M-46.5,-34.6C-46,-39.7 -42.3,-48.7 -38.8,-53.3C-35.3,-58 -29.7,-62.4 -23.8,-64.8C-17.9,-67.2 -7.5,-69 -0.4,-69C6.7,-69 16.6,-67.2 22.4,-64.8C28.1,-62.4 33.5,-58 37,-53.4C40.4,-48.7 43.2,-39.8 44.6,-34.6C45.9,-29.5 48.1,-19.2 45.5,-20C42.9,-20.8 34.3,-36.3 27.5,-40C20.7,-43.7 9.5,-44 1.5,-44C-6.5,-44 -17.7,-43.7 -24.5,-40C-31.3,-36.3 -39.1,-20.8 -42.5,-20C-45.9,-19.2 -47.1,-29.4 -46.5,-34.6Z" fill="url(#hatch)" transform="translate(-1.8 -1.8)"/></g></g><path d="M-46.5,-34.6C-46,-39.7 -42.3,-48.7 -38.8,-53.3C-35.3,-58 -29.7,-62.4 -23.8,-64.8C-17.9,-67.2 -7.5,-69 -0.4,-69C6.7,-69 16.6,-67.2 22.4,-64.8C28.1,-62.4 33.5,-58 37,-53.4C40.4,-48.7 43.2,-39.8 44.6,-34.6C45.9,-29.5 48.1,-19.2 45.5,-20C42.9,-20.8 34.3,-36.3 27.5,-40C20.7,-43.7 9.5,-44 1.5,-44C-6.5,-44 -17.7,-43.7 -24.5,-40C-31.3,-36.3 -39.1,-20.8 -42.5,-20C-45.9,-19.2 -47.1,-29.4 -46.5,-34.6Z" fill="none" stroke="#120d1a" stroke-width="3" stroke-linejoin="round"/><clipPath id="falco_77"><path d="M-48,-12C-47.3,-16.7 -36.7,-18.3 -28.5,-18C-20.2,-17.7 -8.5,-10 1.5,-10C11.5,-10 23.8,-17.7 31.5,-18C39.3,-18.3 47.3,-16.7 48,-12C48.7,-7.3 42.3,7 35.5,10C28.8,13 13.2,7.7 7.5,6C1.8,4.3 3.5,0 1.5,0C-0.5,0 1.2,4.3 -4.5,6C-10.2,7.7 -25.2,13 -32.5,10C-39.7,7 -48.7,-7.3 -48,-12Z"/></clipPath><clipPath id="falco_78"><path d="M-48,-12C-47.3,-16.7 -36.7,-18.3 -28.5,-18C-20.2,-17.7 -8.5,-10 1.5,-10C11.5,-10 23.8,-17.7 31.5,-18C39.3,-18.3 47.3,-16.7 48,-12C48.7,-7.3 42.3,7 35.5,10C28.8,13 13.2,7.7 7.5,6C1.8,4.3 3.5,0 1.5,0C-0.5,0 1.2,4.3 -4.5,6C-10.2,7.7 -25.2,13 -32.5,10C-39.7,7 -48.7,-7.3 -48,-12Z" transform="translate(2.6 2.6)"/></clipPath><radialGradient id="falco_80" cx="0.3" cy="0.3" r="0.62"><stop offset="0" stop-color="#fffbe8" stop-opacity="0.34"/><stop offset="1" stop-color="#fffbe8" stop-opacity="0"/></radialGradient><radialGradient id="falco_81" cx="0.3" cy="0.3" r="0.75"><stop offset="0.45" stop-color="#0a0418" stop-opacity="0"/><stop offset="1" stop-color="#0a0418" stop-opacity="0.38"/></radialGradient><g clip-path="url(#falco_77)"><path d="M-48,-12C-47.3,-16.7 -36.7,-18.3 -28.5,-18C-20.2,-17.7 -8.5,-10 1.5,-10C11.5,-10 23.8,-17.7 31.5,-18C39.3,-18.3 47.3,-16.7 48,-12C48.7,-7.3 42.3,7 35.5,10C28.8,13 13.2,7.7 7.5,6C1.8,4.3 3.5,0 1.5,0C-0.5,0 1.2,4.3 -4.5,6C-10.2,7.7 -25.2,13 -32.5,10C-39.7,7 -48.7,-7.3 -48,-12Z" fill="#e46467"/><g clip-path="url(#falco_78)"><path d="M-48,-12C-47.3,-16.7 -36.7,-18.3 -28.5,-18C-20.2,-17.7 -8.5,-10 1.5,-10C11.5,-10 23.8,-17.7 31.5,-18C39.3,-18.3 47.3,-16.7 48,-12C48.7,-7.3 42.3,7 35.5,10C28.8,13 13.2,7.7 7.5,6C1.8,4.3 3.5,0 1.5,0C-0.5,0 1.2,4.3 -4.5,6C-10.2,7.7 -25.2,13 -32.5,10C-39.7,7 -48.7,-7.3 -48,-12Z" fill="#911727"/><path d="M-48,-12C-47.3,-16.7 -36.7,-18.3 -28.5,-18C-20.2,-17.7 -8.5,-10 1.5,-10C11.5,-10 23.8,-17.7 31.5,-18C39.3,-18.3 47.3,-16.7 48,-12C48.7,-7.3 42.3,7 35.5,10C28.8,13 13.2,7.7 7.5,6C1.8,4.3 3.5,0 1.5,0C-0.5,0 1.2,4.3 -4.5,6C-10.2,7.7 -25.2,13 -32.5,10C-39.7,7 -48.7,-7.3 -48,-12Z" fill="#5e1122" transform="translate(-0.9 -0.9)"/><path d="M-48,-12C-47.3,-16.7 -36.7,-18.3 -28.5,-18C-20.2,-17.7 -8.5,-10 1.5,-10C11.5,-10 23.8,-17.7 31.5,-18C39.3,-18.3 47.3,-16.7 48,-12C48.7,-7.3 42.3,7 35.5,10C28.8,13 13.2,7.7 7.5,6C1.8,4.3 3.5,0 1.5,0C-0.5,0 1.2,4.3 -4.5,6C-10.2,7.7 -25.2,13 -32.5,10C-39.7,7 -48.7,-7.3 -48,-12Z" fill="#d8202e" transform="translate(-3 -3)"/></g><path d="M-32.5,-8L-14.5,-12L-24.5,2Z" fill="#fff" opacity="0.5"/><path d="M-48,-12C-47.3,-16.7 -36.7,-18.3 -28.5,-18C-20.2,-17.7 -8.5,-10 1.5,-10C11.5,-10 23.8,-17.7 31.5,-18C39.3,-18.3 47.3,-16.7 48,-12C48.7,-7.3 42.3,7 35.5,10C28.8,13 13.2,7.7 7.5,6C1.8,4.3 3.5,0 1.5,0C-0.5,0 1.2,4.3 -4.5,6C-10.2,7.7 -25.2,13 -32.5,10C-39.7,7 -48.7,-7.3 -48,-12Z" fill="url(#falco_81)"/><path d="M-48,-12C-47.3,-16.7 -36.7,-18.3 -28.5,-18C-20.2,-17.7 -8.5,-10 1.5,-10C11.5,-10 23.8,-17.7 31.5,-18C39.3,-18.3 47.3,-16.7 48,-12C48.7,-7.3 42.3,7 35.5,10C28.8,13 13.2,7.7 7.5,6C1.8,4.3 3.5,0 1.5,0C-0.5,0 1.2,4.3 -4.5,6C-10.2,7.7 -25.2,13 -32.5,10C-39.7,7 -48.7,-7.3 -48,-12Z" fill="url(#falco_80)"/></g><path d="M-48,-12C-47.3,-16.7 -36.7,-18.3 -28.5,-18C-20.2,-17.7 -8.5,-10 1.5,-10C11.5,-10 23.8,-17.7 31.5,-18C39.3,-18.3 47.3,-16.7 48,-12C48.7,-7.3 42.3,7 35.5,10C28.8,13 13.2,7.7 7.5,6C1.8,4.3 3.5,0 1.5,0C-0.5,0 1.2,4.3 -4.5,6C-10.2,7.7 -25.2,13 -32.5,10C-39.7,7 -48.7,-7.3 -48,-12Z" fill="none" stroke="#120d1a" stroke-width="3" stroke-linejoin="round"/></g>

<rect width="400" height="400" fill="url(#vig)"/>
</g>
<circle cx="200" cy="200" r="186" fill="none" stroke="#120d1a" stroke-width="7"/>
<circle cx="200" cy="200" r="181" fill="none" stroke="#ffffff" stroke-width="1.6" opacity="0.35"/>
</svg>