<svg xmlns="http://www.w3.org/2000/svg" viewBox="0 0 400 400" width="400" height="400" role="img" aria-label="Gambit">
<defs>
<filter id="glow" x="-50%" y="-50%" width="200%" height="200%"><feGaussianBlur stdDeviation="5" result="b"/><feMerge><feMergeNode in="b"/><feMergeNode in="SourceGraphic"/></feMerge></filter>
<filter id="blur6" x="-50%" y="-50%" width="200%" height="200%"><feGaussianBlur stdDeviation="6"/></filter>
<filter id="blur14" x="-50%" y="-50%" width="200%" height="200%"><feGaussianBlur stdDeviation="14"/></filter>
<filter id="grain" x="0" y="0" width="100%" height="100%"><feTurbulence type="fractalNoise" baseFrequency="0.9" numOctaves="2" seed="7"/><feColorMatrix values="0 0 0 0 0  0 0 0 0 0  0 0 0 0 0  0 0 0 0.10 0"/><feComposite in2="SourceGraphic" operator="in"/></filter>
<pattern id="hatch" width="4.2" height="4.2" patternUnits="userSpaceOnUse" patternTransform="rotate(-38)"><rect width="1.1" height="4.2" fill="#0a0418" opacity="0.42"/></pattern>
<filter id="soft" x="-30%" y="-30%" width="160%" height="160%"><feGaussianBlur stdDeviation="3.2"/></filter>
<pattern id="dots" width="7" height="7" patternUnits="userSpaceOnUse" patternTransform="rotate(30)"><circle cx="3.5" cy="3.5" r="1.6" fill="#000"/></pattern>
<pattern id="dotsW" width="7" height="7" patternUnits="userSpaceOnUse" patternTransform="rotate(30)"><circle cx="3.5" cy="3.5" r="1.6" fill="#fff"/></pattern>
<radialGradient id="vig" cx="0.5" cy="0.45" r="0.6"><stop offset="0.62" stop-color="#000" stop-opacity="0"/><stop offset="1" stop-color="#000" stop-opacity="0.5"/></radialGradient>
<radialGradient id="htFade" cx="0.5" cy="0.5" r="0.5"><stop offset="0.45" stop-color="#fff" stop-opacity="0"/><stop offset="1" stop-color="#fff" stop-opacity="1"/></radialGradient>
<mask id="htMask"><rect width="400" height="400" fill="url(#htFade)"/></mask>
<clipPath id="disc"><circle cx="200" cy="200" r="186"/></clipPath></defs>
<circle cx="200" cy="200" r="197" fill="#e0389a" stroke="#120d1a" stroke-width="5"/>
<path d="M200,6 A194,194 0 0 0 6,200" fill="none" stroke="#ea75b0" stroke-width="5" stroke-linecap="round" opacity="0.9"/>
<g clip-path="url(#disc)">
<rect width="400" height="400" fill="#1a0a24"/>
<defs><radialGradient id="gb" cx="0.5" cy="0.4" r="0.75"><stop offset="0" stop-color="#7a2a8a"/><stop offset="1" stop-color="#0a0410"/></radialGradient></defs><rect width="400" height="400" fill="url(#gb)"/><circle cx="90" cy="90" r="40" fill="#f0e6d0" opacity="0.8"/><path d="M0,250V400M0,250q11,-14 22,0M22,250V400M22,250q11,-14 22,0M44,250V400M44,250q11,-14 22,0M66,250V400M66,250q11,-14 22,0M88,250V400M88,250q11,-14 22,0M110,250V400M110,250q11,-14 22,0M132,250V400M132,250q11,-14 22,0M154,250V400M154,250q11,-14 22,0M176,250V400M176,250q11,-14 22,0M198,250V400M198,250q11,-14 22,0M220,250V400M220,250q11,-14 22,0M242,250V400M242,250q11,-14 22,0M264,250V400M264,250q11,-14 22,0M286,250V400M286,250q11,-14 22,0M308,250V400M308,250q11,-14 22,0M330,250V400M330,250q11,-14 22,0M352,250V400M352,250q11,-14 22,0M374,250V400M374,250q11,-14 22,0M396,250V400M396,250q11,-14 22,0M418,250V400M418,250q11,-14 22,0M0,250H420M0,300H420" fill="none" stroke="#14060e" stroke-width="5"/><circle cx="98" cy="73" r="1.3" fill="#ffb0e0" opacity="0.7"/><circle cx="285.1" cy="163.8" r="0.8" fill="#ffb0e0" opacity="0.8"/><circle cx="83.3" cy="180.6" r="0.8" fill="#ffb0e0" opacity="0.7"/><circle cx="32.7" cy="155.4" r="0.8" fill="#ffb0e0" opacity="0.5"/><circle cx="92.1" cy="132.3" r="0.8" fill="#ffb0e0" opacity="0.4"/><circle cx="167.9" cy="97.4" r="1.7" fill="#ffb0e0" opacity="0.9"/><path d="M162.9,97.4L172.9,97.4M167.9,92.4L167.9,102.4" stroke="#ffb0e0" stroke-width="0.8"/><circle cx="285" cy="85.4" r="1.6" fill="#ffb0e0" opacity="0.6"/><circle cx="31.9" cy="66.4" r="1.8" fill="#ffb0e0" opacity="0.8"/><path d="M26.9,66.4L36.9,66.4M31.9,61.4L31.9,71.4" stroke="#ffb0e0" stroke-width="0.8"/><circle cx="210.8" cy="64.8" r="0.6" fill="#ffb0e0" opacity="0.9"/><circle cx="124.3" cy="15.7" r="1.4" fill="#ffb0e0" opacity="1"/><circle cx="29.1" cy="109.4" r="1.1" fill="#ffb0e0" opacity="0.8"/><circle cx="389.1" cy="28.8" r="0.8" fill="#ffb0e0" opacity="0.7"/><circle cx="58.1" cy="132.4" r="1.3" fill="#ffb0e0" opacity="1"/><circle cx="24.3" cy="85.4" r="0.8" fill="#ffb0e0" opacity="0.4"/><circle cx="247.1" cy="93.3" r="0.5" fill="#ffb0e0" opacity="0.6"/><circle cx="17.5" cy="139.8" r="0.6" fill="#ffb0e0" opacity="0.4"/><circle cx="374.2" cy="83" r="2" fill="#ffb0e0" opacity="0.4"/><path d="M369.2,83L379.2,83M374.2,78L374.2,88" stroke="#ffb0e0" stroke-width="0.8"/><circle cx="5.6" cy="112.3" r="0.9" fill="#ffb0e0" opacity="0.8"/><circle cx="169.2" cy="120.5" r="1.3" fill="#ffb0e0" opacity="1"/><circle cx="260.4" cy="192.1" r="0.5" fill="#ffb0e0" opacity="1"/>
<rect width="400" height="400" fill="url(#dots)" opacity="0.10" mask="url(#htMask)"/>

<clipPath id="gambi_109"><path d="M123.2,272.4C86.4,288.2 79.8,337.8 62.6,378.4C45.4,419 -0.4,487.6 19.9,515.8C40.3,543.9 129.2,543.5 184.5,547.3C239.8,551.2 327.8,564 351.8,539C375.8,513.9 340,439.6 328.6,397C317.2,354.4 317.7,304.4 283.4,283.6C249.2,262.8 160,256.6 123.2,272.4Z"/></clipPath><clipPath id="gambi_110"><path d="M123.2,272.4C86.4,288.2 79.8,337.8 62.6,378.4C45.4,419 -0.4,487.6 19.9,515.8C40.3,543.9 129.2,543.5 184.5,547.3C239.8,551.2 327.8,564 351.8,539C375.8,513.9 340,439.6 328.6,397C317.2,354.4 317.7,304.4 283.4,283.6C249.2,262.8 160,256.6 123.2,272.4Z" transform="translate(2.6 2.6)"/></clipPath><radialGradient id="gambi_112" cx="0.3" cy="0.3" r="0.62"><stop offset="0" stop-color="#fffbe8" stop-opacity="0.34"/><stop offset="1" stop-color="#fffbe8" stop-opacity="0"/></radialGradient><radialGradient id="gambi_113" cx="0.3" cy="0.3" r="0.75"><stop offset="0.45" stop-color="#0a0418" stop-opacity="0"/><stop offset="1" stop-color="#0a0418" stop-opacity="0.38"/></radialGradient><mask id="gambi_111"><rect x="-3000" y="-3000" width="6000" height="6000" fill="#fff"/><path d="M123.2,272.4C86.4,288.2 79.8,337.8 62.6,378.4C45.4,419 -0.4,487.6 19.9,515.8C40.3,543.9 129.2,543.5 184.5,547.3C239.8,551.2 327.8,564 351.8,539C375.8,513.9 340,439.6 328.6,397C317.2,354.4 317.7,304.4 283.4,283.6C249.2,262.8 160,256.6 123.2,272.4Z" fill="#000" transform="translate(-11.9 -11.9)"/></mask><g clip-path="url(#gambi_109)"><path d="M123.2,272.4C86.4,288.2 79.8,337.8 62.6,378.4C45.4,419 -0.4,487.6 19.9,515.8C40.3,543.9 129.2,543.5 184.5,547.3C239.8,551.2 327.8,564 351.8,539C375.8,513.9 340,439.6 328.6,397C317.2,354.4 317.7,304.4 283.4,283.6C249.2,262.8 160,256.6 123.2,272.4Z" fill="#a58164"/><g clip-path="url(#gambi_110)"><path d="M123.2,272.4C86.4,288.2 79.8,337.8 62.6,378.4C45.4,419 -0.4,487.6 19.9,515.8C40.3,543.9 129.2,543.5 184.5,547.3C239.8,551.2 327.8,564 351.8,539C375.8,513.9 340,439.6 328.6,397C317.2,354.4 317.7,304.4 283.4,283.6C249.2,262.8 160,256.6 123.2,272.4Z" fill="#543324"/><path d="M123.2,272.4C86.4,288.2 79.8,337.8 62.6,378.4C45.4,419 -0.4,487.6 19.9,515.8C40.3,543.9 129.2,543.5 184.5,547.3C239.8,551.2 327.8,564 351.8,539C375.8,513.9 340,439.6 328.6,397C317.2,354.4 317.7,304.4 283.4,283.6C249.2,262.8 160,256.6 123.2,272.4Z" fill="#382220" transform="translate(-4.2 -4.2)"/><path d="M123.2,272.4C86.4,288.2 79.8,337.8 62.6,378.4C45.4,419 -0.4,487.6 19.9,515.8C40.3,543.9 129.2,543.5 184.5,547.3C239.8,551.2 327.8,564 351.8,539C375.8,513.9 340,439.6 328.6,397C317.2,354.4 317.7,304.4 283.4,283.6C249.2,262.8 160,256.6 123.2,272.4Z" fill="#7a4a2a" transform="translate(-14 -14)"/></g><path d="M139.8,323.7Q96.8,420.9 52.4,538.1" fill="none" stroke="#382220" stroke-width="2.4" stroke-linecap="round" stroke-linejoin="round" /><path d="M174.8,326.1Q152.8,424.8 129.4,543.5" fill="none" stroke="#382220" stroke-width="2.4" stroke-linecap="round" stroke-linejoin="round" /><path d="M224.8,329.6Q232.9,430.4 239.5,551.2" fill="none" stroke="#382220" stroke-width="2.4" stroke-linecap="round" stroke-linejoin="round" /><path d="M259.9,332.1Q288.9,434.3 316.6,556.6" fill="none" stroke="#382220" stroke-width="2.4" stroke-linecap="round" stroke-linejoin="round" /><path d="M123.2,272.4C86.4,288.2 79.8,337.8 62.6,378.4C45.4,419 -0.4,487.6 19.9,515.8C40.3,543.9 129.2,543.5 184.5,547.3C239.8,551.2 327.8,564 351.8,539C375.8,513.9 340,439.6 328.6,397C317.2,354.4 317.7,304.4 283.4,283.6C249.2,262.8 160,256.6 123.2,272.4Z" fill="url(#gambi_113)"/><path d="M123.2,272.4C86.4,288.2 79.8,337.8 62.6,378.4C45.4,419 -0.4,487.6 19.9,515.8C40.3,543.9 129.2,543.5 184.5,547.3C239.8,551.2 327.8,564 351.8,539C375.8,513.9 340,439.6 328.6,397C317.2,354.4 317.7,304.4 283.4,283.6C249.2,262.8 160,256.6 123.2,272.4Z" fill="url(#gambi_112)"/><g mask="url(#gambi_111)"><path d="M123.2,272.4C86.4,288.2 79.8,337.8 62.6,378.4C45.4,419 -0.4,487.6 19.9,515.8C40.3,543.9 129.2,543.5 184.5,547.3C239.8,551.2 327.8,564 351.8,539C375.8,513.9 340,439.6 328.6,397C317.2,354.4 317.7,304.4 283.4,283.6C249.2,262.8 160,256.6 123.2,272.4Z" fill="url(#hatch)" transform="translate(-4.2 -4.2)"/></g></g><path d="M123.2,272.4C86.4,288.2 79.8,337.8 62.6,378.4C45.4,419 -0.4,487.6 19.9,515.8C40.3,543.9 129.2,543.5 184.5,547.3C239.8,551.2 327.8,564 351.8,539C375.8,513.9 340,439.6 328.6,397C317.2,354.4 317.7,304.4 283.4,283.6C249.2,262.8 160,256.6 123.2,272.4Z" fill="none" stroke="#120d1a" stroke-width="3.2" stroke-linejoin="round"/><g transform="translate(204 268) rotate(4)"><clipPath id="gambi_70"><path d="M0,-4C7.5,-4 16.5,-28.8 24.3,-30C32.1,-31.2 42.1,-17.5 50.9,-12C59.7,-6.5 73.7,-0.5 81.3,6C88.9,12.5 97.1,22.3 100.3,30C103.6,37.7 103.6,45.8 102.3,56C101.1,66.2 97.5,83.1 92.3,96C87.1,108.9 72.9,127.8 68.7,140C64.4,152.2 64,156.5 64.7,175C65.3,193.5 82.6,246.6 72.7,260C62.7,273.4 22.4,262 0,262C-22.4,262 -62.7,273.4 -72.7,260C-82.6,246.6 -65.3,193.5 -64.7,175C-64,156.5 -64.4,152.2 -68.7,140C-72.9,127.8 -87.1,108.9 -92.3,96C-97.5,83.1 -101.1,66.2 -102.3,56C-103.6,45.8 -103.6,37.7 -100.3,30C-97.1,22.3 -88.9,12.5 -81.3,6C-73.7,-0.5 -59.7,-6.5 -50.9,-12C-42.1,-17.5 -32.1,-31.2 -24.3,-30C-16.5,-28.8 -7.5,-4 0,-4Z"/></clipPath><clipPath id="gambi_71"><path d="M0,-4C7.5,-4 16.5,-28.8 24.3,-30C32.1,-31.2 42.1,-17.5 50.9,-12C59.7,-6.5 73.7,-0.5 81.3,6C88.9,12.5 97.1,22.3 100.3,30C103.6,37.7 103.6,45.8 102.3,56C101.1,66.2 97.5,83.1 92.3,96C87.1,108.9 72.9,127.8 68.7,140C64.4,152.2 64,156.5 64.7,175C65.3,193.5 82.6,246.6 72.7,260C62.7,273.4 22.4,262 0,262C-22.4,262 -62.7,273.4 -72.7,260C-82.6,246.6 -65.3,193.5 -64.7,175C-64,156.5 -64.4,152.2 -68.7,140C-72.9,127.8 -87.1,108.9 -92.3,96C-97.5,83.1 -101.1,66.2 -102.3,56C-103.6,45.8 -103.6,37.7 -100.3,30C-97.1,22.3 -88.9,12.5 -81.3,6C-73.7,-0.5 -59.7,-6.5 -50.9,-12C-42.1,-17.5 -32.1,-31.2 -24.3,-30C-16.5,-28.8 -7.5,-4 0,-4Z" transform="translate(3.2 2.8)"/></clipPath><radialGradient id="gambi_73" cx="0.3" cy="0.3" r="0.62"><stop offset="0" stop-color="#fffbe8" stop-opacity="0.34"/><stop offset="1" stop-color="#fffbe8" stop-opacity="0"/></radialGradient><radialGradient id="gambi_74" cx="0.3" cy="0.3" r="0.75"><stop offset="0.45" stop-color="#0a0418" stop-opacity="0"/><stop offset="1" stop-color="#0a0418" stop-opacity="0.38"/></radialGradient><mask id="gambi_72"><rect x="-3000" y="-3000" width="6000" height="6000" fill="#fff"/><path d="M0,-4C7.5,-4 16.5,-28.8 24.3,-30C32.1,-31.2 42.1,-17.5 50.9,-12C59.7,-6.5 73.7,-0.5 81.3,6C88.9,12.5 97.1,22.3 100.3,30C103.6,37.7 103.6,45.8 102.3,56C101.1,66.2 97.5,83.1 92.3,96C87.1,108.9 72.9,127.8 68.7,140C64.4,152.2 64,156.5 64.7,175C65.3,193.5 82.6,246.6 72.7,260C62.7,273.4 22.4,262 0,262C-22.4,262 -62.7,273.4 -72.7,260C-82.6,246.6 -65.3,193.5 -64.7,175C-64,156.5 -64.4,152.2 -68.7,140C-72.9,127.8 -87.1,108.9 -92.3,96C-97.5,83.1 -101.1,66.2 -102.3,56C-103.6,45.8 -103.6,37.7 -100.3,30C-97.1,22.3 -88.9,12.5 -81.3,6C-73.7,-0.5 -59.7,-6.5 -50.9,-12C-42.1,-17.5 -32.1,-31.2 -24.3,-30C-16.5,-28.8 -7.5,-4 0,-4Z" fill="#000" transform="translate(-14.5 -12.6)"/></mask><g clip-path="url(#gambi_70)"><path d="M0,-4C7.5,-4 16.5,-28.8 24.3,-30C32.1,-31.2 42.1,-17.5 50.9,-12C59.7,-6.5 73.7,-0.5 81.3,6C88.9,12.5 97.1,22.3 100.3,30C103.6,37.7 103.6,45.8 102.3,56C101.1,66.2 97.5,83.1 92.3,96C87.1,108.9 72.9,127.8 68.7,140C64.4,152.2 64,156.5 64.7,175C65.3,193.5 82.6,246.6 72.7,260C62.7,273.4 22.4,262 0,262C-22.4,262 -62.7,273.4 -72.7,260C-82.6,246.6 -65.3,193.5 -64.7,175C-64,156.5 -64.4,152.2 -68.7,140C-72.9,127.8 -87.1,108.9 -92.3,96C-97.5,83.1 -101.1,66.2 -102.3,56C-103.6,45.8 -103.6,37.7 -100.3,30C-97.1,22.3 -88.9,12.5 -81.3,6C-73.7,-0.5 -59.7,-6.5 -50.9,-12C-42.1,-17.5 -32.1,-31.2 -24.3,-30C-16.5,-28.8 -7.5,-4 0,-4Z" fill="#796b85"/><g clip-path="url(#gambi_71)"><path d="M0,-4C7.5,-4 16.5,-28.8 24.3,-30C32.1,-31.2 42.1,-17.5 50.9,-12C59.7,-6.5 73.7,-0.5 81.3,6C88.9,12.5 97.1,22.3 100.3,30C103.6,37.7 103.6,45.8 102.3,56C101.1,66.2 97.5,83.1 92.3,96C87.1,108.9 72.9,127.8 68.7,140C64.4,152.2 64,156.5 64.7,175C65.3,193.5 82.6,246.6 72.7,260C62.7,273.4 22.4,262 0,262C-22.4,262 -62.7,273.4 -72.7,260C-82.6,246.6 -65.3,193.5 -64.7,175C-64,156.5 -64.4,152.2 -68.7,140C-72.9,127.8 -87.1,108.9 -92.3,96C-97.5,83.1 -101.1,66.2 -102.3,56C-103.6,45.8 -103.6,37.7 -100.3,30C-97.1,22.3 -88.9,12.5 -81.3,6C-73.7,-0.5 -59.7,-6.5 -50.9,-12C-42.1,-17.5 -32.1,-31.2 -24.3,-30C-16.5,-28.8 -7.5,-4 0,-4Z" fill="#2a1e44"/><path d="M0,-4C7.5,-4 16.5,-28.8 24.3,-30C32.1,-31.2 42.1,-17.5 50.9,-12C59.7,-6.5 73.7,-0.5 81.3,6C88.9,12.5 97.1,22.3 100.3,30C103.6,37.7 103.6,45.8 102.3,56C101.1,66.2 97.5,83.1 92.3,96C87.1,108.9 72.9,127.8 68.7,140C64.4,152.2 64,156.5 64.7,175C65.3,193.5 82.6,246.6 72.7,260C62.7,273.4 22.4,262 0,262C-22.4,262 -62.7,273.4 -72.7,260C-82.6,246.6 -65.3,193.5 -64.7,175C-64,156.5 -64.4,152.2 -68.7,140C-72.9,127.8 -87.1,108.9 -92.3,96C-97.5,83.1 -101.1,66.2 -102.3,56C-103.6,45.8 -103.6,37.7 -100.3,30C-97.1,22.3 -88.9,12.5 -81.3,6C-73.7,-0.5 -59.7,-6.5 -50.9,-12C-42.1,-17.5 -32.1,-31.2 -24.3,-30C-16.5,-28.8 -7.5,-4 0,-4Z" fill="#1e1534" transform="translate(-5.1 -4.5)"/><path d="M0,-4C7.5,-4 16.5,-28.8 24.3,-30C32.1,-31.2 42.1,-17.5 50.9,-12C59.7,-6.5 73.7,-0.5 81.3,6C88.9,12.5 97.1,22.3 100.3,30C103.6,37.7 103.6,45.8 102.3,56C101.1,66.2 97.5,83.1 92.3,96C87.1,108.9 72.9,127.8 68.7,140C64.4,152.2 64,156.5 64.7,175C65.3,193.5 82.6,246.6 72.7,260C62.7,273.4 22.4,262 0,262C-22.4,262 -62.7,273.4 -72.7,260C-82.6,246.6 -65.3,193.5 -64.7,175C-64,156.5 -64.4,152.2 -68.7,140C-72.9,127.8 -87.1,108.9 -92.3,96C-97.5,83.1 -101.1,66.2 -102.3,56C-103.6,45.8 -103.6,37.7 -100.3,30C-97.1,22.3 -88.9,12.5 -81.3,6C-73.7,-0.5 -59.7,-6.5 -50.9,-12C-42.1,-17.5 -32.1,-31.2 -24.3,-30C-16.5,-28.8 -7.5,-4 0,-4Z" fill="#3a2a5a" transform="translate(-17.1 -14.8)"/></g><clipPath id="gambi_60"><path d="M-20,-6L-120.3,0L-120.3,270L-50,270L-36,80Z"/></clipPath><clipPath id="gambi_61"><path d="M-20,-6L-120.3,0L-120.3,270L-50,270L-36,80Z" transform="translate(2.6 2.6)"/></clipPath><radialGradient id="gambi_63" cx="0.3" cy="0.3" r="0.62"><stop offset="0" stop-color="#fffbe8" stop-opacity="0.34"/><stop offset="1" stop-color="#fffbe8" stop-opacity="0"/></radialGradient><radialGradient id="gambi_64" cx="0.3" cy="0.3" r="0.75"><stop offset="0.45" stop-color="#0a0418" stop-opacity="0"/><stop offset="1" stop-color="#0a0418" stop-opacity="0.38"/></radialGradient><mask id="gambi_62"><rect x="-3000" y="-3000" width="6000" height="6000" fill="#fff"/><path d="M-20,-6L-120.3,0L-120.3,270L-50,270L-36,80Z" fill="#000" transform="translate(-4.2 -4.2)"/></mask><g clip-path="url(#gambi_60)"><path d="M-20,-6L-120.3,0L-120.3,270L-50,270L-36,80Z" fill="#a58164"/><g clip-path="url(#gambi_61)"><path d="M-20,-6L-120.3,0L-120.3,270L-50,270L-36,80Z" fill="#543324"/><path d="M-20,-6L-120.3,0L-120.3,270L-50,270L-36,80Z" fill="#382220" transform="translate(-1.5 -1.5)"/><path d="M-20,-6L-120.3,0L-120.3,270L-50,270L-36,80Z" fill="#7a4a2a" transform="translate(-5 -5)"/></g><path d="M-20,-6L-120.3,0L-120.3,270L-50,270L-36,80Z" fill="url(#gambi_64)"/><path d="M-20,-6L-120.3,0L-120.3,270L-50,270L-36,80Z" fill="url(#gambi_63)"/><g mask="url(#gambi_62)"><path d="M-20,-6L-120.3,0L-120.3,270L-50,270L-36,80Z" fill="url(#hatch)" transform="translate(-1.5 -1.5)"/></g></g><path d="M-20,-6L-120.3,0L-120.3,270L-50,270L-36,80Z" fill="none" stroke="#120d1a" stroke-width="2.4" stroke-linejoin="round"/><clipPath id="gambi_65"><path d="M20,-6L120.3,0L120.3,270L50,270L36,80Z"/></clipPath><clipPath id="gambi_66"><path d="M20,-6L120.3,0L120.3,270L50,270L36,80Z" transform="translate(2.6 2.6)"/></clipPath><radialGradient id="gambi_68" cx="0.3" cy="0.3" r="0.62"><stop offset="0" stop-color="#fffbe8" stop-opacity="0.34"/><stop offset="1" stop-color="#fffbe8" stop-opacity="0"/></radialGradient><radialGradient id="gambi_69" cx="0.3" cy="0.3" r="0.75"><stop offset="0.45" stop-color="#0a0418" stop-opacity="0"/><stop offset="1" stop-color="#0a0418" stop-opacity="0.38"/></radialGradient><mask id="gambi_67"><rect x="-3000" y="-3000" width="6000" height="6000" fill="#fff"/><path d="M20,-6L120.3,0L120.3,270L50,270L36,80Z" fill="#000" transform="translate(-4.2 -4.2)"/></mask><g clip-path="url(#gambi_65)"><path d="M20,-6L120.3,0L120.3,270L50,270L36,80Z" fill="#a58164"/><g clip-path="url(#gambi_66)"><path d="M20,-6L120.3,0L120.3,270L50,270L36,80Z" fill="#543324"/><path d="M20,-6L120.3,0L120.3,270L50,270L36,80Z" fill="#382220" transform="translate(-1.5 -1.5)"/><path d="M20,-6L120.3,0L120.3,270L50,270L36,80Z" fill="#7a4a2a" transform="translate(-5 -5)"/></g><path d="M20,-6L120.3,0L120.3,270L50,270L36,80Z" fill="url(#gambi_69)"/><path d="M20,-6L120.3,0L120.3,270L50,270L36,80Z" fill="url(#gambi_68)"/><g mask="url(#gambi_67)"><path d="M20,-6L120.3,0L120.3,270L50,270L36,80Z" fill="url(#hatch)" transform="translate(-1.5 -1.5)"/></g></g><path d="M20,-6L120.3,0L120.3,270L50,270L36,80Z" fill="none" stroke="#120d1a" stroke-width="2.4" stroke-linejoin="round"/><path d="M-20,40H20M-20,70H20M-20,100H20" fill="none" stroke="#5a3a8a" stroke-width="2" stroke-linecap="round" stroke-linejoin="round" /><ellipse cx="-45.1" cy="-2" rx="28.1" ry="9" fill="#796b85" opacity="0.45" filter="url(#soft)"/><ellipse cx="50.2" cy="4" rx="26.1" ry="10" fill="#1e1534" opacity="0.4" filter="url(#soft)"/><ellipse cx="-35.1" cy="92" rx="32.1" ry="9" fill="#1e1534" opacity="0.45" filter="url(#soft)"/><ellipse cx="38.1" cy="94" rx="32.1" ry="10" fill="#1e1534" opacity="0.6" filter="url(#soft)"/><ellipse cx="-38.1" cy="58" rx="22.1" ry="14" fill="#796b85" opacity="0.35" filter="url(#soft)"/><ellipse cx="82.3" cy="130" rx="16" ry="60" fill="#1e1534" opacity="0.5" filter="url(#soft)"/><ellipse cx="-80.3" cy="130" rx="12" ry="50" fill="#1e1534" opacity="0.3" filter="url(#soft)"/><path d="M0,-4C7.5,-4 16.5,-28.8 24.3,-30C32.1,-31.2 42.1,-17.5 50.9,-12C59.7,-6.5 73.7,-0.5 81.3,6C88.9,12.5 97.1,22.3 100.3,30C103.6,37.7 103.6,45.8 102.3,56C101.1,66.2 97.5,83.1 92.3,96C87.1,108.9 72.9,127.8 68.7,140C64.4,152.2 64,156.5 64.7,175C65.3,193.5 82.6,246.6 72.7,260C62.7,273.4 22.4,262 0,262C-22.4,262 -62.7,273.4 -72.7,260C-82.6,246.6 -65.3,193.5 -64.7,175C-64,156.5 -64.4,152.2 -68.7,140C-72.9,127.8 -87.1,108.9 -92.3,96C-97.5,83.1 -101.1,66.2 -102.3,56C-103.6,45.8 -103.6,37.7 -100.3,30C-97.1,22.3 -88.9,12.5 -81.3,6C-73.7,-0.5 -59.7,-6.5 -50.9,-12C-42.1,-17.5 -32.1,-31.2 -24.3,-30C-16.5,-28.8 -7.5,-4 0,-4Z" fill="url(#gambi_74)"/><path d="M0,-4C7.5,-4 16.5,-28.8 24.3,-30C32.1,-31.2 42.1,-17.5 50.9,-12C59.7,-6.5 73.7,-0.5 81.3,6C88.9,12.5 97.1,22.3 100.3,30C103.6,37.7 103.6,45.8 102.3,56C101.1,66.2 97.5,83.1 92.3,96C87.1,108.9 72.9,127.8 68.7,140C64.4,152.2 64,156.5 64.7,175C65.3,193.5 82.6,246.6 72.7,260C62.7,273.4 22.4,262 0,262C-22.4,262 -62.7,273.4 -72.7,260C-82.6,246.6 -65.3,193.5 -64.7,175C-64,156.5 -64.4,152.2 -68.7,140C-72.9,127.8 -87.1,108.9 -92.3,96C-97.5,83.1 -101.1,66.2 -102.3,56C-103.6,45.8 -103.6,37.7 -100.3,30C-97.1,22.3 -88.9,12.5 -81.3,6C-73.7,-0.5 -59.7,-6.5 -50.9,-12C-42.1,-17.5 -32.1,-31.2 -24.3,-30C-16.5,-28.8 -7.5,-4 0,-4Z" fill="url(#gambi_73)"/><g mask="url(#gambi_72)"><path d="M0,-4C7.5,-4 16.5,-28.8 24.3,-30C32.1,-31.2 42.1,-17.5 50.9,-12C59.7,-6.5 73.7,-0.5 81.3,6C88.9,12.5 97.1,22.3 100.3,30C103.6,37.7 103.6,45.8 102.3,56C101.1,66.2 97.5,83.1 92.3,96C87.1,108.9 72.9,127.8 68.7,140C64.4,152.2 64,156.5 64.7,175C65.3,193.5 82.6,246.6 72.7,260C62.7,273.4 22.4,262 0,262C-22.4,262 -62.7,273.4 -72.7,260C-82.6,246.6 -65.3,193.5 -64.7,175C-64,156.5 -64.4,152.2 -68.7,140C-72.9,127.8 -87.1,108.9 -92.3,96C-97.5,83.1 -101.1,66.2 -102.3,56C-103.6,45.8 -103.6,37.7 -100.3,30C-97.1,22.3 -88.9,12.5 -81.3,6C-73.7,-0.5 -59.7,-6.5 -50.9,-12C-42.1,-17.5 -32.1,-31.2 -24.3,-30C-16.5,-28.8 -7.5,-4 0,-4Z" fill="url(#hatch)" transform="translate(-5.1 -4.5)"/></g></g><path d="M0,-4C7.5,-4 16.5,-28.8 24.3,-30C32.1,-31.2 42.1,-17.5 50.9,-12C59.7,-6.5 73.7,-0.5 81.3,6C88.9,12.5 97.1,22.3 100.3,30C103.6,37.7 103.6,45.8 102.3,56C101.1,66.2 97.5,83.1 92.3,96C87.1,108.9 72.9,127.8 68.7,140C64.4,152.2 64,156.5 64.7,175C65.3,193.5 82.6,246.6 72.7,260C62.7,273.4 22.4,262 0,262C-22.4,262 -62.7,273.4 -72.7,260C-82.6,246.6 -65.3,193.5 -64.7,175C-64,156.5 -64.4,152.2 -68.7,140C-72.9,127.8 -87.1,108.9 -92.3,96C-97.5,83.1 -101.1,66.2 -102.3,56C-103.6,45.8 -103.6,37.7 -100.3,30C-97.1,22.3 -88.9,12.5 -81.3,6C-73.7,-0.5 -59.7,-6.5 -50.9,-12C-42.1,-17.5 -32.1,-31.2 -24.3,-30C-16.5,-28.8 -7.5,-4 0,-4Z" fill="none" stroke="#120d1a" stroke-width="3.2" stroke-linejoin="round"/></g><path d="M250.2,274.2L322,471.5" stroke="#120d1a" stroke-width="11" stroke-linecap="round"/><path d="M250.2,274.2L322,471.5" stroke="#7a7a86" stroke-width="7" stroke-linecap="round"/><path d="M250.2,274.2L322,471.5" stroke="#fff" stroke-width="1.75" stroke-linecap="round" opacity="0.4" transform="translate(-1 -1)"/><g transform="translate(277.7 303.2) rotate(50)"><clipPath id="gambi_40"><path d="M2.9,-28.9Q37.5,-29.4 72.2,-21.9A22,22 0 0 1 72.2,21.9Q37.5,27.4 2.9,28.9A29,29 0 1 1 2.9,-28.9Z"/></clipPath><clipPath id="gambi_41"><path d="M2.9,-28.9Q37.5,-29.4 72.2,-21.9A22,22 0 0 1 72.2,21.9Q37.5,27.4 2.9,28.9A29,29 0 1 1 2.9,-28.9Z" transform="translate(3.7 -0.3)"/></clipPath><radialGradient id="gambi_43" cx="0.2" cy="0.5" r="0.62"><stop offset="0" stop-color="#fffbe8" stop-opacity="0.34"/><stop offset="1" stop-color="#fffbe8" stop-opacity="0"/></radialGradient><radialGradient id="gambi_44" cx="0.3" cy="0.5" r="0.75"><stop offset="0.45" stop-color="#0a0418" stop-opacity="0"/><stop offset="1" stop-color="#0a0418" stop-opacity="0.38"/></radialGradient><mask id="gambi_42"><rect x="-3000" y="-3000" width="6000" height="6000" fill="#fff"/><path d="M2.9,-28.9Q37.5,-29.4 72.2,-21.9A22,22 0 0 1 72.2,21.9Q37.5,27.4 2.9,28.9A29,29 0 1 1 2.9,-28.9Z" fill="#000" transform="translate(-13.2 1.2)"/></mask><g clip-path="url(#gambi_40)"><path d="M2.9,-28.9Q37.5,-29.4 72.2,-21.9A22,22 0 0 1 72.2,21.9Q37.5,27.4 2.9,28.9A29,29 0 1 1 2.9,-28.9Z" fill="#a58164"/><g clip-path="url(#gambi_41)"><path d="M2.9,-28.9Q37.5,-29.4 72.2,-21.9A22,22 0 0 1 72.2,21.9Q37.5,27.4 2.9,28.9A29,29 0 1 1 2.9,-28.9Z" fill="#543324"/><path d="M2.9,-28.9Q37.5,-29.4 72.2,-21.9A22,22 0 0 1 72.2,21.9Q37.5,27.4 2.9,28.9A29,29 0 1 1 2.9,-28.9Z" fill="#382220" transform="translate(-4.7 0.4)"/><path d="M2.9,-28.9Q37.5,-29.4 72.2,-21.9A22,22 0 0 1 72.2,21.9Q37.5,27.4 2.9,28.9A29,29 0 1 1 2.9,-28.9Z" fill="#7a4a2a" transform="translate(-15.5 1.4)"/></g><path d="M2.9,-28.9Q37.5,-29.4 72.2,-21.9A22,22 0 0 1 72.2,21.9Q37.5,27.4 2.9,28.9A29,29 0 1 1 2.9,-28.9Z" fill="url(#gambi_44)"/><path d="M2.9,-28.9Q37.5,-29.4 72.2,-21.9A22,22 0 0 1 72.2,21.9Q37.5,27.4 2.9,28.9A29,29 0 1 1 2.9,-28.9Z" fill="url(#gambi_43)"/><g mask="url(#gambi_42)"><path d="M2.9,-28.9Q37.5,-29.4 72.2,-21.9A22,22 0 0 1 72.2,21.9Q37.5,27.4 2.9,28.9A29,29 0 1 1 2.9,-28.9Z" fill="url(#hatch)" transform="translate(-4.7 0.4)"/></g></g><path d="M2.9,-28.9Q37.5,-29.4 72.2,-21.9A22,22 0 0 1 72.2,21.9Q37.5,27.4 2.9,28.9A29,29 0 1 1 2.9,-28.9Z" fill="none" stroke="#120d1a" stroke-width="3.2" stroke-linejoin="round"/></g><g transform="translate(322.7 356.9) rotate(110)"><clipPath id="gambi_45"><path d="M1.6,-20.8Q32.4,-21.5 63.2,-16.2A16.2,16.2 0 0 1 63.2,16.2Q32.4,20.5 1.6,20.8A20.9,20.9 0 1 1 1.6,-20.8Z"/></clipPath><clipPath id="gambi_46"><path d="M1.6,-20.8Q32.4,-21.5 63.2,-16.2A16.2,16.2 0 0 1 63.2,16.2Q32.4,20.5 1.6,20.8A20.9,20.9 0 1 1 1.6,-20.8Z" transform="translate(1.6 -3.3)"/></clipPath><radialGradient id="gambi_48" cx="0.4" cy="0.8" r="0.62"><stop offset="0" stop-color="#fffbe8" stop-opacity="0.34"/><stop offset="1" stop-color="#fffbe8" stop-opacity="0"/></radialGradient><radialGradient id="gambi_49" cx="0.4" cy="0.7" r="0.75"><stop offset="0.45" stop-color="#0a0418" stop-opacity="0"/><stop offset="1" stop-color="#0a0418" stop-opacity="0.38"/></radialGradient><mask id="gambi_47"><rect x="-3000" y="-3000" width="6000" height="6000" fill="#fff"/><path d="M1.6,-20.8Q32.4,-21.5 63.2,-16.2A16.2,16.2 0 0 1 63.2,16.2Q32.4,20.5 1.6,20.8A20.9,20.9 0 1 1 1.6,-20.8Z" fill="#000" transform="translate(-4 8.6)"/></mask><g clip-path="url(#gambi_45)"><path d="M1.6,-20.8Q32.4,-21.5 63.2,-16.2A16.2,16.2 0 0 1 63.2,16.2Q32.4,20.5 1.6,20.8A20.9,20.9 0 1 1 1.6,-20.8Z" fill="#a58164"/><g clip-path="url(#gambi_46)"><path d="M1.6,-20.8Q32.4,-21.5 63.2,-16.2A16.2,16.2 0 0 1 63.2,16.2Q32.4,20.5 1.6,20.8A20.9,20.9 0 1 1 1.6,-20.8Z" fill="#543324"/><path d="M1.6,-20.8Q32.4,-21.5 63.2,-16.2A16.2,16.2 0 0 1 63.2,16.2Q32.4,20.5 1.6,20.8A20.9,20.9 0 1 1 1.6,-20.8Z" fill="#382220" transform="translate(-1.4 3.1)"/><path d="M1.6,-20.8Q32.4,-21.5 63.2,-16.2A16.2,16.2 0 0 1 63.2,16.2Q32.4,20.5 1.6,20.8A20.9,20.9 0 1 1 1.6,-20.8Z" fill="#7a4a2a" transform="translate(-4.7 10.2)"/></g><path d="M1.6,-20.8Q32.4,-21.5 63.2,-16.2A16.2,16.2 0 0 1 63.2,16.2Q32.4,20.5 1.6,20.8A20.9,20.9 0 1 1 1.6,-20.8Z" fill="url(#gambi_49)"/><path d="M1.6,-20.8Q32.4,-21.5 63.2,-16.2A16.2,16.2 0 0 1 63.2,16.2Q32.4,20.5 1.6,20.8A20.9,20.9 0 1 1 1.6,-20.8Z" fill="url(#gambi_48)"/><g mask="url(#gambi_47)"><path d="M1.6,-20.8Q32.4,-21.5 63.2,-16.2A16.2,16.2 0 0 1 63.2,16.2Q32.4,20.5 1.6,20.8A20.9,20.9 0 1 1 1.6,-20.8Z" fill="url(#hatch)" transform="translate(-1.4 3.1)"/></g></g><path d="M1.6,-20.8Q32.4,-21.5 63.2,-16.2A16.2,16.2 0 0 1 63.2,16.2Q32.4,20.5 1.6,20.8A20.9,20.9 0 1 1 1.6,-20.8Z" fill="none" stroke="#120d1a" stroke-width="3.2" stroke-linejoin="round"/></g><g transform="translate(301.5 415.1) rotate(110)"><g transform="scale(1.566)"><clipPath id="gambi_50"><path d="M0,-12C2.7,-13.3 9.5,-14 14,-14C18.5,-14 24.2,-14 27,-12C29.8,-10 30.5,-5.7 31,-2C31.5,1.7 31.5,7.3 30,10C28.5,12.7 26,13.5 22,14C18,14.5 10,14.3 6,13C2,11.7 -0.7,9.2 -2,6C-3.3,2.8 -2.3,-3 -2,-6C-1.7,-9 -2.7,-10.7 0,-12Z"/></clipPath><clipPath id="gambi_51"><path d="M0,-12C2.7,-13.3 9.5,-14 14,-14C18.5,-14 24.2,-14 27,-12C29.8,-10 30.5,-5.7 31,-2C31.5,1.7 31.5,7.3 30,10C28.5,12.7 26,13.5 22,14C18,14.5 10,14.3 6,13C2,11.7 -0.7,9.2 -2,6C-3.3,2.8 -2.3,-3 -2,-6C-1.7,-9 -2.7,-10.7 0,-12Z" transform="translate(1.6 -3.3)"/></clipPath><radialGradient id="gambi_53" cx="0.4" cy="0.8" r="0.62"><stop offset="0" stop-color="#fffbe8" stop-opacity="0.34"/><stop offset="1" stop-color="#fffbe8" stop-opacity="0"/></radialGradient><radialGradient id="gambi_54" cx="0.4" cy="0.7" r="0.75"><stop offset="0.45" stop-color="#0a0418" stop-opacity="0"/><stop offset="1" stop-color="#0a0418" stop-opacity="0.38"/></radialGradient><mask id="gambi_52"><rect x="-3000" y="-3000" width="6000" height="6000" fill="#fff"/><path d="M0,-12C2.7,-13.3 9.5,-14 14,-14C18.5,-14 24.2,-14 27,-12C29.8,-10 30.5,-5.7 31,-2C31.5,1.7 31.5,7.3 30,10C28.5,12.7 26,13.5 22,14C18,14.5 10,14.3 6,13C2,11.7 -0.7,9.2 -2,6C-3.3,2.8 -2.3,-3 -2,-6C-1.7,-9 -2.7,-10.7 0,-12Z" fill="#000" transform="translate(-2 4.4)"/></mask><g clip-path="url(#gambi_50)"><path d="M0,-12C2.7,-13.3 9.5,-14 14,-14C18.5,-14 24.2,-14 27,-12C29.8,-10 30.5,-5.7 31,-2C31.5,1.7 31.5,7.3 30,10C28.5,12.7 26,13.5 22,14C18,14.5 10,14.3 6,13C2,11.7 -0.7,9.2 -2,6C-3.3,2.8 -2.3,-3 -2,-6C-1.7,-9 -2.7,-10.7 0,-12Z" fill="#6e6b6a"/><g clip-path="url(#gambi_51)"><path d="M0,-12C2.7,-13.3 9.5,-14 14,-14C18.5,-14 24.2,-14 27,-12C29.8,-10 30.5,-5.7 31,-2C31.5,1.7 31.5,7.3 30,10C28.5,12.7 26,13.5 22,14C18,14.5 10,14.3 6,13C2,11.7 -0.7,9.2 -2,6C-3.3,2.8 -2.3,-3 -2,-6C-1.7,-9 -2.7,-10.7 0,-12Z" fill="#201e2a"/><path d="M0,-12C2.7,-13.3 9.5,-14 14,-14C18.5,-14 24.2,-14 27,-12C29.8,-10 30.5,-5.7 31,-2C31.5,1.7 31.5,7.3 30,10C28.5,12.7 26,13.5 22,14C18,14.5 10,14.3 6,13C2,11.7 -0.7,9.2 -2,6C-3.3,2.8 -2.3,-3 -2,-6C-1.7,-9 -2.7,-10.7 0,-12Z" fill="#181524" transform="translate(-0.7 1.5)"/><path d="M0,-12C2.7,-13.3 9.5,-14 14,-14C18.5,-14 24.2,-14 27,-12C29.8,-10 30.5,-5.7 31,-2C31.5,1.7 31.5,7.3 30,10C28.5,12.7 26,13.5 22,14C18,14.5 10,14.3 6,13C2,11.7 -0.7,9.2 -2,6C-3.3,2.8 -2.3,-3 -2,-6C-1.7,-9 -2.7,-10.7 0,-12Z" fill="#2a2a32" transform="translate(-2.4 5.1)"/></g><path d="M0,-12C2.7,-13.3 9.5,-14 14,-14C18.5,-14 24.2,-14 27,-12C29.8,-10 30.5,-5.7 31,-2C31.5,1.7 31.5,7.3 30,10C28.5,12.7 26,13.5 22,14C18,14.5 10,14.3 6,13C2,11.7 -0.7,9.2 -2,6C-3.3,2.8 -2.3,-3 -2,-6C-1.7,-9 -2.7,-10.7 0,-12Z" fill="url(#gambi_54)"/><path d="M0,-12C2.7,-13.3 9.5,-14 14,-14C18.5,-14 24.2,-14 27,-12C29.8,-10 30.5,-5.7 31,-2C31.5,1.7 31.5,7.3 30,10C28.5,12.7 26,13.5 22,14C18,14.5 10,14.3 6,13C2,11.7 -0.7,9.2 -2,6C-3.3,2.8 -2.3,-3 -2,-6C-1.7,-9 -2.7,-10.7 0,-12Z" fill="url(#gambi_53)"/><g mask="url(#gambi_52)"><path d="M0,-12C2.7,-13.3 9.5,-14 14,-14C18.5,-14 24.2,-14 27,-12C29.8,-10 30.5,-5.7 31,-2C31.5,1.7 31.5,7.3 30,10C28.5,12.7 26,13.5 22,14C18,14.5 10,14.3 6,13C2,11.7 -0.7,9.2 -2,6C-3.3,2.8 -2.3,-3 -2,-6C-1.7,-9 -2.7,-10.7 0,-12Z" fill="url(#hatch)" transform="translate(-0.7 1.5)"/></g></g><path d="M0,-12C2.7,-13.3 9.5,-14 14,-14C18.5,-14 24.2,-14 27,-12C29.8,-10 30.5,-5.7 31,-2C31.5,1.7 31.5,7.3 30,10C28.5,12.7 26,13.5 22,14C18,14.5 10,14.3 6,13C2,11.7 -0.7,9.2 -2,6C-3.3,2.8 -2.3,-3 -2,-6C-1.7,-9 -2.7,-10.7 0,-12Z" fill="none" stroke="#120d1a" stroke-width="2.6" stroke-linejoin="round"/><path d="M24,11Q30,2 26,-12" fill="none" stroke="#120d1a" stroke-width="2.2" stroke-linecap="round" stroke-linejoin="round" /><path d="M16,6L27,6M16,0L29,-1M16,-6L27,-7" fill="none" stroke="#120d1a" stroke-width="1.8" stroke-linecap="round" stroke-linejoin="round" /><clipPath id="gambi_55"><path d="M4,9C5.7,10.7 11,13.5 14,14C17,14.5 21,13.3 22,12C23,10.7 22,7.3 20,6C18,4.7 12.7,4.3 10,4C7.3,3.7 5,3.2 4,4C3,4.8 2.3,7.3 4,9Z"/></clipPath><clipPath id="gambi_56"><path d="M4,9C5.7,10.7 11,13.5 14,14C17,14.5 21,13.3 22,12C23,10.7 22,7.3 20,6C18,4.7 12.7,4.3 10,4C7.3,3.7 5,3.2 4,4C3,4.8 2.3,7.3 4,9Z" transform="translate(1.6 -3.3)"/></clipPath><radialGradient id="gambi_58" cx="0.4" cy="0.8" r="0.62"><stop offset="0" stop-color="#fffbe8" stop-opacity="0.34"/><stop offset="1" stop-color="#fffbe8" stop-opacity="0"/></radialGradient><radialGradient id="gambi_59" cx="0.4" cy="0.7" r="0.75"><stop offset="0.45" stop-color="#0a0418" stop-opacity="0"/><stop offset="1" stop-color="#0a0418" stop-opacity="0.38"/></radialGradient><g clip-path="url(#gambi_55)"><path d="M4,9C5.7,10.7 11,13.5 14,14C17,14.5 21,13.3 22,12C23,10.7 22,7.3 20,6C18,4.7 12.7,4.3 10,4C7.3,3.7 5,3.2 4,4C3,4.8 2.3,7.3 4,9Z" fill="#6e6b6a"/><g clip-path="url(#gambi_56)"><path d="M4,9C5.7,10.7 11,13.5 14,14C17,14.5 21,13.3 22,12C23,10.7 22,7.3 20,6C18,4.7 12.7,4.3 10,4C7.3,3.7 5,3.2 4,4C3,4.8 2.3,7.3 4,9Z" fill="#201e2a"/><path d="M4,9C5.7,10.7 11,13.5 14,14C17,14.5 21,13.3 22,12C23,10.7 22,7.3 20,6C18,4.7 12.7,4.3 10,4C7.3,3.7 5,3.2 4,4C3,4.8 2.3,7.3 4,9Z" fill="#181524" transform="translate(-0.4 0.8)"/><path d="M4,9C5.7,10.7 11,13.5 14,14C17,14.5 21,13.3 22,12C23,10.7 22,7.3 20,6C18,4.7 12.7,4.3 10,4C7.3,3.7 5,3.2 4,4C3,4.8 2.3,7.3 4,9Z" fill="#2a2a32" transform="translate(-1.2 2.6)"/></g><path d="M4,9C5.7,10.7 11,13.5 14,14C17,14.5 21,13.3 22,12C23,10.7 22,7.3 20,6C18,4.7 12.7,4.3 10,4C7.3,3.7 5,3.2 4,4C3,4.8 2.3,7.3 4,9Z" fill="url(#gambi_59)"/><path d="M4,9C5.7,10.7 11,13.5 14,14C17,14.5 21,13.3 22,12C23,10.7 22,7.3 20,6C18,4.7 12.7,4.3 10,4C7.3,3.7 5,3.2 4,4C3,4.8 2.3,7.3 4,9Z" fill="url(#gambi_58)"/></g><path d="M4,9C5.7,10.7 11,13.5 14,14C17,14.5 21,13.3 22,12C23,10.7 22,7.3 20,6C18,4.7 12.7,4.3 10,4C7.3,3.7 5,3.2 4,4C3,4.8 2.3,7.3 4,9Z" fill="none" stroke="#120d1a" stroke-width="2.6" stroke-linejoin="round"/></g></g><g transform="translate(207.9 212.7) rotate(0) scale(0.9803999999999999)"><clipPath id="gambi_80"><path d="M0,-74C12.6,-74 36.3,-57.1 44,-48C51.7,-38.9 52.1,-22.6 54,-10C55.9,2.6 55.3,33.1 57,40C58.7,46.9 66.1,35.4 66,38C65.9,40.6 59.5,56.9 56,58C52.5,59.1 44.9,45.4 41.6,46C38.4,46.6 36.2,62.9 33,62C29.8,61.1 22.1,41.7 19.2,40C16.3,38.3 15.7,47.1 13,50C10.2,52.9 3.7,60 0,60C-3.7,60 -11.1,52.9 -13,50C-14.8,47.1 -12.1,38.3 -13.2,40C-14.3,41.7 -18.7,61.1 -21,62C-23.3,62.9 -26.4,46.6 -29.6,46C-32.9,45.4 -40.5,59.1 -44,58C-47.5,56.9 -52.1,40.6 -54,38C-55.9,35.4 -57,46.9 -57,40C-57,33.1 -55.9,2.6 -54,-10C-52.1,-22.6 -51.7,-38.9 -44,-48C-36.3,-57.1 -12.6,-74 0,-74Z"/></clipPath><clipPath id="gambi_81"><path d="M0,-74C12.6,-74 36.3,-57.1 44,-48C51.7,-38.9 52.1,-22.6 54,-10C55.9,2.6 55.3,33.1 57,40C58.7,46.9 66.1,35.4 66,38C65.9,40.6 59.5,56.9 56,58C52.5,59.1 44.9,45.4 41.6,46C38.4,46.6 36.2,62.9 33,62C29.8,61.1 22.1,41.7 19.2,40C16.3,38.3 15.7,47.1 13,50C10.2,52.9 3.7,60 0,60C-3.7,60 -11.1,52.9 -13,50C-14.8,47.1 -12.1,38.3 -13.2,40C-14.3,41.7 -18.7,61.1 -21,62C-23.3,62.9 -26.4,46.6 -29.6,46C-32.9,45.4 -40.5,59.1 -44,58C-47.5,56.9 -52.1,40.6 -54,38C-55.9,35.4 -57,46.9 -57,40C-57,33.1 -55.9,2.6 -54,-10C-52.1,-22.6 -51.7,-38.9 -44,-48C-36.3,-57.1 -12.6,-74 0,-74Z" transform="translate(2.6 2.6)"/></clipPath><radialGradient id="gambi_83" cx="0.3" cy="0.3" r="0.62"><stop offset="0" stop-color="#fffbe8" stop-opacity="0.34"/><stop offset="1" stop-color="#fffbe8" stop-opacity="0"/></radialGradient><radialGradient id="gambi_84" cx="0.3" cy="0.3" r="0.75"><stop offset="0.45" stop-color="#0a0418" stop-opacity="0"/><stop offset="1" stop-color="#0a0418" stop-opacity="0.38"/></radialGradient><mask id="gambi_82"><rect x="-3000" y="-3000" width="6000" height="6000" fill="#fff"/><path d="M0,-74C12.6,-74 36.3,-57.1 44,-48C51.7,-38.9 52.1,-22.6 54,-10C55.9,2.6 55.3,33.1 57,40C58.7,46.9 66.1,35.4 66,38C65.9,40.6 59.5,56.9 56,58C52.5,59.1 44.9,45.4 41.6,46C38.4,46.6 36.2,62.9 33,62C29.8,61.1 22.1,41.7 19.2,40C16.3,38.3 15.7,47.1 13,50C10.2,52.9 3.7,60 0,60C-3.7,60 -11.1,52.9 -13,50C-14.8,47.1 -12.1,38.3 -13.2,40C-14.3,41.7 -18.7,61.1 -21,62C-23.3,62.9 -26.4,46.6 -29.6,46C-32.9,45.4 -40.5,59.1 -44,58C-47.5,56.9 -52.1,40.6 -54,38C-55.9,35.4 -57,46.9 -57,40C-57,33.1 -55.9,2.6 -54,-10C-52.1,-22.6 -51.7,-38.9 -44,-48C-36.3,-57.1 -12.6,-74 0,-74Z" fill="#000" transform="translate(-5.9 -5.9)"/></mask><g clip-path="url(#gambi_80)"><path d="M0,-74C12.6,-74 36.3,-57.1 44,-48C51.7,-38.9 52.1,-22.6 54,-10C55.9,2.6 55.3,33.1 57,40C58.7,46.9 66.1,35.4 66,38C65.9,40.6 59.5,56.9 56,58C52.5,59.1 44.9,45.4 41.6,46C38.4,46.6 36.2,62.9 33,62C29.8,61.1 22.1,41.7 19.2,40C16.3,38.3 15.7,47.1 13,50C10.2,52.9 3.7,60 0,60C-3.7,60 -11.1,52.9 -13,50C-14.8,47.1 -12.1,38.3 -13.2,40C-14.3,41.7 -18.7,61.1 -21,62C-23.3,62.9 -26.4,46.6 -29.6,46C-32.9,45.4 -40.5,59.1 -44,58C-47.5,56.9 -52.1,40.6 -54,38C-55.9,35.4 -57,46.9 -57,40C-57,33.1 -55.9,2.6 -54,-10C-52.1,-22.6 -51.7,-38.9 -44,-48C-36.3,-57.1 -12.6,-74 0,-74Z" fill="#8c6e5a"/><g clip-path="url(#gambi_81)"><path d="M0,-74C12.6,-74 36.3,-57.1 44,-48C51.7,-38.9 52.1,-22.6 54,-10C55.9,2.6 55.3,33.1 57,40C58.7,46.9 66.1,35.4 66,38C65.9,40.6 59.5,56.9 56,58C52.5,59.1 44.9,45.4 41.6,46C38.4,46.6 36.2,62.9 33,62C29.8,61.1 22.1,41.7 19.2,40C16.3,38.3 15.7,47.1 13,50C10.2,52.9 3.7,60 0,60C-3.7,60 -11.1,52.9 -13,50C-14.8,47.1 -12.1,38.3 -13.2,40C-14.3,41.7 -18.7,61.1 -21,62C-23.3,62.9 -26.4,46.6 -29.6,46C-32.9,45.4 -40.5,59.1 -44,58C-47.5,56.9 -52.1,40.6 -54,38C-55.9,35.4 -57,46.9 -57,40C-57,33.1 -55.9,2.6 -54,-10C-52.1,-22.6 -51.7,-38.9 -44,-48C-36.3,-57.1 -12.6,-74 0,-74Z" fill="#3f241e"/><path d="M0,-74C12.6,-74 36.3,-57.1 44,-48C51.7,-38.9 52.1,-22.6 54,-10C55.9,2.6 55.3,33.1 57,40C58.7,46.9 66.1,35.4 66,38C65.9,40.6 59.5,56.9 56,58C52.5,59.1 44.9,45.4 41.6,46C38.4,46.6 36.2,62.9 33,62C29.8,61.1 22.1,41.7 19.2,40C16.3,38.3 15.7,47.1 13,50C10.2,52.9 3.7,60 0,60C-3.7,60 -11.1,52.9 -13,50C-14.8,47.1 -12.1,38.3 -13.2,40C-14.3,41.7 -18.7,61.1 -21,62C-23.3,62.9 -26.4,46.6 -29.6,46C-32.9,45.4 -40.5,59.1 -44,58C-47.5,56.9 -52.1,40.6 -54,38C-55.9,35.4 -57,46.9 -57,40C-57,33.1 -55.9,2.6 -54,-10C-52.1,-22.6 -51.7,-38.9 -44,-48C-36.3,-57.1 -12.6,-74 0,-74Z" fill="#2b191c" transform="translate(-2.1 -2.1)"/><path d="M0,-74C12.6,-74 36.3,-57.1 44,-48C51.7,-38.9 52.1,-22.6 54,-10C55.9,2.6 55.3,33.1 57,40C58.7,46.9 66.1,35.4 66,38C65.9,40.6 59.5,56.9 56,58C52.5,59.1 44.9,45.4 41.6,46C38.4,46.6 36.2,62.9 33,62C29.8,61.1 22.1,41.7 19.2,40C16.3,38.3 15.7,47.1 13,50C10.2,52.9 3.7,60 0,60C-3.7,60 -11.1,52.9 -13,50C-14.8,47.1 -12.1,38.3 -13.2,40C-14.3,41.7 -18.7,61.1 -21,62C-23.3,62.9 -26.4,46.6 -29.6,46C-32.9,45.4 -40.5,59.1 -44,58C-47.5,56.9 -52.1,40.6 -54,38C-55.9,35.4 -57,46.9 -57,40C-57,33.1 -55.9,2.6 -54,-10C-52.1,-22.6 -51.7,-38.9 -44,-48C-36.3,-57.1 -12.6,-74 0,-74Z" fill="#5a3420" transform="translate(-7 -7)"/></g><path d="M-46,0C-46.7,8.3 -50.7,42.7 -50,50C-49.3,57.3 -43.3,45 -42,44" fill="none" stroke="#2b191c" stroke-width="1.8" stroke-linecap="round" stroke-linejoin="round" /><path d="M46,0C46.7,8.3 48.7,42.7 50,50C51.3,57.3 53.3,45 54,44" fill="none" stroke="#2b191c" stroke-width="1.8" stroke-linecap="round" stroke-linejoin="round" /><path d="M-32.4,40C-30.9,41.7 -25.2,48.3 -23.7,50" fill="none" stroke="#2b191c" stroke-width="1.8" stroke-linecap="round" stroke-linejoin="round" /><path d="M32.4,40C33,41.7 35.2,48.3 35.7,50" fill="none" stroke="#2b191c" stroke-width="1.8" stroke-linecap="round" stroke-linejoin="round" /><path d="M0,-74C12.6,-74 36.3,-57.1 44,-48C51.7,-38.9 52.1,-22.6 54,-10C55.9,2.6 55.3,33.1 57,40C58.7,46.9 66.1,35.4 66,38C65.9,40.6 59.5,56.9 56,58C52.5,59.1 44.9,45.4 41.6,46C38.4,46.6 36.2,62.9 33,62C29.8,61.1 22.1,41.7 19.2,40C16.3,38.3 15.7,47.1 13,50C10.2,52.9 3.7,60 0,60C-3.7,60 -11.1,52.9 -13,50C-14.8,47.1 -12.1,38.3 -13.2,40C-14.3,41.7 -18.7,61.1 -21,62C-23.3,62.9 -26.4,46.6 -29.6,46C-32.9,45.4 -40.5,59.1 -44,58C-47.5,56.9 -52.1,40.6 -54,38C-55.9,35.4 -57,46.9 -57,40C-57,33.1 -55.9,2.6 -54,-10C-52.1,-22.6 -51.7,-38.9 -44,-48C-36.3,-57.1 -12.6,-74 0,-74Z" fill="url(#gambi_84)"/><path d="M0,-74C12.6,-74 36.3,-57.1 44,-48C51.7,-38.9 52.1,-22.6 54,-10C55.9,2.6 55.3,33.1 57,40C58.7,46.9 66.1,35.4 66,38C65.9,40.6 59.5,56.9 56,58C52.5,59.1 44.9,45.4 41.6,46C38.4,46.6 36.2,62.9 33,62C29.8,61.1 22.1,41.7 19.2,40C16.3,38.3 15.7,47.1 13,50C10.2,52.9 3.7,60 0,60C-3.7,60 -11.1,52.9 -13,50C-14.8,47.1 -12.1,38.3 -13.2,40C-14.3,41.7 -18.7,61.1 -21,62C-23.3,62.9 -26.4,46.6 -29.6,46C-32.9,45.4 -40.5,59.1 -44,58C-47.5,56.9 -52.1,40.6 -54,38C-55.9,35.4 -57,46.9 -57,40C-57,33.1 -55.9,2.6 -54,-10C-52.1,-22.6 -51.7,-38.9 -44,-48C-36.3,-57.1 -12.6,-74 0,-74Z" fill="url(#gambi_83)"/><g mask="url(#gambi_82)"><path d="M0,-74C12.6,-74 36.3,-57.1 44,-48C51.7,-38.9 52.1,-22.6 54,-10C55.9,2.6 55.3,33.1 57,40C58.7,46.9 66.1,35.4 66,38C65.9,40.6 59.5,56.9 56,58C52.5,59.1 44.9,45.4 41.6,46C38.4,46.6 36.2,62.9 33,62C29.8,61.1 22.1,41.7 19.2,40C16.3,38.3 15.7,47.1 13,50C10.2,52.9 3.7,60 0,60C-3.7,60 -11.1,52.9 -13,50C-14.8,47.1 -12.1,38.3 -13.2,40C-14.3,41.7 -18.7,61.1 -21,62C-23.3,62.9 -26.4,46.6 -29.6,46C-32.9,45.4 -40.5,59.1 -44,58C-47.5,56.9 -52.1,40.6 -54,38C-55.9,35.4 -57,46.9 -57,40C-57,33.1 -55.9,2.6 -54,-10C-52.1,-22.6 -51.7,-38.9 -44,-48C-36.3,-57.1 -12.6,-74 0,-74Z" fill="url(#hatch)" transform="translate(-2.1 -2.1)"/></g></g><path d="M0,-74C12.6,-74 36.3,-57.1 44,-48C51.7,-38.9 52.1,-22.6 54,-10C55.9,2.6 55.3,33.1 57,40C58.7,46.9 66.1,35.4 66,38C65.9,40.6 59.5,56.9 56,58C52.5,59.1 44.9,45.4 41.6,46C38.4,46.6 36.2,62.9 33,62C29.8,61.1 22.1,41.7 19.2,40C16.3,38.3 15.7,47.1 13,50C10.2,52.9 3.7,60 0,60C-3.7,60 -11.1,52.9 -13,50C-14.8,47.1 -12.1,38.3 -13.2,40C-14.3,41.7 -18.7,61.1 -21,62C-23.3,62.9 -26.4,46.6 -29.6,46C-32.9,45.4 -40.5,59.1 -44,58C-47.5,56.9 -52.1,40.6 -54,38C-55.9,35.4 -57,46.9 -57,40C-57,33.1 -55.9,2.6 -54,-10C-52.1,-22.6 -51.7,-38.9 -44,-48C-36.3,-57.1 -12.6,-74 0,-74Z" fill="none" stroke="#120d1a" stroke-width="3" stroke-linejoin="round"/><clipPath id="gambi_75"><path d="M-23.6,20C-16.6,17.2 20.1,17 26.4,20C32.6,23 27.1,38.2 26.7,44.3C26.3,50.3 27,64.7 23.1,68.5C19.2,72.3 2.3,75 -4.7,74.5C-11.6,74 -29.3,68.6 -32.4,64.6C-35.6,60.6 -31.1,47.9 -30,42.3C-28.9,36.7 -30.7,22.8 -23.6,20Z"/></clipPath><clipPath id="gambi_76"><path d="M-23.6,20C-16.6,17.2 20.1,17 26.4,20C32.6,23 27.1,38.2 26.7,44.3C26.3,50.3 27,64.7 23.1,68.5C19.2,72.3 2.3,75 -4.7,74.5C-11.6,74 -29.3,68.6 -32.4,64.6C-35.6,60.6 -31.1,47.9 -30,42.3C-28.9,36.7 -30.7,22.8 -23.6,20Z" transform="translate(2.6 2.6)"/></clipPath><radialGradient id="gambi_78" cx="0.3" cy="0.3" r="0.62"><stop offset="0" stop-color="#fffbe8" stop-opacity="0.34"/><stop offset="1" stop-color="#fffbe8" stop-opacity="0"/></radialGradient><radialGradient id="gambi_79" cx="0.3" cy="0.3" r="0.75"><stop offset="0.45" stop-color="#0a0418" stop-opacity="0"/><stop offset="1" stop-color="#0a0418" stop-opacity="0.38"/></radialGradient><mask id="gambi_77"><rect x="-3000" y="-3000" width="6000" height="6000" fill="#fff"/><path d="M-23.6,20C-16.6,17.2 20.1,17 26.4,20C32.6,23 27.1,38.2 26.7,44.3C26.3,50.3 27,64.7 23.1,68.5C19.2,72.3 2.3,75 -4.7,74.5C-11.6,74 -29.3,68.6 -32.4,64.6C-35.6,60.6 -31.1,47.9 -30,42.3C-28.9,36.7 -30.7,22.8 -23.6,20Z" fill="#000" transform="translate(-4.2 -4.2)"/></mask><g clip-path="url(#gambi_75)"><path d="M-23.6,20C-16.6,17.2 20.1,17 26.4,20C32.6,23 27.1,38.2 26.7,44.3C26.3,50.3 27,64.7 23.1,68.5C19.2,72.3 2.3,75 -4.7,74.5C-11.6,74 -29.3,68.6 -32.4,64.6C-35.6,60.6 -31.1,47.9 -30,42.3C-28.9,36.7 -30.7,22.8 -23.6,20Z" fill="#796b85"/><g clip-path="url(#gambi_76)"><path d="M-23.6,20C-16.6,17.2 20.1,17 26.4,20C32.6,23 27.1,38.2 26.7,44.3C26.3,50.3 27,64.7 23.1,68.5C19.2,72.3 2.3,75 -4.7,74.5C-11.6,74 -29.3,68.6 -32.4,64.6C-35.6,60.6 -31.1,47.9 -30,42.3C-28.9,36.7 -30.7,22.8 -23.6,20Z" fill="#2a1e45"/><path d="M-23.6,20C-16.6,17.2 20.1,17 26.4,20C32.6,23 27.1,38.2 26.7,44.3C26.3,50.3 27,64.7 23.1,68.5C19.2,72.3 2.3,75 -4.7,74.5C-11.6,74 -29.3,68.6 -32.4,64.6C-35.6,60.6 -31.1,47.9 -30,42.3C-28.9,36.7 -30.7,22.8 -23.6,20Z" fill="#1f1535" transform="translate(-1.5 -1.5)"/><path d="M-23.6,20C-16.6,17.2 20.1,17 26.4,20C32.6,23 27.1,38.2 26.7,44.3C26.3,50.3 27,64.7 23.1,68.5C19.2,72.3 2.3,75 -4.7,74.5C-11.6,74 -29.3,68.6 -32.4,64.6C-35.6,60.6 -31.1,47.9 -30,42.3C-28.9,36.7 -30.7,22.8 -23.6,20Z" fill="#3a2a5a" transform="translate(-5 -5)"/></g><path d="M-0.8,-66C6.5,-66 14.8,-64.5 20.6,-62C26.5,-59.5 30.9,-55.8 34.3,-51C37.7,-46.2 39.5,-39.8 41.1,-33C42.7,-26.2 43.8,-17.5 43.9,-10C44,-2.5 42.8,5.2 41.6,12C40.4,18.8 39.3,25.3 36.7,31C34.1,36.7 30,42 26,46C22,50 16.6,53.2 12.6,55C8.6,56.8 5.6,57 2,57C-1.7,57 -5.1,56.8 -9.4,55C-13.7,53.2 -19.5,50 -24,46C-28.4,42 -33,36.7 -36.1,31C-39.2,25.3 -40.7,18.8 -42.4,12C-44.1,5.2 -45.7,-2.5 -46.1,-10C-46.5,-17.5 -46.3,-26.2 -44.9,-33C-43.5,-39.8 -41.3,-46.2 -37.7,-51C-34.1,-55.8 -29.5,-59.5 -23.4,-62C-17.2,-64.5 -8.1,-66 -0.8,-66Z" fill="#1f1535" transform="translate(1 13)"/><path d="M-23.6,20C-16.6,17.2 20.1,17 26.4,20C32.6,23 27.1,38.2 26.7,44.3C26.3,50.3 27,64.7 23.1,68.5C19.2,72.3 2.3,75 -4.7,74.5C-11.6,74 -29.3,68.6 -32.4,64.6C-35.6,60.6 -31.1,47.9 -30,42.3C-28.9,36.7 -30.7,22.8 -23.6,20Z" fill="url(#gambi_79)"/><path d="M-23.6,20C-16.6,17.2 20.1,17 26.4,20C32.6,23 27.1,38.2 26.7,44.3C26.3,50.3 27,64.7 23.1,68.5C19.2,72.3 2.3,75 -4.7,74.5C-11.6,74 -29.3,68.6 -32.4,64.6C-35.6,60.6 -31.1,47.9 -30,42.3C-28.9,36.7 -30.7,22.8 -23.6,20Z" fill="url(#gambi_78)"/><g mask="url(#gambi_77)"><path d="M-23.6,20C-16.6,17.2 20.1,17 26.4,20C32.6,23 27.1,38.2 26.7,44.3C26.3,50.3 27,64.7 23.1,68.5C19.2,72.3 2.3,75 -4.7,74.5C-11.6,74 -29.3,68.6 -32.4,64.6C-35.6,60.6 -31.1,47.9 -30,42.3C-28.9,36.7 -30.7,22.8 -23.6,20Z" fill="url(#hatch)" transform="translate(-1.5 -1.5)"/></g></g><path d="M-23.6,20C-16.6,17.2 20.1,17 26.4,20C32.6,23 27.1,38.2 26.7,44.3C26.3,50.3 27,64.7 23.1,68.5C19.2,72.3 2.3,75 -4.7,74.5C-11.6,74 -29.3,68.6 -32.4,64.6C-35.6,60.6 -31.1,47.9 -30,42.3C-28.9,36.7 -30.7,22.8 -23.6,20Z" fill="none" stroke="#120d1a" stroke-width="3" stroke-linejoin="round"/><clipPath id="gambi_85"><path d="M-39.9,-12C-41.4,-17.3 -47.8,-17.7 -49.9,-16C-52.1,-14.3 -53.1,-7 -52.9,-2C-52.8,3 -50.9,11 -48.9,14C-46.9,17 -42.4,20.3 -40.9,16C-39.4,11.7 -38.4,-6.7 -39.9,-12Z"/></clipPath><clipPath id="gambi_86"><path d="M-39.9,-12C-41.4,-17.3 -47.8,-17.7 -49.9,-16C-52.1,-14.3 -53.1,-7 -52.9,-2C-52.8,3 -50.9,11 -48.9,14C-46.9,17 -42.4,20.3 -40.9,16C-39.4,11.7 -38.4,-6.7 -39.9,-12Z" transform="translate(2.6 2.6)"/></clipPath><radialGradient id="gambi_88" cx="0.3" cy="0.3" r="0.62"><stop offset="0" stop-color="#fffbe8" stop-opacity="0.34"/><stop offset="1" stop-color="#fffbe8" stop-opacity="0"/></radialGradient><radialGradient id="gambi_89" cx="0.3" cy="0.3" r="0.75"><stop offset="0.45" stop-color="#0a0418" stop-opacity="0"/><stop offset="1" stop-color="#0a0418" stop-opacity="0.38"/></radialGradient><g clip-path="url(#gambi_85)"><path d="M-39.9,-12C-41.4,-17.3 -47.8,-17.7 -49.9,-16C-52.1,-14.3 -53.1,-7 -52.9,-2C-52.8,3 -50.9,11 -48.9,14C-46.9,17 -42.4,20.3 -40.9,16C-39.4,11.7 -38.4,-6.7 -39.9,-12Z" fill="#f4d5b6"/><g clip-path="url(#gambi_86)"><path d="M-39.9,-12C-41.4,-17.3 -47.8,-17.7 -49.9,-16C-52.1,-14.3 -53.1,-7 -52.9,-2C-52.8,3 -50.9,11 -48.9,14C-46.9,17 -42.4,20.3 -40.9,16C-39.4,11.7 -38.4,-6.7 -39.9,-12Z" fill="#9e8272"/><path d="M-39.9,-12C-41.4,-17.3 -47.8,-17.7 -49.9,-16C-52.1,-14.3 -53.1,-7 -52.9,-2C-52.8,3 -50.9,11 -48.9,14C-46.9,17 -42.4,20.3 -40.9,16C-39.4,11.7 -38.4,-6.7 -39.9,-12Z" fill="#635050" transform="translate(-0.9 -0.9)"/><path d="M-39.9,-12C-41.4,-17.3 -47.8,-17.7 -49.9,-16C-52.1,-14.3 -53.1,-7 -52.9,-2C-52.8,3 -50.9,11 -48.9,14C-46.9,17 -42.4,20.3 -40.9,16C-39.4,11.7 -38.4,-6.7 -39.9,-12Z" fill="#efc6a2" transform="translate(-3 -3)"/></g><path d="M-39.9,-12C-41.4,-17.3 -47.8,-17.7 -49.9,-16C-52.1,-14.3 -53.1,-7 -52.9,-2C-52.8,3 -50.9,11 -48.9,14C-46.9,17 -42.4,20.3 -40.9,16C-39.4,11.7 -38.4,-6.7 -39.9,-12Z" fill="url(#gambi_89)"/><path d="M-39.9,-12C-41.4,-17.3 -47.8,-17.7 -49.9,-16C-52.1,-14.3 -53.1,-7 -52.9,-2C-52.8,3 -50.9,11 -48.9,14C-46.9,17 -42.4,20.3 -40.9,16C-39.4,11.7 -38.4,-6.7 -39.9,-12Z" fill="url(#gambi_88)"/></g><path d="M-39.9,-12C-41.4,-17.3 -47.8,-17.7 -49.9,-16C-52.1,-14.3 -53.1,-7 -52.9,-2C-52.8,3 -50.9,11 -48.9,14C-46.9,17 -42.4,20.3 -40.9,16C-39.4,11.7 -38.4,-6.7 -39.9,-12Z" fill="none" stroke="#120d1a" stroke-width="2.6" stroke-linejoin="round"/><path d="M-46.9,-8Q-49.9,0 -45.9,8" fill="none" stroke="#635050" stroke-width="1.6" stroke-linecap="round" stroke-linejoin="round" /><clipPath id="gambi_90"><path d="M40.1,-12C41.6,-17.3 47.9,-17.7 50.1,-16C52.2,-14.3 53.2,-7 53.1,-2C52.9,3 51.1,11 49.1,14C47.1,17 42.6,20.3 41.1,16C39.6,11.7 38.6,-6.7 40.1,-12Z"/></clipPath><clipPath id="gambi_91"><path d="M40.1,-12C41.6,-17.3 47.9,-17.7 50.1,-16C52.2,-14.3 53.2,-7 53.1,-2C52.9,3 51.1,11 49.1,14C47.1,17 42.6,20.3 41.1,16C39.6,11.7 38.6,-6.7 40.1,-12Z" transform="translate(2.6 2.6)"/></clipPath><radialGradient id="gambi_93" cx="0.3" cy="0.3" r="0.62"><stop offset="0" stop-color="#fffbe8" stop-opacity="0.34"/><stop offset="1" stop-color="#fffbe8" stop-opacity="0"/></radialGradient><radialGradient id="gambi_94" cx="0.3" cy="0.3" r="0.75"><stop offset="0.45" stop-color="#0a0418" stop-opacity="0"/><stop offset="1" stop-color="#0a0418" stop-opacity="0.38"/></radialGradient><g clip-path="url(#gambi_90)"><path d="M40.1,-12C41.6,-17.3 47.9,-17.7 50.1,-16C52.2,-14.3 53.2,-7 53.1,-2C52.9,3 51.1,11 49.1,14C47.1,17 42.6,20.3 41.1,16C39.6,11.7 38.6,-6.7 40.1,-12Z" fill="#f4d5b6"/><g clip-path="url(#gambi_91)"><path d="M40.1,-12C41.6,-17.3 47.9,-17.7 50.1,-16C52.2,-14.3 53.2,-7 53.1,-2C52.9,3 51.1,11 49.1,14C47.1,17 42.6,20.3 41.1,16C39.6,11.7 38.6,-6.7 40.1,-12Z" fill="#9e8272"/><path d="M40.1,-12C41.6,-17.3 47.9,-17.7 50.1,-16C52.2,-14.3 53.2,-7 53.1,-2C52.9,3 51.1,11 49.1,14C47.1,17 42.6,20.3 41.1,16C39.6,11.7 38.6,-6.7 40.1,-12Z" fill="#635050" transform="translate(-0.9 -0.9)"/><path d="M40.1,-12C41.6,-17.3 47.9,-17.7 50.1,-16C52.2,-14.3 53.2,-7 53.1,-2C52.9,3 51.1,11 49.1,14C47.1,17 42.6,20.3 41.1,16C39.6,11.7 38.6,-6.7 40.1,-12Z" fill="#efc6a2" transform="translate(-3 -3)"/></g><path d="M40.1,-12C41.6,-17.3 47.9,-17.7 50.1,-16C52.2,-14.3 53.2,-7 53.1,-2C52.9,3 51.1,11 49.1,14C47.1,17 42.6,20.3 41.1,16C39.6,11.7 38.6,-6.7 40.1,-12Z" fill="url(#gambi_94)"/><path d="M40.1,-12C41.6,-17.3 47.9,-17.7 50.1,-16C52.2,-14.3 53.2,-7 53.1,-2C52.9,3 51.1,11 49.1,14C47.1,17 42.6,20.3 41.1,16C39.6,11.7 38.6,-6.7 40.1,-12Z" fill="url(#gambi_93)"/></g><path d="M40.1,-12C41.6,-17.3 47.9,-17.7 50.1,-16C52.2,-14.3 53.2,-7 53.1,-2C52.9,3 51.1,11 49.1,14C47.1,17 42.6,20.3 41.1,16C39.6,11.7 38.6,-6.7 40.1,-12Z" fill="none" stroke="#120d1a" stroke-width="2.6" stroke-linejoin="round"/><path d="M47.1,-8Q50.1,0 46.1,8" fill="none" stroke="#635050" stroke-width="1.6" stroke-linecap="round" stroke-linejoin="round" /><clipPath id="gambi_95"><path d="M-0.8,-66C6.5,-66 14.8,-64.5 20.6,-62C26.5,-59.5 30.9,-55.8 34.3,-51C37.7,-46.2 39.5,-39.8 41.1,-33C42.7,-26.2 43.8,-17.5 43.9,-10C44,-2.5 42.8,5.2 41.6,12C40.4,18.8 39.3,25.3 36.7,31C34.1,36.7 30,42 26,46C22,50 16.6,53.2 12.6,55C8.6,56.8 5.6,57 2,57C-1.7,57 -5.1,56.8 -9.4,55C-13.7,53.2 -19.5,50 -24,46C-28.4,42 -33,36.7 -36.1,31C-39.2,25.3 -40.7,18.8 -42.4,12C-44.1,5.2 -45.7,-2.5 -46.1,-10C-46.5,-17.5 -46.3,-26.2 -44.9,-33C-43.5,-39.8 -41.3,-46.2 -37.7,-51C-34.1,-55.8 -29.5,-59.5 -23.4,-62C-17.2,-64.5 -8.1,-66 -0.8,-66Z"/></clipPath><clipPath id="gambi_96"><path d="M-0.8,-66C6.5,-66 14.8,-64.5 20.6,-62C26.5,-59.5 30.9,-55.8 34.3,-51C37.7,-46.2 39.5,-39.8 41.1,-33C42.7,-26.2 43.8,-17.5 43.9,-10C44,-2.5 42.8,5.2 41.6,12C40.4,18.8 39.3,25.3 36.7,31C34.1,36.7 30,42 26,46C22,50 16.6,53.2 12.6,55C8.6,56.8 5.6,57 2,57C-1.7,57 -5.1,56.8 -9.4,55C-13.7,53.2 -19.5,50 -24,46C-28.4,42 -33,36.7 -36.1,31C-39.2,25.3 -40.7,18.8 -42.4,12C-44.1,5.2 -45.7,-2.5 -46.1,-10C-46.5,-17.5 -46.3,-26.2 -44.9,-33C-43.5,-39.8 -41.3,-46.2 -37.7,-51C-34.1,-55.8 -29.5,-59.5 -23.4,-62C-17.2,-64.5 -8.1,-66 -0.8,-66Z" transform="translate(3 3)"/></clipPath><radialGradient id="gambi_98" cx="0.3" cy="0.3" r="0.62"><stop offset="0" stop-color="#fffbe8" stop-opacity="0.34"/><stop offset="1" stop-color="#fffbe8" stop-opacity="0"/></radialGradient><radialGradient id="gambi_99" cx="0.3" cy="0.3" r="0.75"><stop offset="0.45" stop-color="#0a0418" stop-opacity="0"/><stop offset="1" stop-color="#0a0418" stop-opacity="0.38"/></radialGradient><mask id="gambi_97"><rect x="-3000" y="-3000" width="6000" height="6000" fill="#fff"/><path d="M-0.8,-66C6.5,-66 14.8,-64.5 20.6,-62C26.5,-59.5 30.9,-55.8 34.3,-51C37.7,-46.2 39.5,-39.8 41.1,-33C42.7,-26.2 43.8,-17.5 43.9,-10C44,-2.5 42.8,5.2 41.6,12C40.4,18.8 39.3,25.3 36.7,31C34.1,36.7 30,42 26,46C22,50 16.6,53.2 12.6,55C8.6,56.8 5.6,57 2,57C-1.7,57 -5.1,56.8 -9.4,55C-13.7,53.2 -19.5,50 -24,46C-28.4,42 -33,36.7 -36.1,31C-39.2,25.3 -40.7,18.8 -42.4,12C-44.1,5.2 -45.7,-2.5 -46.1,-10C-46.5,-17.5 -46.3,-26.2 -44.9,-33C-43.5,-39.8 -41.3,-46.2 -37.7,-51C-34.1,-55.8 -29.5,-59.5 -23.4,-62C-17.2,-64.5 -8.1,-66 -0.8,-66Z" fill="#000" transform="translate(-7.6 -7.6)"/></mask><g clip-path="url(#gambi_95)"><path d="M-0.8,-66C6.5,-66 14.8,-64.5 20.6,-62C26.5,-59.5 30.9,-55.8 34.3,-51C37.7,-46.2 39.5,-39.8 41.1,-33C42.7,-26.2 43.8,-17.5 43.9,-10C44,-2.5 42.8,5.2 41.6,12C40.4,18.8 39.3,25.3 36.7,31C34.1,36.7 30,42 26,46C22,50 16.6,53.2 12.6,55C8.6,56.8 5.6,57 2,57C-1.7,57 -5.1,56.8 -9.4,55C-13.7,53.2 -19.5,50 -24,46C-28.4,42 -33,36.7 -36.1,31C-39.2,25.3 -40.7,18.8 -42.4,12C-44.1,5.2 -45.7,-2.5 -46.1,-10C-46.5,-17.5 -46.3,-26.2 -44.9,-33C-43.5,-39.8 -41.3,-46.2 -37.7,-51C-34.1,-55.8 -29.5,-59.5 -23.4,-62C-17.2,-64.5 -8.1,-66 -0.8,-66Z" fill="#f4d5b6"/><g clip-path="url(#gambi_96)"><path d="M-0.8,-66C6.5,-66 14.8,-64.5 20.6,-62C26.5,-59.5 30.9,-55.8 34.3,-51C37.7,-46.2 39.5,-39.8 41.1,-33C42.7,-26.2 43.8,-17.5 43.9,-10C44,-2.5 42.8,5.2 41.6,12C40.4,18.8 39.3,25.3 36.7,31C34.1,36.7 30,42 26,46C22,50 16.6,53.2 12.6,55C8.6,56.8 5.6,57 2,57C-1.7,57 -5.1,56.8 -9.4,55C-13.7,53.2 -19.5,50 -24,46C-28.4,42 -33,36.7 -36.1,31C-39.2,25.3 -40.7,18.8 -42.4,12C-44.1,5.2 -45.7,-2.5 -46.1,-10C-46.5,-17.5 -46.3,-26.2 -44.9,-33C-43.5,-39.8 -41.3,-46.2 -37.7,-51C-34.1,-55.8 -29.5,-59.5 -23.4,-62C-17.2,-64.5 -8.1,-66 -0.8,-66Z" fill="#9e8272"/><path d="M-0.8,-66C6.5,-66 14.8,-64.5 20.6,-62C26.5,-59.5 30.9,-55.8 34.3,-51C37.7,-46.2 39.5,-39.8 41.1,-33C42.7,-26.2 43.8,-17.5 43.9,-10C44,-2.5 42.8,5.2 41.6,12C40.4,18.8 39.3,25.3 36.7,31C34.1,36.7 30,42 26,46C22,50 16.6,53.2 12.6,55C8.6,56.8 5.6,57 2,57C-1.7,57 -5.1,56.8 -9.4,55C-13.7,53.2 -19.5,50 -24,46C-28.4,42 -33,36.7 -36.1,31C-39.2,25.3 -40.7,18.8 -42.4,12C-44.1,5.2 -45.7,-2.5 -46.1,-10C-46.5,-17.5 -46.3,-26.2 -44.9,-33C-43.5,-39.8 -41.3,-46.2 -37.7,-51C-34.1,-55.8 -29.5,-59.5 -23.4,-62C-17.2,-64.5 -8.1,-66 -0.8,-66Z" fill="#635050" transform="translate(-2.7 -2.7)"/><path d="M-0.8,-66C6.5,-66 14.8,-64.5 20.6,-62C26.5,-59.5 30.9,-55.8 34.3,-51C37.7,-46.2 39.5,-39.8 41.1,-33C42.7,-26.2 43.8,-17.5 43.9,-10C44,-2.5 42.8,5.2 41.6,12C40.4,18.8 39.3,25.3 36.7,31C34.1,36.7 30,42 26,46C22,50 16.6,53.2 12.6,55C8.6,56.8 5.6,57 2,57C-1.7,57 -5.1,56.8 -9.4,55C-13.7,53.2 -19.5,50 -24,46C-28.4,42 -33,36.7 -36.1,31C-39.2,25.3 -40.7,18.8 -42.4,12C-44.1,5.2 -45.7,-2.5 -46.1,-10C-46.5,-17.5 -46.3,-26.2 -44.9,-33C-43.5,-39.8 -41.3,-46.2 -37.7,-51C-34.1,-55.8 -29.5,-59.5 -23.4,-62C-17.2,-64.5 -8.1,-66 -0.8,-66Z" fill="#efc6a2" transform="translate(-9 -9)"/></g><path d="M32.2,-26C35.9,-28.3 48.5,-16.7 51,-8C53.5,0.7 50,16 47,26C44,36 36.7,51.3 33,52C29.3,52.7 25.7,37.7 25,30C24.3,22.3 27.8,15.3 29,6C30.2,-3.3 28.5,-23.7 32.2,-26Z" fill="#635050" opacity="0.55"/><path d="M6.6,4C7.9,5.3 11.6,12.7 11.6,16C11.6,19.3 8.3,23.7 6.6,24C4.9,24.3 2.1,20.7 1.6,18C1.1,15.3 2.8,10.3 3.6,8C4.4,5.7 5.3,2.7 6.6,4Z" fill="#635050" opacity="0.8"/><ellipse cx="-7" cy="-42" rx="20" ry="9" fill="#f4d5b6" opacity="0.6" filter="url(#soft)"/><ellipse cx="45" cy="-24" rx="8" ry="15" fill="#635050" opacity="0.5" filter="url(#soft)"/><ellipse cx="-14.7" cy="-5" rx="17.7" ry="10" fill="#635050" opacity="0.6" filter="url(#soft)"/><ellipse cx="-17.7" cy="-21" rx="13.5" ry="3.5" fill="#f4d5b6" opacity="0.5" filter="url(#soft)"/><ellipse cx="19.3" cy="-5" rx="16.3" ry="10" fill="#635050" opacity="0.8" filter="url(#soft)"/><ellipse cx="16.3" cy="-21" rx="12.5" ry="3.5" fill="#f4d5b6" opacity="0.5" filter="url(#soft)"/><path d="M-32,10Q-27,30 -17,42" fill="none" stroke="#635050" stroke-width="9" opacity="0.4" filter="url(#soft)"/><path d="M38,10Q33,30 24,42" fill="none" stroke="#635050" stroke-width="11" opacity="0.6" filter="url(#soft)"/><ellipse cx="-22" cy="8" rx="10" ry="5" fill="#f4d5b6" opacity="0.5" filter="url(#soft)"/><path d="M0.6,-6L1.6,16" stroke="#f4d5b6" stroke-width="3.4" stroke-linecap="round" opacity="0.8" filter="url(#soft)"/><ellipse cx="4.6" cy="28" rx="9" ry="3" fill="#635050" opacity="0.6" filter="url(#soft)"/><ellipse cx="4.4" cy="47" rx="10" ry="3.6" fill="#635050" opacity="0.5" filter="url(#soft)"/><ellipse cx="1.4" cy="53" rx="8" ry="3" fill="#f4d5b6" opacity="0.5" filter="url(#soft)"/><path d="M-0.8,-66C6.5,-66 14.8,-64.5 20.6,-62C26.5,-59.5 30.9,-55.8 34.3,-51C37.7,-46.2 39.5,-39.8 41.1,-33C42.7,-26.2 43.8,-17.5 43.9,-10C44,-2.5 42.8,5.2 41.6,12C40.4,18.8 39.3,25.3 36.7,31C34.1,36.7 30,42 26,46C22,50 16.6,53.2 12.6,55C8.6,56.8 5.6,57 2,57C-1.7,57 -5.1,56.8 -9.4,55C-13.7,53.2 -19.5,50 -24,46C-28.4,42 -33,36.7 -36.1,31C-39.2,25.3 -40.7,18.8 -42.4,12C-44.1,5.2 -45.7,-2.5 -46.1,-10C-46.5,-17.5 -46.3,-26.2 -44.9,-33C-43.5,-39.8 -41.3,-46.2 -37.7,-51C-34.1,-55.8 -29.5,-59.5 -23.4,-62C-17.2,-64.5 -8.1,-66 -0.8,-66Z" fill="url(#gambi_99)"/><path d="M-0.8,-66C6.5,-66 14.8,-64.5 20.6,-62C26.5,-59.5 30.9,-55.8 34.3,-51C37.7,-46.2 39.5,-39.8 41.1,-33C42.7,-26.2 43.8,-17.5 43.9,-10C44,-2.5 42.8,5.2 41.6,12C40.4,18.8 39.3,25.3 36.7,31C34.1,36.7 30,42 26,46C22,50 16.6,53.2 12.6,55C8.6,56.8 5.6,57 2,57C-1.7,57 -5.1,56.8 -9.4,55C-13.7,53.2 -19.5,50 -24,46C-28.4,42 -33,36.7 -36.1,31C-39.2,25.3 -40.7,18.8 -42.4,12C-44.1,5.2 -45.7,-2.5 -46.1,-10C-46.5,-17.5 -46.3,-26.2 -44.9,-33C-43.5,-39.8 -41.3,-46.2 -37.7,-51C-34.1,-55.8 -29.5,-59.5 -23.4,-62C-17.2,-64.5 -8.1,-66 -0.8,-66Z" fill="url(#gambi_98)"/><g mask="url(#gambi_97)"><path d="M-0.8,-66C6.5,-66 14.8,-64.5 20.6,-62C26.5,-59.5 30.9,-55.8 34.3,-51C37.7,-46.2 39.5,-39.8 41.1,-33C42.7,-26.2 43.8,-17.5 43.9,-10C44,-2.5 42.8,5.2 41.6,12C40.4,18.8 39.3,25.3 36.7,31C34.1,36.7 30,42 26,46C22,50 16.6,53.2 12.6,55C8.6,56.8 5.6,57 2,57C-1.7,57 -5.1,56.8 -9.4,55C-13.7,53.2 -19.5,50 -24,46C-28.4,42 -33,36.7 -36.1,31C-39.2,25.3 -40.7,18.8 -42.4,12C-44.1,5.2 -45.7,-2.5 -46.1,-10C-46.5,-17.5 -46.3,-26.2 -44.9,-33C-43.5,-39.8 -41.3,-46.2 -37.7,-51C-34.1,-55.8 -29.5,-59.5 -23.4,-62C-17.2,-64.5 -8.1,-66 -0.8,-66Z" fill="url(#hatch)" transform="translate(-2.7 -2.7)"/></g></g><ellipse cx="-14.7" cy="-5" rx="15.6" ry="9.4" fill="#635050" opacity="0.42"/><path d="M-3.5,-1Q-13.1,-8.8 -26,-3Q-15.9,3.8 -3.5,-1Z" fill="#fbf6ee"/><clipPath id="gambi_100"><path d="M-3.5,-1Q-13.1,-8.8 -26,-3Q-15.9,3.8 -3.5,-1Z"/></clipPath><g clip-path="url(#gambi_100)"><circle cx="-13.2" cy="-1.2" r="4.5" fill="#ff2a4a"/><circle cx="-13.2" cy="-1.2" r="2.1" fill="#120d1a"/><circle cx="-14.9" cy="-3" r="1.2" fill="#fff"/><path d="M-3.5,-1Q-14.7,-4.8 -26,-3L-26,-3L-26,-22L-3.5,-22Z" fill="#000" opacity="0.18"/></g><path d="M-2.8,-1.7C-3.6,-3 -7.3,-7.7 -9.6,-8.9C-12,-10.1 -16.8,-10.7 -19.2,-10C-21.6,-9.3 -25,-4.8 -26.4,-4.1C-27.8,-3.4 -28.5,-5 -28.9,-5C-29.3,-4.9 -29.8,-4.5 -29.3,-4C-28.8,-3.6 -27.2,-1.5 -25.6,-1.9C-24,-2.2 -20.3,-5.8 -18.2,-6.4C-16.1,-7 -12.9,-7.2 -10.9,-6.3C-8.9,-5.4 -5.4,-0.9 -4.2,-0.3C-3.1,0.4 -2,-0.5 -2.8,-1.7Z" fill="#120d1a"/><path d="M-5.8,0Q-14.7,4.6 -24.3,-1" fill="none" stroke="#120d1a" stroke-width="1.1440000000000001" stroke-linecap="round" stroke-linejoin="round" opacity="0.55"/><path d="M-3,-15Q-17.1,-21.2 -31.1,-14.5Q-17.1,-17.1 -3,-9.8Z" fill="#120d1a" stroke="#120d1a" stroke-width="1.2" stroke-linejoin="round"/><ellipse cx="19.3" cy="-5" rx="14.4" ry="8.6" fill="#635050" opacity="0.42"/><path d="M8.9,-1Q17.7,-4.9 29.6,-3Q20.3,3.3 8.9,-1Z" fill="#fbf6ee"/><clipPath id="gambi_101"><path d="M8.9,-1Q17.7,-4.9 29.6,-3Q20.3,3.3 8.9,-1Z"/></clipPath><g clip-path="url(#gambi_101)"><circle cx="20.7" cy="-1.2" r="4.1" fill="#ff2a4a"/><circle cx="20.7" cy="-1.2" r="1.9" fill="#120d1a"/><circle cx="19.2" cy="-3" r="1.2" fill="#fff"/><path d="M8.9,-1Q19.3,-0.9 29.6,-3L29.6,-3L29.6,-22L8.9,-22Z" fill="#000" opacity="0.18"/></g><path d="M9.3,-0.1C10.3,-0.2 13.5,-2.1 15.4,-2.4C17.3,-2.8 20.8,-2.7 22.8,-2.6C24.8,-2.5 28.2,-1.7 29.6,-1.9C31.1,-2.1 32.4,-3.6 32.7,-4.1C33.1,-4.5 32.7,-4.9 32.3,-4.9C31.8,-5 30.9,-4 29.6,-4.1C28.3,-4.3 25.1,-5.9 23,-6.1C20.9,-6.2 16.9,-5.6 14.8,-5C12.7,-4.4 9.3,-2.6 8.5,-1.9C7.7,-1.2 8.3,0 9.3,-0.1Z" fill="#120d1a"/><path d="M11,0Q19.3,4.1 28.1,-1" fill="none" stroke="#120d1a" stroke-width="1.056" stroke-linecap="round" stroke-linejoin="round" opacity="0.55"/><path d="M8.5,-10.4Q21.4,-21.6 34.4,-15.9Q21.4,-17.8 8.5,-5.6Z" fill="#120d1a" stroke="#120d1a" stroke-width="1.2" stroke-linejoin="round"/><path d="M3,2Q8.6,12 7.6,21" fill="none" stroke="#120d1a" stroke-width="2" stroke-linecap="round" stroke-linejoin="round" opacity="0.75"/><path d="M-2.4,22Q1.6,26 5.6,24Q9.6,26 11.6,21" fill="none" stroke="#120d1a" stroke-width="2.2" stroke-linecap="round" stroke-linejoin="round" /><path d="M-5.4,24Q-12.6,32 -10.6,40M15.6,24Q22.4,32 20.4,40" fill="none" stroke="#120d1a" stroke-width="1.7" stroke-linecap="round" stroke-linejoin="round" opacity="0.6"/><clipPath id="gambi_102"><path d="M-0.8,-66C6.5,-66 14.8,-64.5 20.6,-62C26.5,-59.5 30.9,-55.8 34.3,-51C37.7,-46.2 39.5,-39.8 41.1,-33C42.7,-26.2 43.8,-17.5 43.9,-10C44,-2.5 42.8,5.2 41.6,12C40.4,18.8 39.3,25.3 36.7,31C34.1,36.7 30,42 26,46C22,50 16.6,53.2 12.6,55C8.6,56.8 5.6,57 2,57C-1.7,57 -5.1,56.8 -9.4,55C-13.7,53.2 -19.5,50 -24,46C-28.4,42 -33,36.7 -36.1,31C-39.2,25.3 -40.7,18.8 -42.4,12C-44.1,5.2 -45.7,-2.5 -46.1,-10C-46.5,-17.5 -46.3,-26.2 -44.9,-33C-43.5,-39.8 -41.3,-46.2 -37.7,-51C-34.1,-55.8 -29.5,-59.5 -23.4,-62C-17.2,-64.5 -8.1,-66 -0.8,-66Z"/></clipPath><g clip-path="url(#gambi_102)"><path d="M43.6,12C43.8,14.4 40.6,26.3 38.7,31C36.7,35.8 31,46.5 28,50C25,53.5 18.1,57.6 14.6,59C11.1,60.4 3.2,61 0,61C-3.3,61 -8.1,60.4 -11.4,59C-14.6,57.6 -22.6,53.5 -26,50C-29.3,46.5 -35.8,35.8 -38.1,31C-40.4,26.3 -45.5,14.4 -44.4,12C-43.3,9.6 -33.1,9.6 -29.2,12C-25.3,14.4 -16.8,29.1 -13.6,31C-10.4,32.9 -6.8,27.5 -3.6,27C-0.3,26.5 9.2,26.5 12.4,27C15.7,27.5 19.3,32.9 22.4,31C25.5,29.1 34.2,14.4 36.8,12C39.4,9.6 43.4,9.6 43.6,12Z" fill="#2b191c" opacity="0.32"/></g><path d="M-7.4,38.8C-6.1,39.2 -0.8,40.4 1.9,40.3C4.5,40.2 9,39.1 11.3,38.1C13.7,37.2 17.4,34.3 18.3,33.5C19.3,32.7 18.9,32.1 17.8,32.5C16.6,32.8 12.8,35.1 10.5,35.9C8.2,36.6 4.3,37.5 1.7,37.7C-0.8,37.9 -5.9,37.1 -7.2,37.2C-8.5,37.4 -8.7,38.4 -7.4,38.8Z" fill="#120d1a"/><path d="M16.75,31Q20.65,34 18.05,38" fill="none" stroke="#120d1a" stroke-width="1.5" stroke-linecap="round" stroke-linejoin="round" /><path d="M-2.0999999999999996,45Q4.4,47 10.9,45" fill="none" stroke="#120d1a" stroke-width="1.5" stroke-linecap="round" stroke-linejoin="round" opacity="0.55"/><clipPath id="gambi_103"><path d="M-0.8,-66C6.5,-66 14.8,-64.5 20.6,-62C26.5,-59.5 30.9,-55.8 34.3,-51C37.7,-46.2 39.5,-39.8 41.1,-33C42.7,-26.2 43.8,-17.5 43.9,-10C44,-2.5 42.8,5.2 41.6,12C40.4,18.8 39.3,25.3 36.7,31C34.1,36.7 30,42 26,46C22,50 16.6,53.2 12.6,55C8.6,56.8 5.6,57 2,57C-1.7,57 -5.1,56.8 -9.4,55C-13.7,53.2 -19.5,50 -24,46C-28.4,42 -33,36.7 -36.1,31C-39.2,25.3 -40.7,18.8 -42.4,12C-44.1,5.2 -45.7,-2.5 -46.1,-10C-46.5,-17.5 -46.3,-26.2 -44.9,-33C-43.5,-39.8 -41.3,-46.2 -37.7,-51C-34.1,-55.8 -29.5,-59.5 -23.4,-62C-17.2,-64.5 -8.1,-66 -0.8,-66Z"/></clipPath><g clip-path="url(#gambi_103)"><path d="M-120,-120H120V120H-120Z M-37,60C-50.7,50 -40,16 -39,0C-38,-16 -38,-28 -31,-36C-24,-44 -8.3,-48 3,-48C14.3,-48 30,-44 37,-36C44,-28 44,-16 45,0C46,16 56.7,50 43,60C29.3,70 -23.3,70 -37,60Z" fill-rule="evenodd" fill="#e0389a"/></g><path d="M-37,60C-50.7,50 -40,16 -39,0C-38,-16 -38,-28 -31,-36C-24,-44 -8.3,-48 3,-48C14.3,-48 30,-44 37,-36C44,-28 44,-16 45,0C46,16 56.7,50 43,60C29.3,70 -23.3,70 -37,60Z" fill="none" stroke="#120d1a" stroke-width="2.6" stroke-linecap="round" stroke-linejoin="round" /><path d="M-0.8,-66C6.5,-66 14.8,-64.5 20.6,-62C26.5,-59.5 30.9,-55.8 34.3,-51C37.7,-46.2 39.5,-39.8 41.1,-33C42.7,-26.2 43.8,-17.5 43.9,-10C44,-2.5 42.8,5.2 41.6,12C40.4,18.8 39.3,25.3 36.7,31C34.1,36.7 30,42 26,46C22,50 16.6,53.2 12.6,55C8.6,56.8 5.6,57 2,57C-1.7,57 -5.1,56.8 -9.4,55C-13.7,53.2 -19.5,50 -24,46C-28.4,42 -33,36.7 -36.1,31C-39.2,25.3 -40.7,18.8 -42.4,12C-44.1,5.2 -45.7,-2.5 -46.1,-10C-46.5,-17.5 -46.3,-26.2 -44.9,-33C-43.5,-39.8 -41.3,-46.2 -37.7,-51C-34.1,-55.8 -29.5,-59.5 -23.4,-62C-17.2,-64.5 -8.1,-66 -0.8,-66Z" fill="none" stroke="#120d1a" stroke-width="3.4" stroke-linejoin="round"/><clipPath id="gambi_104"><path d="M-25,-65.7C-29.6,-68.4 -8.1,-70 -0.9,-70C6.3,-70 16.7,-71.9 22,-65.8C27.2,-59.6 34.4,-34 33,-30C31.6,-26 18.5,-40.6 13,-40C7.5,-39.4 1.6,-25.7 -3,-26C-7.6,-26.3 -13.3,-41.4 -17,-42C-20.7,-42.6 -26.1,-28.5 -27,-30C-27.9,-31.5 -31.6,-48.6 -23,-52C-14.4,-55.4 29.3,-49.9 29,-52C28.7,-54.1 -20.4,-62.9 -25,-65.7Z"/></clipPath><clipPath id="gambi_105"><path d="M-25,-65.7C-29.6,-68.4 -8.1,-70 -0.9,-70C6.3,-70 16.7,-71.9 22,-65.8C27.2,-59.6 34.4,-34 33,-30C31.6,-26 18.5,-40.6 13,-40C7.5,-39.4 1.6,-25.7 -3,-26C-7.6,-26.3 -13.3,-41.4 -17,-42C-20.7,-42.6 -26.1,-28.5 -27,-30C-27.9,-31.5 -31.6,-48.6 -23,-52C-14.4,-55.4 29.3,-49.9 29,-52C28.7,-54.1 -20.4,-62.9 -25,-65.7Z" transform="translate(2.6 2.6)"/></clipPath><radialGradient id="gambi_107" cx="0.3" cy="0.3" r="0.62"><stop offset="0" stop-color="#fffbe8" stop-opacity="0.34"/><stop offset="1" stop-color="#fffbe8" stop-opacity="0"/></radialGradient><radialGradient id="gambi_108" cx="0.3" cy="0.3" r="0.75"><stop offset="0.45" stop-color="#0a0418" stop-opacity="0"/><stop offset="1" stop-color="#0a0418" stop-opacity="0.38"/></radialGradient><mask id="gambi_106"><rect x="-3000" y="-3000" width="6000" height="6000" fill="#fff"/><path d="M-25,-65.7C-29.6,-68.4 -8.1,-70 -0.9,-70C6.3,-70 16.7,-71.9 22,-65.8C27.2,-59.6 34.4,-34 33,-30C31.6,-26 18.5,-40.6 13,-40C7.5,-39.4 1.6,-25.7 -3,-26C-7.6,-26.3 -13.3,-41.4 -17,-42C-20.7,-42.6 -26.1,-28.5 -27,-30C-27.9,-31.5 -31.6,-48.6 -23,-52C-14.4,-55.4 29.3,-49.9 29,-52C28.7,-54.1 -20.4,-62.9 -25,-65.7Z" fill="#000" transform="translate(-5.1 -5.1)"/></mask><g clip-path="url(#gambi_104)"><path d="M-25,-65.7C-29.6,-68.4 -8.1,-70 -0.9,-70C6.3,-70 16.7,-71.9 22,-65.8C27.2,-59.6 34.4,-34 33,-30C31.6,-26 18.5,-40.6 13,-40C7.5,-39.4 1.6,-25.7 -3,-26C-7.6,-26.3 -13.3,-41.4 -17,-42C-20.7,-42.6 -26.1,-28.5 -27,-30C-27.9,-31.5 -31.6,-48.6 -23,-52C-14.4,-55.4 29.3,-49.9 29,-52C28.7,-54.1 -20.4,-62.9 -25,-65.7Z" fill="#8c6e5a"/><g clip-path="url(#gambi_105)"><path d="M-25,-65.7C-29.6,-68.4 -8.1,-70 -0.9,-70C6.3,-70 16.7,-71.9 22,-65.8C27.2,-59.6 34.4,-34 33,-30C31.6,-26 18.5,-40.6 13,-40C7.5,-39.4 1.6,-25.7 -3,-26C-7.6,-26.3 -13.3,-41.4 -17,-42C-20.7,-42.6 -26.1,-28.5 -27,-30C-27.9,-31.5 -31.6,-48.6 -23,-52C-14.4,-55.4 29.3,-49.9 29,-52C28.7,-54.1 -20.4,-62.9 -25,-65.7Z" fill="#3f241e"/><path d="M-25,-65.7C-29.6,-68.4 -8.1,-70 -0.9,-70C6.3,-70 16.7,-71.9 22,-65.8C27.2,-59.6 34.4,-34 33,-30C31.6,-26 18.5,-40.6 13,-40C7.5,-39.4 1.6,-25.7 -3,-26C-7.6,-26.3 -13.3,-41.4 -17,-42C-20.7,-42.6 -26.1,-28.5 -27,-30C-27.9,-31.5 -31.6,-48.6 -23,-52C-14.4,-55.4 29.3,-49.9 29,-52C28.7,-54.1 -20.4,-62.9 -25,-65.7Z" fill="#2b191c" transform="translate(-1.8 -1.8)"/><path d="M-25,-65.7C-29.6,-68.4 -8.1,-70 -0.9,-70C6.3,-70 16.7,-71.9 22,-65.8C27.2,-59.6 34.4,-34 33,-30C31.6,-26 18.5,-40.6 13,-40C7.5,-39.4 1.6,-25.7 -3,-26C-7.6,-26.3 -13.3,-41.4 -17,-42C-20.7,-42.6 -26.1,-28.5 -27,-30C-27.9,-31.5 -31.6,-48.6 -23,-52C-14.4,-55.4 29.3,-49.9 29,-52C28.7,-54.1 -20.4,-62.9 -25,-65.7Z" fill="#5a3420" transform="translate(-6 -6)"/></g><path d="M-25,-65.7C-29.6,-68.4 -8.1,-70 -0.9,-70C6.3,-70 16.7,-71.9 22,-65.8C27.2,-59.6 34.4,-34 33,-30C31.6,-26 18.5,-40.6 13,-40C7.5,-39.4 1.6,-25.7 -3,-26C-7.6,-26.3 -13.3,-41.4 -17,-42C-20.7,-42.6 -26.1,-28.5 -27,-30C-27.9,-31.5 -31.6,-48.6 -23,-52C-14.4,-55.4 29.3,-49.9 29,-52C28.7,-54.1 -20.4,-62.9 -25,-65.7Z" fill="url(#gambi_108)"/><path d="M-25,-65.7C-29.6,-68.4 -8.1,-70 -0.9,-70C6.3,-70 16.7,-71.9 22,-65.8C27.2,-59.6 34.4,-34 33,-30C31.6,-26 18.5,-40.6 13,-40C7.5,-39.4 1.6,-25.7 -3,-26C-7.6,-26.3 -13.3,-41.4 -17,-42C-20.7,-42.6 -26.1,-28.5 -27,-30C-27.9,-31.5 -31.6,-48.6 -23,-52C-14.4,-55.4 29.3,-49.9 29,-52C28.7,-54.1 -20.4,-62.9 -25,-65.7Z" fill="url(#gambi_107)"/><g mask="url(#gambi_106)"><path d="M-25,-65.7C-29.6,-68.4 -8.1,-70 -0.9,-70C6.3,-70 16.7,-71.9 22,-65.8C27.2,-59.6 34.4,-34 33,-30C31.6,-26 18.5,-40.6 13,-40C7.5,-39.4 1.6,-25.7 -3,-26C-7.6,-26.3 -13.3,-41.4 -17,-42C-20.7,-42.6 -26.1,-28.5 -27,-30C-27.9,-31.5 -31.6,-48.6 -23,-52C-14.4,-55.4 29.3,-49.9 29,-52C28.7,-54.1 -20.4,-62.9 -25,-65.7Z" fill="url(#hatch)" transform="translate(-1.8 -1.8)"/></g></g><path d="M-25,-65.7C-29.6,-68.4 -8.1,-70 -0.9,-70C6.3,-70 16.7,-71.9 22,-65.8C27.2,-59.6 34.4,-34 33,-30C31.6,-26 18.5,-40.6 13,-40C7.5,-39.4 1.6,-25.7 -3,-26C-7.6,-26.3 -13.3,-41.4 -17,-42C-20.7,-42.6 -26.1,-28.5 -27,-30C-27.9,-31.5 -31.6,-48.6 -23,-52C-14.4,-55.4 29.3,-49.9 29,-52C28.7,-54.1 -20.4,-62.9 -25,-65.7Z" fill="none" stroke="#120d1a" stroke-width="3" stroke-linejoin="round"/></g><g transform="translate(126.1 292.6) rotate(140)"><clipPath id="gambi_0"><path d="M2.9,-28.9Q37.5,-29.4 72.2,-21.9A22,22 0 0 1 72.2,21.9Q37.5,27.4 2.9,28.9A29,29 0 1 1 2.9,-28.9Z"/></clipPath><clipPath id="gambi_1"><path d="M2.9,-28.9Q37.5,-29.4 72.2,-21.9A22,22 0 0 1 72.2,21.9Q37.5,27.4 2.9,28.9A29,29 0 1 1 2.9,-28.9Z" transform="translate(-0.3 -3.7)"/></clipPath><radialGradient id="gambi_3" cx="0.5" cy="0.8" r="0.62"><stop offset="0" stop-color="#fffbe8" stop-opacity="0.34"/><stop offset="1" stop-color="#fffbe8" stop-opacity="0"/></radialGradient><radialGradient id="gambi_4" cx="0.5" cy="0.7" r="0.75"><stop offset="0.45" stop-color="#0a0418" stop-opacity="0"/><stop offset="1" stop-color="#0a0418" stop-opacity="0.38"/></radialGradient><mask id="gambi_2"><rect x="-3000" y="-3000" width="6000" height="6000" fill="#fff"/><path d="M2.9,-28.9Q37.5,-29.4 72.2,-21.9A22,22 0 0 1 72.2,21.9Q37.5,27.4 2.9,28.9A29,29 0 1 1 2.9,-28.9Z" fill="#000" transform="translate(1.2 13.2)"/></mask><g clip-path="url(#gambi_0)"><path d="M2.9,-28.9Q37.5,-29.4 72.2,-21.9A22,22 0 0 1 72.2,21.9Q37.5,27.4 2.9,28.9A29,29 0 1 1 2.9,-28.9Z" fill="#a58164"/><g clip-path="url(#gambi_1)"><path d="M2.9,-28.9Q37.5,-29.4 72.2,-21.9A22,22 0 0 1 72.2,21.9Q37.5,27.4 2.9,28.9A29,29 0 1 1 2.9,-28.9Z" fill="#543324"/><path d="M2.9,-28.9Q37.5,-29.4 72.2,-21.9A22,22 0 0 1 72.2,21.9Q37.5,27.4 2.9,28.9A29,29 0 1 1 2.9,-28.9Z" fill="#382220" transform="translate(0.4 4.7)"/><path d="M2.9,-28.9Q37.5,-29.4 72.2,-21.9A22,22 0 0 1 72.2,21.9Q37.5,27.4 2.9,28.9A29,29 0 1 1 2.9,-28.9Z" fill="#7a4a2a" transform="translate(1.4 15.5)"/></g><path d="M2.9,-28.9Q37.5,-29.4 72.2,-21.9A22,22 0 0 1 72.2,21.9Q37.5,27.4 2.9,28.9A29,29 0 1 1 2.9,-28.9Z" fill="url(#gambi_4)"/><path d="M2.9,-28.9Q37.5,-29.4 72.2,-21.9A22,22 0 0 1 72.2,21.9Q37.5,27.4 2.9,28.9A29,29 0 1 1 2.9,-28.9Z" fill="url(#gambi_3)"/><g mask="url(#gambi_2)"><path d="M2.9,-28.9Q37.5,-29.4 72.2,-21.9A22,22 0 0 1 72.2,21.9Q37.5,27.4 2.9,28.9A29,29 0 1 1 2.9,-28.9Z" fill="url(#hatch)" transform="translate(0.4 4.7)"/></g></g><path d="M2.9,-28.9Q37.5,-29.4 72.2,-21.9A22,22 0 0 1 72.2,21.9Q37.5,27.4 2.9,28.9A29,29 0 1 1 2.9,-28.9Z" fill="none" stroke="#120d1a" stroke-width="3.2" stroke-linejoin="round"/></g><g transform="translate(72.5 337.6) rotate(-76)"><clipPath id="gambi_5"><path d="M1.6,-20.8Q32.4,-21.5 63.2,-16.2A16.2,16.2 0 0 1 63.2,16.2Q32.4,20.5 1.6,20.8A20.9,20.9 0 1 1 1.6,-20.8Z"/></clipPath><clipPath id="gambi_6"><path d="M1.6,-20.8Q32.4,-21.5 63.2,-16.2A16.2,16.2 0 0 1 63.2,16.2Q32.4,20.5 1.6,20.8A20.9,20.9 0 1 1 1.6,-20.8Z" transform="translate(-1.9 3.2)"/></clipPath><radialGradient id="gambi_8" cx="0.7" cy="0.2" r="0.62"><stop offset="0" stop-color="#fffbe8" stop-opacity="0.34"/><stop offset="1" stop-color="#fffbe8" stop-opacity="0"/></radialGradient><radialGradient id="gambi_9" cx="0.6" cy="0.3" r="0.75"><stop offset="0.45" stop-color="#0a0418" stop-opacity="0"/><stop offset="1" stop-color="#0a0418" stop-opacity="0.38"/></radialGradient><mask id="gambi_7"><rect x="-3000" y="-3000" width="6000" height="6000" fill="#fff"/><path d="M1.6,-20.8Q32.4,-21.5 63.2,-16.2A16.2,16.2 0 0 1 63.2,16.2Q32.4,20.5 1.6,20.8A20.9,20.9 0 1 1 1.6,-20.8Z" fill="#000" transform="translate(4.9 -8.2)"/></mask><g clip-path="url(#gambi_5)"><path d="M1.6,-20.8Q32.4,-21.5 63.2,-16.2A16.2,16.2 0 0 1 63.2,16.2Q32.4,20.5 1.6,20.8A20.9,20.9 0 1 1 1.6,-20.8Z" fill="#a58164"/><g clip-path="url(#gambi_6)"><path d="M1.6,-20.8Q32.4,-21.5 63.2,-16.2A16.2,16.2 0 0 1 63.2,16.2Q32.4,20.5 1.6,20.8A20.9,20.9 0 1 1 1.6,-20.8Z" fill="#543324"/><path d="M1.6,-20.8Q32.4,-21.5 63.2,-16.2A16.2,16.2 0 0 1 63.2,16.2Q32.4,20.5 1.6,20.8A20.9,20.9 0 1 1 1.6,-20.8Z" fill="#382220" transform="translate(1.7 -2.9)"/><path d="M1.6,-20.8Q32.4,-21.5 63.2,-16.2A16.2,16.2 0 0 1 63.2,16.2Q32.4,20.5 1.6,20.8A20.9,20.9 0 1 1 1.6,-20.8Z" fill="#7a4a2a" transform="translate(5.8 -9.6)"/></g><path d="M1.6,-20.8Q32.4,-21.5 63.2,-16.2A16.2,16.2 0 0 1 63.2,16.2Q32.4,20.5 1.6,20.8A20.9,20.9 0 1 1 1.6,-20.8Z" fill="url(#gambi_9)"/><path d="M1.6,-20.8Q32.4,-21.5 63.2,-16.2A16.2,16.2 0 0 1 63.2,16.2Q32.4,20.5 1.6,20.8A20.9,20.9 0 1 1 1.6,-20.8Z" fill="url(#gambi_8)"/><g mask="url(#gambi_7)"><path d="M1.6,-20.8Q32.4,-21.5 63.2,-16.2A16.2,16.2 0 0 1 63.2,16.2Q32.4,20.5 1.6,20.8A20.9,20.9 0 1 1 1.6,-20.8Z" fill="url(#hatch)" transform="translate(1.7 -2.9)"/></g></g><path d="M1.6,-20.8Q32.4,-21.5 63.2,-16.2A16.2,16.2 0 0 1 63.2,16.2Q32.4,20.5 1.6,20.8A20.9,20.9 0 1 1 1.6,-20.8Z" fill="none" stroke="#120d1a" stroke-width="3.2" stroke-linejoin="round"/></g><g transform="translate(87.5 277.5) rotate(-76)"><g transform="scale(1.4040000000000001)"><g transform="translate(18 6.7) rotate(27)"><clipPath id="gambi_10"><path d="M0.2,-4.6Q9.7,-4.1 19.2,-3.6A3.6,3.6 0 0 1 19.2,3.6Q9.7,4.1 0.2,4.6A4.6,4.6 0 1 1 0.2,-4.6Z"/></clipPath><clipPath id="gambi_11"><path d="M0.2,-4.6Q9.7,-4.1 19.2,-3.6A3.6,3.6 0 0 1 19.2,3.6Q9.7,4.1 0.2,4.6A4.6,4.6 0 1 1 0.2,-4.6Z" transform="translate(-1.9 3.2)"/></clipPath><radialGradient id="gambi_13" cx="0.7" cy="0.2" r="0.62"><stop offset="0" stop-color="#fffbe8" stop-opacity="0.34"/><stop offset="1" stop-color="#fffbe8" stop-opacity="0"/></radialGradient><radialGradient id="gambi_14" cx="0.6" cy="0.3" r="0.75"><stop offset="0.45" stop-color="#0a0418" stop-opacity="0"/><stop offset="1" stop-color="#0a0418" stop-opacity="0.38"/></radialGradient><g clip-path="url(#gambi_10)"><path d="M0.2,-4.6Q9.7,-4.1 19.2,-3.6A3.6,3.6 0 0 1 19.2,3.6Q9.7,4.1 0.2,4.6A4.6,4.6 0 1 1 0.2,-4.6Z" fill="#6e6b6a"/><g clip-path="url(#gambi_11)"><path d="M0.2,-4.6Q9.7,-4.1 19.2,-3.6A3.6,3.6 0 0 1 19.2,3.6Q9.7,4.1 0.2,4.6A4.6,4.6 0 1 1 0.2,-4.6Z" fill="#201e2a"/><path d="M0.2,-4.6Q9.7,-4.1 19.2,-3.6A3.6,3.6 0 0 1 19.2,3.6Q9.7,4.1 0.2,4.6A4.6,4.6 0 1 1 0.2,-4.6Z" fill="#181524" transform="translate(0.3 -0.5)"/><path d="M0.2,-4.6Q9.7,-4.1 19.2,-3.6A3.6,3.6 0 0 1 19.2,3.6Q9.7,4.1 0.2,4.6A4.6,4.6 0 1 1 0.2,-4.6Z" fill="#2a2a32" transform="translate(1.1 -1.8)"/></g><path d="M0.2,-4.6Q9.7,-4.1 19.2,-3.6A3.6,3.6 0 0 1 19.2,3.6Q9.7,4.1 0.2,4.6A4.6,4.6 0 1 1 0.2,-4.6Z" fill="url(#gambi_14)"/><path d="M0.2,-4.6Q9.7,-4.1 19.2,-3.6A3.6,3.6 0 0 1 19.2,3.6Q9.7,4.1 0.2,4.6A4.6,4.6 0 1 1 0.2,-4.6Z" fill="url(#gambi_13)"/></g><path d="M0.2,-4.6Q9.7,-4.1 19.2,-3.6A3.6,3.6 0 0 1 19.2,3.6Q9.7,4.1 0.2,4.6A4.6,4.6 0 1 1 0.2,-4.6Z" fill="none" stroke="#120d1a" stroke-width="2.6" stroke-linejoin="round"/></g><g transform="translate(18 3.1) rotate(12.6)"><clipPath id="gambi_15"><path d="M0.2,-4.6Q11.2,-4.1 22.2,-3.6A3.6,3.6 0 0 1 22.2,3.6Q11.2,4.1 0.2,4.6A4.6,4.6 0 1 1 0.2,-4.6Z"/></clipPath><clipPath id="gambi_16"><path d="M0.2,-4.6Q11.2,-4.1 22.2,-3.6A3.6,3.6 0 0 1 22.2,3.6Q11.2,4.1 0.2,4.6A4.6,4.6 0 1 1 0.2,-4.6Z" transform="translate(-1.9 3.2)"/></clipPath><radialGradient id="gambi_18" cx="0.7" cy="0.2" r="0.62"><stop offset="0" stop-color="#fffbe8" stop-opacity="0.34"/><stop offset="1" stop-color="#fffbe8" stop-opacity="0"/></radialGradient><radialGradient id="gambi_19" cx="0.6" cy="0.3" r="0.75"><stop offset="0.45" stop-color="#0a0418" stop-opacity="0"/><stop offset="1" stop-color="#0a0418" stop-opacity="0.38"/></radialGradient><g clip-path="url(#gambi_15)"><path d="M0.2,-4.6Q11.2,-4.1 22.2,-3.6A3.6,3.6 0 0 1 22.2,3.6Q11.2,4.1 0.2,4.6A4.6,4.6 0 1 1 0.2,-4.6Z" fill="#6e6b6a"/><g clip-path="url(#gambi_16)"><path d="M0.2,-4.6Q11.2,-4.1 22.2,-3.6A3.6,3.6 0 0 1 22.2,3.6Q11.2,4.1 0.2,4.6A4.6,4.6 0 1 1 0.2,-4.6Z" fill="#201e2a"/><path d="M0.2,-4.6Q11.2,-4.1 22.2,-3.6A3.6,3.6 0 0 1 22.2,3.6Q11.2,4.1 0.2,4.6A4.6,4.6 0 1 1 0.2,-4.6Z" fill="#181524" transform="translate(0.3 -0.5)"/><path d="M0.2,-4.6Q11.2,-4.1 22.2,-3.6A3.6,3.6 0 0 1 22.2,3.6Q11.2,4.1 0.2,4.6A4.6,4.6 0 1 1 0.2,-4.6Z" fill="#2a2a32" transform="translate(1.1 -1.8)"/></g><path d="M0.2,-4.6Q11.2,-4.1 22.2,-3.6A3.6,3.6 0 0 1 22.2,3.6Q11.2,4.1 0.2,4.6A4.6,4.6 0 1 1 0.2,-4.6Z" fill="url(#gambi_19)"/><path d="M0.2,-4.6Q11.2,-4.1 22.2,-3.6A3.6,3.6 0 0 1 22.2,3.6Q11.2,4.1 0.2,4.6A4.6,4.6 0 1 1 0.2,-4.6Z" fill="url(#gambi_18)"/></g><path d="M0.2,-4.6Q11.2,-4.1 22.2,-3.6A3.6,3.6 0 0 1 22.2,3.6Q11.2,4.1 0.2,4.6A4.6,4.6 0 1 1 0.2,-4.6Z" fill="none" stroke="#120d1a" stroke-width="2.6" stroke-linejoin="round"/></g><g transform="translate(18 -0.4) rotate(-1.8)"><clipPath id="gambi_20"><path d="M0.2,-4.6Q10.7,-4.1 21.2,-3.6A3.6,3.6 0 0 1 21.2,3.6Q10.7,4.1 0.2,4.6A4.6,4.6 0 1 1 0.2,-4.6Z"/></clipPath><clipPath id="gambi_21"><path d="M0.2,-4.6Q10.7,-4.1 21.2,-3.6A3.6,3.6 0 0 1 21.2,3.6Q10.7,4.1 0.2,4.6A4.6,4.6 0 1 1 0.2,-4.6Z" transform="translate(-1.9 3.2)"/></clipPath><radialGradient id="gambi_23" cx="0.7" cy="0.2" r="0.62"><stop offset="0" stop-color="#fffbe8" stop-opacity="0.34"/><stop offset="1" stop-color="#fffbe8" stop-opacity="0"/></radialGradient><radialGradient id="gambi_24" cx="0.6" cy="0.3" r="0.75"><stop offset="0.45" stop-color="#0a0418" stop-opacity="0"/><stop offset="1" stop-color="#0a0418" stop-opacity="0.38"/></radialGradient><g clip-path="url(#gambi_20)"><path d="M0.2,-4.6Q10.7,-4.1 21.2,-3.6A3.6,3.6 0 0 1 21.2,3.6Q10.7,4.1 0.2,4.6A4.6,4.6 0 1 1 0.2,-4.6Z" fill="#6e6b6a"/><g clip-path="url(#gambi_21)"><path d="M0.2,-4.6Q10.7,-4.1 21.2,-3.6A3.6,3.6 0 0 1 21.2,3.6Q10.7,4.1 0.2,4.6A4.6,4.6 0 1 1 0.2,-4.6Z" fill="#201e2a"/><path d="M0.2,-4.6Q10.7,-4.1 21.2,-3.6A3.6,3.6 0 0 1 21.2,3.6Q10.7,4.1 0.2,4.6A4.6,4.6 0 1 1 0.2,-4.6Z" fill="#181524" transform="translate(0.3 -0.5)"/><path d="M0.2,-4.6Q10.7,-4.1 21.2,-3.6A3.6,3.6 0 0 1 21.2,3.6Q10.7,4.1 0.2,4.6A4.6,4.6 0 1 1 0.2,-4.6Z" fill="#2a2a32" transform="translate(1.1 -1.8)"/></g><path d="M0.2,-4.6Q10.7,-4.1 21.2,-3.6A3.6,3.6 0 0 1 21.2,3.6Q10.7,4.1 0.2,4.6A4.6,4.6 0 1 1 0.2,-4.6Z" fill="url(#gambi_24)"/><path d="M0.2,-4.6Q10.7,-4.1 21.2,-3.6A3.6,3.6 0 0 1 21.2,3.6Q10.7,4.1 0.2,4.6A4.6,4.6 0 1 1 0.2,-4.6Z" fill="url(#gambi_23)"/></g><path d="M0.2,-4.6Q10.7,-4.1 21.2,-3.6A3.6,3.6 0 0 1 21.2,3.6Q10.7,4.1 0.2,4.6A4.6,4.6 0 1 1 0.2,-4.6Z" fill="none" stroke="#120d1a" stroke-width="2.6" stroke-linejoin="round"/></g><g transform="translate(18 -4) rotate(-16.2)"><clipPath id="gambi_25"><path d="M0.3,-4.6Q8.7,-4.1 17.2,-3.6A3.6,3.6 0 0 1 17.2,3.6Q8.7,4.1 0.3,4.6A4.6,4.6 0 1 1 0.3,-4.6Z"/></clipPath><clipPath id="gambi_26"><path d="M0.3,-4.6Q8.7,-4.1 17.2,-3.6A3.6,3.6 0 0 1 17.2,3.6Q8.7,4.1 0.3,4.6A4.6,4.6 0 1 1 0.3,-4.6Z" transform="translate(-1.9 3.2)"/></clipPath><radialGradient id="gambi_28" cx="0.7" cy="0.2" r="0.62"><stop offset="0" stop-color="#fffbe8" stop-opacity="0.34"/><stop offset="1" stop-color="#fffbe8" stop-opacity="0"/></radialGradient><radialGradient id="gambi_29" cx="0.6" cy="0.3" r="0.75"><stop offset="0.45" stop-color="#0a0418" stop-opacity="0"/><stop offset="1" stop-color="#0a0418" stop-opacity="0.38"/></radialGradient><g clip-path="url(#gambi_25)"><path d="M0.3,-4.6Q8.7,-4.1 17.2,-3.6A3.6,3.6 0 0 1 17.2,3.6Q8.7,4.1 0.3,4.6A4.6,4.6 0 1 1 0.3,-4.6Z" fill="#6e6b6a"/><g clip-path="url(#gambi_26)"><path d="M0.3,-4.6Q8.7,-4.1 17.2,-3.6A3.6,3.6 0 0 1 17.2,3.6Q8.7,4.1 0.3,4.6A4.6,4.6 0 1 1 0.3,-4.6Z" fill="#201e2a"/><path d="M0.3,-4.6Q8.7,-4.1 17.2,-3.6A3.6,3.6 0 0 1 17.2,3.6Q8.7,4.1 0.3,4.6A4.6,4.6 0 1 1 0.3,-4.6Z" fill="#181524" transform="translate(0.3 -0.5)"/><path d="M0.3,-4.6Q8.7,-4.1 17.2,-3.6A3.6,3.6 0 0 1 17.2,3.6Q8.7,4.1 0.3,4.6A4.6,4.6 0 1 1 0.3,-4.6Z" fill="#2a2a32" transform="translate(1.1 -1.8)"/></g><path d="M0.3,-4.6Q8.7,-4.1 17.2,-3.6A3.6,3.6 0 0 1 17.2,3.6Q8.7,4.1 0.3,4.6A4.6,4.6 0 1 1 0.3,-4.6Z" fill="url(#gambi_29)"/><path d="M0.3,-4.6Q8.7,-4.1 17.2,-3.6A3.6,3.6 0 0 1 17.2,3.6Q8.7,4.1 0.3,4.6A4.6,4.6 0 1 1 0.3,-4.6Z" fill="url(#gambi_28)"/></g><path d="M0.3,-4.6Q8.7,-4.1 17.2,-3.6A3.6,3.6 0 0 1 17.2,3.6Q8.7,4.1 0.3,4.6A4.6,4.6 0 1 1 0.3,-4.6Z" fill="none" stroke="#120d1a" stroke-width="2.6" stroke-linejoin="round"/></g><clipPath id="gambi_30"><path d="M0,-11C2,-15 8.5,-13.2 12,-13C15.5,-12.8 19.2,-12.2 21,-10C22.8,-7.8 23,-3.3 23,0C23,3.3 22.8,7.8 21,10C19.2,12.2 15.5,12.8 12,13C8.5,13.2 2,15 0,11C-2,7 -2,-7 0,-11Z"/></clipPath><clipPath id="gambi_31"><path d="M0,-11C2,-15 8.5,-13.2 12,-13C15.5,-12.8 19.2,-12.2 21,-10C22.8,-7.8 23,-3.3 23,0C23,3.3 22.8,7.8 21,10C19.2,12.2 15.5,12.8 12,13C8.5,13.2 2,15 0,11C-2,7 -2,-7 0,-11Z" transform="translate(-1.9 3.2)"/></clipPath><radialGradient id="gambi_33" cx="0.7" cy="0.2" r="0.62"><stop offset="0" stop-color="#fffbe8" stop-opacity="0.34"/><stop offset="1" stop-color="#fffbe8" stop-opacity="0"/></radialGradient><radialGradient id="gambi_34" cx="0.6" cy="0.3" r="0.75"><stop offset="0.45" stop-color="#0a0418" stop-opacity="0"/><stop offset="1" stop-color="#0a0418" stop-opacity="0.38"/></radialGradient><g clip-path="url(#gambi_30)"><path d="M0,-11C2,-15 8.5,-13.2 12,-13C15.5,-12.8 19.2,-12.2 21,-10C22.8,-7.8 23,-3.3 23,0C23,3.3 22.8,7.8 21,10C19.2,12.2 15.5,12.8 12,13C8.5,13.2 2,15 0,11C-2,7 -2,-7 0,-11Z" fill="#6e6b6a"/><g clip-path="url(#gambi_31)"><path d="M0,-11C2,-15 8.5,-13.2 12,-13C15.5,-12.8 19.2,-12.2 21,-10C22.8,-7.8 23,-3.3 23,0C23,3.3 22.8,7.8 21,10C19.2,12.2 15.5,12.8 12,13C8.5,13.2 2,15 0,11C-2,7 -2,-7 0,-11Z" fill="#201e2a"/><path d="M0,-11C2,-15 8.5,-13.2 12,-13C15.5,-12.8 19.2,-12.2 21,-10C22.8,-7.8 23,-3.3 23,0C23,3.3 22.8,7.8 21,10C19.2,12.2 15.5,12.8 12,13C8.5,13.2 2,15 0,11C-2,7 -2,-7 0,-11Z" fill="#181524" transform="translate(0.7 -1.1)"/><path d="M0,-11C2,-15 8.5,-13.2 12,-13C15.5,-12.8 19.2,-12.2 21,-10C22.8,-7.8 23,-3.3 23,0C23,3.3 22.8,7.8 21,10C19.2,12.2 15.5,12.8 12,13C8.5,13.2 2,15 0,11C-2,7 -2,-7 0,-11Z" fill="#2a2a32" transform="translate(2.2 -3.6)"/></g><path d="M0,-11C2,-15 8.5,-13.2 12,-13C15.5,-12.8 19.2,-12.2 21,-10C22.8,-7.8 23,-3.3 23,0C23,3.3 22.8,7.8 21,10C19.2,12.2 15.5,12.8 12,13C8.5,13.2 2,15 0,11C-2,7 -2,-7 0,-11Z" fill="url(#gambi_34)"/><path d="M0,-11C2,-15 8.5,-13.2 12,-13C15.5,-12.8 19.2,-12.2 21,-10C22.8,-7.8 23,-3.3 23,0C23,3.3 22.8,7.8 21,10C19.2,12.2 15.5,12.8 12,13C8.5,13.2 2,15 0,11C-2,7 -2,-7 0,-11Z" fill="url(#gambi_33)"/></g><path d="M0,-11C2,-15 8.5,-13.2 12,-13C15.5,-12.8 19.2,-12.2 21,-10C22.8,-7.8 23,-3.3 23,0C23,3.3 22.8,7.8 21,10C19.2,12.2 15.5,12.8 12,13C8.5,13.2 2,15 0,11C-2,7 -2,-7 0,-11Z" fill="none" stroke="#120d1a" stroke-width="2.6" stroke-linejoin="round"/><g transform="translate(6 9) rotate(62)"><clipPath id="gambi_35"><path d="M0.4,-5Q8.8,-4.4 17.3,-3.8A3.8,3.8 0 0 1 17.3,3.8Q8.8,4.4 0.4,5A5,5 0 1 1 0.4,-5Z"/></clipPath><clipPath id="gambi_36"><path d="M0.4,-5Q8.8,-4.4 17.3,-3.8A3.8,3.8 0 0 1 17.3,3.8Q8.8,4.4 0.4,5A5,5 0 1 1 0.4,-5Z" transform="translate(-1.9 3.2)"/></clipPath><radialGradient id="gambi_38" cx="0.7" cy="0.2" r="0.62"><stop offset="0" stop-color="#fffbe8" stop-opacity="0.34"/><stop offset="1" stop-color="#fffbe8" stop-opacity="0"/></radialGradient><radialGradient id="gambi_39" cx="0.6" cy="0.3" r="0.75"><stop offset="0.45" stop-color="#0a0418" stop-opacity="0"/><stop offset="1" stop-color="#0a0418" stop-opacity="0.38"/></radialGradient><g clip-path="url(#gambi_35)"><path d="M0.4,-5Q8.8,-4.4 17.3,-3.8A3.8,3.8 0 0 1 17.3,3.8Q8.8,4.4 0.4,5A5,5 0 1 1 0.4,-5Z" fill="#6e6b6a"/><g clip-path="url(#gambi_36)"><path d="M0.4,-5Q8.8,-4.4 17.3,-3.8A3.8,3.8 0 0 1 17.3,3.8Q8.8,4.4 0.4,5A5,5 0 1 1 0.4,-5Z" fill="#201e2a"/><path d="M0.4,-5Q8.8,-4.4 17.3,-3.8A3.8,3.8 0 0 1 17.3,3.8Q8.8,4.4 0.4,5A5,5 0 1 1 0.4,-5Z" fill="#181524" transform="translate(0.3 -0.5)"/><path d="M0.4,-5Q8.8,-4.4 17.3,-3.8A3.8,3.8 0 0 1 17.3,3.8Q8.8,4.4 0.4,5A5,5 0 1 1 0.4,-5Z" fill="#2a2a32" transform="translate(1.1 -1.8)"/></g><path d="M0.4,-5Q8.8,-4.4 17.3,-3.8A3.8,3.8 0 0 1 17.3,3.8Q8.8,4.4 0.4,5A5,5 0 1 1 0.4,-5Z" fill="url(#gambi_39)"/><path d="M0.4,-5Q8.8,-4.4 17.3,-3.8A3.8,3.8 0 0 1 17.3,3.8Q8.8,4.4 0.4,5A5,5 0 1 1 0.4,-5Z" fill="url(#gambi_38)"/></g><path d="M0.4,-5Q8.8,-4.4 17.3,-3.8A3.8,3.8 0 0 1 17.3,3.8Q8.8,4.4 0.4,5A5,5 0 1 1 0.4,-5Z" fill="none" stroke="#120d1a" stroke-width="2.6" stroke-linejoin="round"/></g></g></g>
<g transform="translate(60.5 245.3) rotate(-40)"><rect x="-11" y="-16" width="22" height="32" rx="3" fill="#ff3da5" opacity="0.6" filter="url(#glow)"/><rect x="-11" y="-16" width="22" height="32" rx="3" fill="#fff6fb" stroke="#120d1a" stroke-width="2"/><rect x="-7" y="-12" width="14" height="24" rx="2" fill="none" stroke="#ff3da5" stroke-width="1.6"/><path d="M0,-6L5,0L0,6L-5,0Z" fill="#ff3da5"/></g><g transform="translate(73.1 238) rotate(-20)"><rect x="-11" y="-16" width="22" height="32" rx="3" fill="#ff3da5" opacity="0.6" filter="url(#glow)"/><rect x="-11" y="-16" width="22" height="32" rx="3" fill="#fff6fb" stroke="#120d1a" stroke-width="2"/><rect x="-7" y="-12" width="14" height="24" rx="2" fill="none" stroke="#ff3da5" stroke-width="1.6"/><path d="M0,-6L5,0L0,6L-5,0Z" fill="#ff3da5"/></g><g transform="translate(87.5 235.5)"><rect x="-11" y="-16" width="22" height="32" rx="3" fill="#ff3da5" opacity="0.6" filter="url(#glow)"/><rect x="-11" y="-16" width="22" height="32" rx="3" fill="#fff6fb" stroke="#120d1a" stroke-width="2"/><rect x="-7" y="-12" width="14" height="24" rx="2" fill="none" stroke="#ff3da5" stroke-width="1.6"/><path d="M0,-6L5,0L0,6L-5,0Z" fill="#ff3da5"/></g><g transform="translate(101.8 238) rotate(20)"><rect x="-11" y="-16" width="22" height="32" rx="3" fill="#ff3da5" opacity="0.6" filter="url(#glow)"/><rect x="-11" y="-16" width="22" height="32" rx="3" fill="#fff6fb" stroke="#120d1a" stroke-width="2"/><rect x="-7" y="-12" width="14" height="24" rx="2" fill="none" stroke="#ff3da5" stroke-width="1.6"/><path d="M0,-6L5,0L0,6L-5,0Z" fill="#ff3da5"/></g>
<rect width="400" height="400" fill="url(#vig)"/>
</g>
<circle cx="200" cy="200" r="186" fill="none" stroke="#120d1a" stroke-width="7"/>
<circle cx="200" cy="200" r="181" fill="none" stroke="#ffffff" stroke-width="1.6" opacity="0.35"/>
</svg>